<?xml version="1.0" encoding="utf-8"?>
<svg xmlns="http://www.w3.org/2000/svg" xmlns:xlink="http://www.w3.org/1999/xlink" width="600" height="400" viewBox="0 0 2400 1600">
<defs>
  <clipPath id="clip720">
    <rect x="0" y="0" width="2400" height="1600"/>
  </clipPath>
</defs>
<path clip-path="url(#clip720)" d="M0 1600 L2400 1600 L2400 0 L0 0  Z" fill="#ffffff" fill-rule="evenodd" fill-opacity="1"/>
<defs>
  <clipPath id="clip721">
    <rect x="480" y="0" width="1681" height="1600"/>
  </clipPath>
</defs>
<path clip-path="url(#clip720)" d="M193.936 1486.45 L755.31 1486.45 L755.31 47.2441 L193.936 47.2441  Z" fill="#ffffff" fill-rule="evenodd" fill-opacity="1"/>
<defs>
  <clipPath id="clip722">
    <rect x="193" y="47" width="562" height="1440"/>
  </clipPath>
</defs>
<polyline clip-path="url(#clip722)" style="stroke:#000000; stroke-linecap:round; stroke-linejoin:round; stroke-width:2; stroke-opacity:0.1; fill:none" points="209.824,1486.45 209.824,47.2441 "/>
<polyline clip-path="url(#clip722)" style="stroke:#000000; stroke-linecap:round; stroke-linejoin:round; stroke-width:2; stroke-opacity:0.1; fill:none" points="294.112,1486.45 294.112,47.2441 "/>
<polyline clip-path="url(#clip722)" style="stroke:#000000; stroke-linecap:round; stroke-linejoin:round; stroke-width:2; stroke-opacity:0.1; fill:none" points="378.4,1486.45 378.4,47.2441 "/>
<polyline clip-path="url(#clip722)" style="stroke:#000000; stroke-linecap:round; stroke-linejoin:round; stroke-width:2; stroke-opacity:0.1; fill:none" points="462.688,1486.45 462.688,47.2441 "/>
<polyline clip-path="url(#clip722)" style="stroke:#000000; stroke-linecap:round; stroke-linejoin:round; stroke-width:2; stroke-opacity:0.1; fill:none" points="546.977,1486.45 546.977,47.2441 "/>
<polyline clip-path="url(#clip722)" style="stroke:#000000; stroke-linecap:round; stroke-linejoin:round; stroke-width:2; stroke-opacity:0.1; fill:none" points="631.265,1486.45 631.265,47.2441 "/>
<polyline clip-path="url(#clip722)" style="stroke:#000000; stroke-linecap:round; stroke-linejoin:round; stroke-width:2; stroke-opacity:0.1; fill:none" points="715.553,1486.45 715.553,47.2441 "/>
<polyline clip-path="url(#clip720)" style="stroke:#000000; stroke-linecap:round; stroke-linejoin:round; stroke-width:4; stroke-opacity:1; fill:none" points="193.936,1486.45 755.31,1486.45 "/>
<polyline clip-path="url(#clip720)" style="stroke:#000000; stroke-linecap:round; stroke-linejoin:round; stroke-width:4; stroke-opacity:1; fill:none" points="209.824,1486.45 209.824,1467.55 "/>
<polyline clip-path="url(#clip720)" style="stroke:#000000; stroke-linecap:round; stroke-linejoin:round; stroke-width:4; stroke-opacity:1; fill:none" points="294.112,1486.45 294.112,1467.55 "/>
<polyline clip-path="url(#clip720)" style="stroke:#000000; stroke-linecap:round; stroke-linejoin:round; stroke-width:4; stroke-opacity:1; fill:none" points="378.4,1486.45 378.4,1467.55 "/>
<polyline clip-path="url(#clip720)" style="stroke:#000000; stroke-linecap:round; stroke-linejoin:round; stroke-width:4; stroke-opacity:1; fill:none" points="462.688,1486.45 462.688,1467.55 "/>
<polyline clip-path="url(#clip720)" style="stroke:#000000; stroke-linecap:round; stroke-linejoin:round; stroke-width:4; stroke-opacity:1; fill:none" points="546.977,1486.45 546.977,1467.55 "/>
<polyline clip-path="url(#clip720)" style="stroke:#000000; stroke-linecap:round; stroke-linejoin:round; stroke-width:4; stroke-opacity:1; fill:none" points="631.265,1486.45 631.265,1467.55 "/>
<polyline clip-path="url(#clip720)" style="stroke:#000000; stroke-linecap:round; stroke-linejoin:round; stroke-width:4; stroke-opacity:1; fill:none" points="715.553,1486.45 715.553,1467.55 "/>
<path clip-path="url(#clip720)" d="M209.824 1517.37 Q206.213 1517.37 204.384 1520.93 Q202.579 1524.47 202.579 1531.6 Q202.579 1538.71 204.384 1542.27 Q206.213 1545.82 209.824 1545.82 Q213.458 1545.82 215.264 1542.27 Q217.092 1538.71 217.092 1531.6 Q217.092 1524.47 215.264 1520.93 Q213.458 1517.37 209.824 1517.37 M209.824 1513.66 Q215.634 1513.66 218.69 1518.27 Q221.768 1522.85 221.768 1531.6 Q221.768 1540.33 218.69 1544.94 Q215.634 1549.52 209.824 1549.52 Q204.014 1549.52 200.935 1544.94 Q197.88 1540.33 197.88 1531.6 Q197.88 1522.85 200.935 1518.27 Q204.014 1513.66 209.824 1513.66 Z" fill="#000000" fill-rule="nonzero" fill-opacity="1" /><path clip-path="url(#clip720)" d="M284.494 1544.91 L292.133 1544.91 L292.133 1518.55 L283.823 1520.21 L283.823 1515.95 L292.087 1514.29 L296.763 1514.29 L296.763 1544.91 L304.401 1544.91 L304.401 1548.85 L284.494 1548.85 L284.494 1544.91 Z" fill="#000000" fill-rule="nonzero" fill-opacity="1" /><path clip-path="url(#clip720)" d="M373.053 1544.91 L389.372 1544.91 L389.372 1548.85 L367.428 1548.85 L367.428 1544.91 Q370.09 1542.16 374.673 1537.53 Q379.28 1532.88 380.46 1531.53 Q382.706 1529.01 383.585 1527.27 Q384.488 1525.51 384.488 1523.82 Q384.488 1521.07 382.544 1519.33 Q380.622 1517.6 377.521 1517.6 Q375.322 1517.6 372.868 1518.36 Q370.437 1519.13 367.66 1520.68 L367.66 1515.95 Q370.484 1514.82 372.937 1514.24 Q375.391 1513.66 377.428 1513.66 Q382.798 1513.66 385.993 1516.35 Q389.187 1519.03 389.187 1523.52 Q389.187 1525.65 388.377 1527.57 Q387.59 1529.47 385.484 1532.07 Q384.905 1532.74 381.803 1535.95 Q378.701 1539.15 373.053 1544.91 Z" fill="#000000" fill-rule="nonzero" fill-opacity="1" /><path clip-path="url(#clip720)" d="M466.936 1530.21 Q470.292 1530.93 472.167 1533.2 Q474.066 1535.47 474.066 1538.8 Q474.066 1543.92 470.547 1546.72 Q467.029 1549.52 460.547 1549.52 Q458.371 1549.52 456.056 1549.08 Q453.765 1548.66 451.311 1547.81 L451.311 1543.29 Q453.256 1544.43 455.57 1545.01 Q457.885 1545.58 460.408 1545.58 Q464.806 1545.58 467.098 1543.85 Q469.413 1542.11 469.413 1538.8 Q469.413 1535.75 467.26 1534.03 Q465.13 1532.3 461.311 1532.3 L457.283 1532.3 L457.283 1528.45 L461.496 1528.45 Q464.945 1528.45 466.774 1527.09 Q468.603 1525.7 468.603 1523.11 Q468.603 1520.45 466.705 1519.03 Q464.83 1517.6 461.311 1517.6 Q459.39 1517.6 457.191 1518.01 Q454.992 1518.43 452.353 1519.31 L452.353 1515.14 Q455.015 1514.4 457.33 1514.03 Q459.668 1513.66 461.728 1513.66 Q467.052 1513.66 470.154 1516.09 Q473.255 1518.5 473.255 1522.62 Q473.255 1525.49 471.612 1527.48 Q469.968 1529.45 466.936 1530.21 Z" fill="#000000" fill-rule="nonzero" fill-opacity="1" /><path clip-path="url(#clip720)" d="M549.986 1518.36 L538.18 1536.81 L549.986 1536.81 L549.986 1518.36 M548.759 1514.29 L554.639 1514.29 L554.639 1536.81 L559.569 1536.81 L559.569 1540.7 L554.639 1540.7 L554.639 1548.85 L549.986 1548.85 L549.986 1540.7 L534.384 1540.7 L534.384 1536.19 L548.759 1514.29 Z" fill="#000000" fill-rule="nonzero" fill-opacity="1" /><path clip-path="url(#clip720)" d="M621.542 1514.29 L639.899 1514.29 L639.899 1518.22 L625.825 1518.22 L625.825 1526.7 Q626.843 1526.35 627.862 1526.19 Q628.88 1526 629.899 1526 Q635.686 1526 639.066 1529.17 Q642.445 1532.34 642.445 1537.76 Q642.445 1543.34 638.973 1546.44 Q635.501 1549.52 629.181 1549.52 Q627.005 1549.52 624.737 1549.15 Q622.492 1548.78 620.084 1548.04 L620.084 1543.34 Q622.167 1544.47 624.39 1545.03 Q626.612 1545.58 629.089 1545.58 Q633.093 1545.58 635.431 1543.48 Q637.769 1541.37 637.769 1537.76 Q637.769 1534.15 635.431 1532.04 Q633.093 1529.94 629.089 1529.94 Q627.214 1529.94 625.339 1530.35 Q623.487 1530.77 621.542 1531.65 L621.542 1514.29 Z" fill="#000000" fill-rule="nonzero" fill-opacity="1" /><path clip-path="url(#clip720)" d="M715.958 1529.7 Q712.81 1529.7 710.958 1531.86 Q709.129 1534.01 709.129 1537.76 Q709.129 1541.49 710.958 1543.66 Q712.81 1545.82 715.958 1545.82 Q719.106 1545.82 720.935 1543.66 Q722.787 1541.49 722.787 1537.76 Q722.787 1534.01 720.935 1531.86 Q719.106 1529.7 715.958 1529.7 M725.24 1515.05 L725.24 1519.31 Q723.481 1518.48 721.675 1518.04 Q719.893 1517.6 718.134 1517.6 Q713.504 1517.6 711.051 1520.72 Q708.62 1523.85 708.273 1530.17 Q709.638 1528.15 711.699 1527.09 Q713.759 1526 716.236 1526 Q721.444 1526 724.453 1529.17 Q727.486 1532.32 727.486 1537.76 Q727.486 1543.08 724.337 1546.3 Q721.189 1549.52 715.958 1549.52 Q709.963 1549.52 706.791 1544.94 Q703.62 1540.33 703.62 1531.6 Q703.62 1523.41 707.509 1518.55 Q711.398 1513.66 717.949 1513.66 Q719.708 1513.66 721.49 1514.01 Q723.296 1514.36 725.24 1515.05 Z" fill="#000000" fill-rule="nonzero" fill-opacity="1" /><polyline clip-path="url(#clip722)" style="stroke:#000000; stroke-linecap:round; stroke-linejoin:round; stroke-width:2; stroke-opacity:0.1; fill:none" points="193.936,1410.99 755.31,1410.99 "/>
<polyline clip-path="url(#clip722)" style="stroke:#000000; stroke-linecap:round; stroke-linejoin:round; stroke-width:2; stroke-opacity:0.1; fill:none" points="193.936,1127.47 755.31,1127.47 "/>
<polyline clip-path="url(#clip722)" style="stroke:#000000; stroke-linecap:round; stroke-linejoin:round; stroke-width:2; stroke-opacity:0.1; fill:none" points="193.936,843.954 755.31,843.954 "/>
<polyline clip-path="url(#clip722)" style="stroke:#000000; stroke-linecap:round; stroke-linejoin:round; stroke-width:2; stroke-opacity:0.1; fill:none" points="193.936,560.437 755.31,560.437 "/>
<polyline clip-path="url(#clip722)" style="stroke:#000000; stroke-linecap:round; stroke-linejoin:round; stroke-width:2; stroke-opacity:0.1; fill:none" points="193.936,276.92 755.31,276.92 "/>
<polyline clip-path="url(#clip720)" style="stroke:#000000; stroke-linecap:round; stroke-linejoin:round; stroke-width:4; stroke-opacity:1; fill:none" points="193.936,1486.45 193.936,47.2441 "/>
<polyline clip-path="url(#clip720)" style="stroke:#000000; stroke-linecap:round; stroke-linejoin:round; stroke-width:4; stroke-opacity:1; fill:none" points="193.936,1410.99 212.834,1410.99 "/>
<polyline clip-path="url(#clip720)" style="stroke:#000000; stroke-linecap:round; stroke-linejoin:round; stroke-width:4; stroke-opacity:1; fill:none" points="193.936,1127.47 212.834,1127.47 "/>
<polyline clip-path="url(#clip720)" style="stroke:#000000; stroke-linecap:round; stroke-linejoin:round; stroke-width:4; stroke-opacity:1; fill:none" points="193.936,843.954 212.834,843.954 "/>
<polyline clip-path="url(#clip720)" style="stroke:#000000; stroke-linecap:round; stroke-linejoin:round; stroke-width:4; stroke-opacity:1; fill:none" points="193.936,560.437 212.834,560.437 "/>
<polyline clip-path="url(#clip720)" style="stroke:#000000; stroke-linecap:round; stroke-linejoin:round; stroke-width:4; stroke-opacity:1; fill:none" points="193.936,276.92 212.834,276.92 "/>
<path clip-path="url(#clip720)" d="M50.9921 1411.44 L80.6679 1411.44 L80.6679 1415.38 L50.9921 1415.38 L50.9921 1411.44 Z" fill="#000000" fill-rule="nonzero" fill-opacity="1" /><path clip-path="url(#clip720)" d="M91.5706 1424.33 L99.2095 1424.33 L99.2095 1397.97 L90.8993 1399.63 L90.8993 1395.38 L99.1632 1393.71 L103.839 1393.71 L103.839 1424.33 L111.478 1424.33 L111.478 1428.27 L91.5706 1428.27 L91.5706 1424.33 Z" fill="#000000" fill-rule="nonzero" fill-opacity="1" /><path clip-path="url(#clip720)" d="M120.922 1422.39 L125.807 1422.39 L125.807 1428.27 L120.922 1428.27 L120.922 1422.39 Z" fill="#000000" fill-rule="nonzero" fill-opacity="1" /><path clip-path="url(#clip720)" d="M145.992 1396.79 Q142.381 1396.79 140.552 1400.35 Q138.746 1403.89 138.746 1411.02 Q138.746 1418.13 140.552 1421.69 Q142.381 1425.24 145.992 1425.24 Q149.626 1425.24 151.431 1421.69 Q153.26 1418.13 153.26 1411.02 Q153.26 1403.89 151.431 1400.35 Q149.626 1396.79 145.992 1396.79 M145.992 1393.08 Q151.802 1393.08 154.857 1397.69 Q157.936 1402.27 157.936 1411.02 Q157.936 1419.75 154.857 1424.36 Q151.802 1428.94 145.992 1428.94 Q140.181 1428.94 137.103 1424.36 Q134.047 1419.75 134.047 1411.02 Q134.047 1402.27 137.103 1397.69 Q140.181 1393.08 145.992 1393.08 Z" fill="#000000" fill-rule="nonzero" fill-opacity="1" /><path clip-path="url(#clip720)" d="M51.9875 1127.92 L81.6633 1127.92 L81.6633 1131.86 L51.9875 1131.86 L51.9875 1127.92 Z" fill="#000000" fill-rule="nonzero" fill-opacity="1" /><path clip-path="url(#clip720)" d="M101.756 1113.27 Q98.1447 1113.27 96.316 1116.83 Q94.5104 1120.38 94.5104 1127.51 Q94.5104 1134.61 96.316 1138.18 Q98.1447 1141.72 101.756 1141.72 Q105.39 1141.72 107.196 1138.18 Q109.024 1134.61 109.024 1127.51 Q109.024 1120.38 107.196 1116.83 Q105.39 1113.27 101.756 1113.27 M101.756 1109.57 Q107.566 1109.57 110.621 1114.17 Q113.7 1118.76 113.7 1127.51 Q113.7 1136.23 110.621 1140.84 Q107.566 1145.42 101.756 1145.42 Q95.9456 1145.42 92.8669 1140.84 Q89.8114 1136.23 89.8114 1127.51 Q89.8114 1118.76 92.8669 1114.17 Q95.9456 1109.57 101.756 1109.57 Z" fill="#000000" fill-rule="nonzero" fill-opacity="1" /><path clip-path="url(#clip720)" d="M121.918 1138.87 L126.802 1138.87 L126.802 1144.75 L121.918 1144.75 L121.918 1138.87 Z" fill="#000000" fill-rule="nonzero" fill-opacity="1" /><path clip-path="url(#clip720)" d="M137.033 1110.19 L155.39 1110.19 L155.39 1114.13 L141.316 1114.13 L141.316 1122.6 Q142.334 1122.25 143.353 1122.09 Q144.371 1121.9 145.39 1121.9 Q151.177 1121.9 154.556 1125.08 Q157.936 1128.25 157.936 1133.66 Q157.936 1139.24 154.464 1142.34 Q150.992 1145.42 144.672 1145.42 Q142.496 1145.42 140.228 1145.05 Q137.982 1144.68 135.575 1143.94 L135.575 1139.24 Q137.658 1140.38 139.881 1140.93 Q142.103 1141.49 144.58 1141.49 Q148.584 1141.49 150.922 1139.38 Q153.26 1137.27 153.26 1133.66 Q153.26 1130.05 150.922 1127.95 Q148.584 1125.84 144.58 1125.84 Q142.705 1125.84 140.83 1126.26 Q138.978 1126.67 137.033 1127.55 L137.033 1110.19 Z" fill="#000000" fill-rule="nonzero" fill-opacity="1" /><path clip-path="url(#clip720)" d="M100.76 829.753 Q97.1493 829.753 95.3206 833.318 Q93.515 836.859 93.515 843.989 Q93.515 851.096 95.3206 854.66 Q97.1493 858.202 100.76 858.202 Q104.395 858.202 106.2 854.66 Q108.029 851.096 108.029 843.989 Q108.029 836.859 106.2 833.318 Q104.395 829.753 100.76 829.753 M100.76 826.049 Q106.571 826.049 109.626 830.656 Q112.705 835.239 112.705 843.989 Q112.705 852.716 109.626 857.322 Q106.571 861.906 100.76 861.906 Q94.9502 861.906 91.8715 857.322 Q88.816 852.716 88.816 843.989 Q88.816 835.239 91.8715 830.656 Q94.9502 826.049 100.76 826.049 Z" fill="#000000" fill-rule="nonzero" fill-opacity="1" /><path clip-path="url(#clip720)" d="M120.922 855.355 L125.807 855.355 L125.807 861.234 L120.922 861.234 L120.922 855.355 Z" fill="#000000" fill-rule="nonzero" fill-opacity="1" /><path clip-path="url(#clip720)" d="M145.992 829.753 Q142.381 829.753 140.552 833.318 Q138.746 836.859 138.746 843.989 Q138.746 851.096 140.552 854.66 Q142.381 858.202 145.992 858.202 Q149.626 858.202 151.431 854.66 Q153.26 851.096 153.26 843.989 Q153.26 836.859 151.431 833.318 Q149.626 829.753 145.992 829.753 M145.992 826.049 Q151.802 826.049 154.857 830.656 Q157.936 835.239 157.936 843.989 Q157.936 852.716 154.857 857.322 Q151.802 861.906 145.992 861.906 Q140.181 861.906 137.103 857.322 Q134.047 852.716 134.047 843.989 Q134.047 835.239 137.103 830.656 Q140.181 826.049 145.992 826.049 Z" fill="#000000" fill-rule="nonzero" fill-opacity="1" /><path clip-path="url(#clip720)" d="M101.756 546.236 Q98.1447 546.236 96.316 549.801 Q94.5104 553.342 94.5104 560.472 Q94.5104 567.578 96.316 571.143 Q98.1447 574.685 101.756 574.685 Q105.39 574.685 107.196 571.143 Q109.024 567.578 109.024 560.472 Q109.024 553.342 107.196 549.801 Q105.39 546.236 101.756 546.236 M101.756 542.532 Q107.566 542.532 110.621 547.139 Q113.7 551.722 113.7 560.472 Q113.7 569.199 110.621 573.805 Q107.566 578.388 101.756 578.388 Q95.9456 578.388 92.8669 573.805 Q89.8114 569.199 89.8114 560.472 Q89.8114 551.722 92.8669 547.139 Q95.9456 542.532 101.756 542.532 Z" fill="#000000" fill-rule="nonzero" fill-opacity="1" /><path clip-path="url(#clip720)" d="M121.918 571.838 L126.802 571.838 L126.802 577.717 L121.918 577.717 L121.918 571.838 Z" fill="#000000" fill-rule="nonzero" fill-opacity="1" /><path clip-path="url(#clip720)" d="M137.033 543.157 L155.39 543.157 L155.39 547.092 L141.316 547.092 L141.316 555.565 Q142.334 555.217 143.353 555.055 Q144.371 554.87 145.39 554.87 Q151.177 554.87 154.556 558.041 Q157.936 561.213 157.936 566.629 Q157.936 572.208 154.464 575.31 Q150.992 578.388 144.672 578.388 Q142.496 578.388 140.228 578.018 Q137.982 577.648 135.575 576.907 L135.575 572.208 Q137.658 573.342 139.881 573.898 Q142.103 574.453 144.58 574.453 Q148.584 574.453 150.922 572.347 Q153.26 570.24 153.26 566.629 Q153.26 563.018 150.922 560.912 Q148.584 558.805 144.58 558.805 Q142.705 558.805 140.83 559.222 Q138.978 559.639 137.033 560.518 L137.033 543.157 Z" fill="#000000" fill-rule="nonzero" fill-opacity="1" /><path clip-path="url(#clip720)" d="M91.5706 290.265 L99.2095 290.265 L99.2095 263.899 L90.8993 265.566 L90.8993 261.307 L99.1632 259.64 L103.839 259.64 L103.839 290.265 L111.478 290.265 L111.478 294.2 L91.5706 294.2 L91.5706 290.265 Z" fill="#000000" fill-rule="nonzero" fill-opacity="1" /><path clip-path="url(#clip720)" d="M120.922 288.32 L125.807 288.32 L125.807 294.2 L120.922 294.2 L120.922 288.32 Z" fill="#000000" fill-rule="nonzero" fill-opacity="1" /><path clip-path="url(#clip720)" d="M145.992 262.719 Q142.381 262.719 140.552 266.284 Q138.746 269.825 138.746 276.955 Q138.746 284.061 140.552 287.626 Q142.381 291.168 145.992 291.168 Q149.626 291.168 151.431 287.626 Q153.26 284.061 153.26 276.955 Q153.26 269.825 151.431 266.284 Q149.626 262.719 145.992 262.719 M145.992 259.015 Q151.802 259.015 154.857 263.621 Q157.936 268.205 157.936 276.955 Q157.936 285.682 154.857 290.288 Q151.802 294.871 145.992 294.871 Q140.181 294.871 137.103 290.288 Q134.047 285.682 134.047 276.955 Q134.047 268.205 137.103 263.621 Q140.181 259.015 145.992 259.015 Z" fill="#000000" fill-rule="nonzero" fill-opacity="1" /><polyline clip-path="url(#clip722)" style="stroke:#0000ff; stroke-linecap:round; stroke-linejoin:round; stroke-width:4; stroke-opacity:1; fill:none" points="209.824,276.92 215.173,278.062 220.523,281.482 225.872,287.167 231.222,295.094 236.571,305.231 241.921,317.538 247.27,331.964 252.62,348.452 257.969,366.935 263.319,387.338 268.668,409.581 274.018,433.572 279.367,459.216 284.717,486.409 290.066,515.042 295.416,544.999 300.765,576.16 306.114,608.4 311.464,641.588 316.813,675.59 322.163,710.271 327.512,745.49 332.862,781.105 338.211,816.974 343.561,852.951 348.91,888.892 354.26,924.652 359.609,960.087 364.959,995.054 370.308,1029.41 375.658,1063.03 381.007,1095.76 386.357,1127.47 391.706,1158.05 397.056,1187.36 402.405,1215.28 407.755,1241.71 413.104,1266.54 418.453,1289.67 423.803,1311.01 429.152,1330.46 434.502,1347.95 439.851,1363.42 445.201,1376.79 450.55,1388.02 455.9,1397.06 461.249,1403.87 466.599,1408.42 471.948,1410.7 477.298,1410.7 482.647,1408.42 487.997,1403.87 493.346,1397.06 498.696,1388.02 504.045,1376.79 509.395,1363.42 514.744,1347.95 520.093,1330.46 525.443,1311.01 530.792,1289.67 536.142,1266.54 541.491,1241.71 546.841,1215.28 552.19,1187.36 557.54,1158.05 562.889,1127.47 568.239,1095.76 573.588,1063.03 578.938,1029.41 584.287,995.054 589.637,960.087 594.986,924.652 600.336,888.892 605.685,852.951 611.035,816.974 616.384,781.105 621.734,745.49 627.083,710.271 632.432,675.59 637.782,641.588 643.131,608.4 648.481,576.16 653.83,544.999 659.18,515.042 664.529,486.409 669.879,459.216 675.228,433.572 680.578,409.581 685.927,387.338 691.277,366.935 696.626,348.452 701.976,331.964 707.325,317.538 712.675,305.231 718.024,295.094 723.374,287.167 728.723,281.482 734.072,278.062 739.422,276.92 "/>
<polyline clip-path="url(#clip722)" style="stroke:#ff0000; stroke-linecap:round; stroke-linejoin:round; stroke-width:4; stroke-opacity:1; fill:none" stroke-dasharray="16, 10" points="209.824,228.951 215.173,251.886 220.523,274.368 225.872,296.46 231.222,318.229 236.571,339.74 241.921,361.058 247.27,382.249 252.62,403.377 257.969,424.509 263.319,445.709 268.668,467.044 274.018,488.577 279.367,510.376 284.717,532.504 290.066,555.029 295.416,578.014 300.765,601.525 306.114,625.628 311.464,650.388 316.813,675.87 322.163,702.14 327.512,729.264 332.862,757.305 338.211,786.331 343.561,816.405 348.91,847.516 354.26,879.501 359.609,912.183 364.959,945.383 370.308,978.921 375.658,1012.62 381.007,1046.3 386.357,1079.78 391.706,1112.89 397.056,1145.44 402.405,1177.26 407.755,1208.17 413.104,1237.99 418.453,1266.54 423.803,1293.64 429.152,1319.11 434.502,1342.78 439.851,1364.47 445.201,1383.99 450.55,1401.17 455.9,1415.83 461.249,1427.8 466.599,1436.88 471.948,1442.91 477.298,1445.72 482.647,1445.28 487.997,1441.74 493.346,1435.25 498.696,1425.96 504.045,1414.02 509.395,1399.58 514.744,1382.78 520.093,1363.79 525.443,1342.74 530.792,1319.79 536.142,1295.08 541.491,1268.77 546.841,1241 552.19,1211.93 557.54,1181.71 562.889,1150.48 568.239,1118.39 573.588,1085.59 578.938,1052.24 584.287,1018.47 589.637,984.454 594.986,950.324 600.336,916.235 605.685,882.336 611.035,848.764 616.384,815.548 621.734,782.661 627.083,750.078 632.432,717.77 637.782,685.711 643.131,653.873 648.481,622.231 653.83,590.756 659.18,559.422 664.529,528.202 669.879,497.069 675.228,465.996 680.578,434.956 685.927,403.922 691.277,372.867 696.626,341.764 701.976,310.586 707.325,279.306 712.675,247.897 718.024,216.333 723.374,184.585 728.723,152.628 734.072,120.434 739.422,87.9763 "/>
<path clip-path="url(#clip720)" d="M408.864 1438.47 L736.597 1438.47 L736.597 1282.95 L408.864 1282.95  Z" fill="#ffffff" fill-rule="evenodd" fill-opacity="1"/>
<polyline clip-path="url(#clip720)" style="stroke:#000000; stroke-linecap:round; stroke-linejoin:round; stroke-width:4; stroke-opacity:1; fill:none" points="408.864,1438.47 736.597,1438.47 736.597,1282.95 408.864,1282.95 408.864,1438.47 "/>
<polyline clip-path="url(#clip720)" style="stroke:#0000ff; stroke-linecap:round; stroke-linejoin:round; stroke-width:4; stroke-opacity:1; fill:none" points="415.102,1334.79 452.527,1334.79 "/>
<path clip-path="url(#clip720)" d="M466.38 1330.22 L472.051 1346.24 L480.153 1326.15 L484.667 1326.15 L474.181 1352.07 L474.181 1361.94 L469.922 1361.94 L469.922 1352.07 L463.116 1332.72 Q462.098 1329.81 459.898 1329.81 L458.764 1329.81 L458.764 1326.15 L460.385 1326.15 Q464.945 1326.15 466.38 1330.22 Z" fill="#000000" fill-rule="nonzero" fill-opacity="1" /><path clip-path="url(#clip720)" d="M510.245 1359.94 L510.245 1363.25 L485.616 1363.25 L485.616 1359.94 L510.245 1359.94 Z" fill="#000000" fill-rule="nonzero" fill-opacity="1" /><path clip-path="url(#clip720)" d="M534.435 1331.13 Q536.032 1328.26 538.255 1326.89 Q540.477 1325.52 543.486 1325.52 Q547.537 1325.52 549.736 1328.37 Q551.935 1331.19 551.935 1336.43 L551.935 1352.07 L547.653 1352.07 L547.653 1336.57 Q547.653 1332.84 546.333 1331.03 Q545.014 1329.23 542.305 1329.23 Q538.995 1329.23 537.074 1331.43 Q535.153 1333.63 535.153 1337.42 L535.153 1352.07 L530.87 1352.07 L530.87 1336.57 Q530.87 1332.82 529.551 1331.03 Q528.231 1329.23 525.477 1329.23 Q522.213 1329.23 520.292 1331.45 Q518.37 1333.65 518.37 1337.42 L518.37 1352.07 L514.088 1352.07 L514.088 1326.15 L518.37 1326.15 L518.37 1330.18 Q519.829 1327.79 521.866 1326.66 Q523.903 1325.52 526.704 1325.52 Q529.528 1325.52 531.495 1326.96 Q533.486 1328.39 534.435 1331.13 Z" fill="#000000" fill-rule="nonzero" fill-opacity="1" /><path clip-path="url(#clip720)" d="M572.213 1339.04 Q567.051 1339.04 565.06 1340.22 Q563.069 1341.4 563.069 1344.25 Q563.069 1346.52 564.551 1347.86 Q566.055 1349.18 568.625 1349.18 Q572.166 1349.18 574.296 1346.68 Q576.449 1344.16 576.449 1339.99 L576.449 1339.04 L572.213 1339.04 M580.708 1337.28 L580.708 1352.07 L576.449 1352.07 L576.449 1348.14 Q574.99 1350.5 572.815 1351.63 Q570.639 1352.75 567.49 1352.75 Q563.509 1352.75 561.148 1350.52 Q558.81 1348.28 558.81 1344.53 Q558.81 1340.15 561.727 1337.93 Q564.666 1335.71 570.477 1335.71 L576.449 1335.71 L576.449 1335.29 Q576.449 1332.35 574.504 1330.76 Q572.583 1329.13 569.088 1329.13 Q566.865 1329.13 564.759 1329.67 Q562.653 1330.2 560.708 1331.26 L560.708 1327.33 Q563.046 1326.43 565.245 1325.99 Q567.444 1325.52 569.527 1325.52 Q575.152 1325.52 577.93 1328.44 Q580.708 1331.36 580.708 1337.28 Z" fill="#000000" fill-rule="nonzero" fill-opacity="1" /><path clip-path="url(#clip720)" d="M593.694 1318.79 L593.694 1326.15 L602.467 1326.15 L602.467 1329.46 L593.694 1329.46 L593.694 1343.53 Q593.694 1346.7 594.55 1347.61 Q595.43 1348.51 598.092 1348.51 L602.467 1348.51 L602.467 1352.07 L598.092 1352.07 Q593.162 1352.07 591.287 1350.25 Q589.412 1348.39 589.412 1343.53 L589.412 1329.46 L586.287 1329.46 L586.287 1326.15 L589.412 1326.15 L589.412 1318.79 L593.694 1318.79 Z" fill="#000000" fill-rule="nonzero" fill-opacity="1" /><path clip-path="url(#clip720)" d="M623.092 1330.13 Q622.374 1329.71 621.518 1329.53 Q620.685 1329.32 619.666 1329.32 Q616.055 1329.32 614.111 1331.68 Q612.189 1334.02 612.189 1338.42 L612.189 1352.07 L607.907 1352.07 L607.907 1326.15 L612.189 1326.15 L612.189 1330.18 Q613.532 1327.82 615.685 1326.68 Q617.837 1325.52 620.916 1325.52 Q621.356 1325.52 621.888 1325.59 Q622.421 1325.64 623.069 1325.76 L623.092 1330.13 Z" fill="#000000" fill-rule="nonzero" fill-opacity="1" /><path clip-path="url(#clip720)" d="M627.56 1326.15 L631.819 1326.15 L631.819 1352.07 L627.56 1352.07 L627.56 1326.15 M627.56 1316.06 L631.819 1316.06 L631.819 1321.45 L627.56 1321.45 L627.56 1316.06 Z" fill="#000000" fill-rule="nonzero" fill-opacity="1" /><path clip-path="url(#clip720)" d="M662.282 1326.15 L652.907 1338.76 L662.768 1352.07 L657.745 1352.07 L650.198 1341.89 L642.652 1352.07 L637.629 1352.07 L647.698 1338.51 L638.485 1326.15 L643.509 1326.15 L650.384 1335.38 L657.258 1326.15 L662.282 1326.15 Z" fill="#000000" fill-rule="nonzero" fill-opacity="1" /><polyline clip-path="url(#clip720)" style="stroke:#ff0000; stroke-linecap:round; stroke-linejoin:round; stroke-width:4; stroke-opacity:1; fill:none" stroke-dasharray="16, 10" points="415.102,1386.63 452.527,1386.63 "/>
<path clip-path="url(#clip720)" d="M466.38 1382.06 L472.051 1398.08 L480.153 1377.99 L484.667 1377.99 L474.181 1403.91 L474.181 1413.78 L469.922 1413.78 L469.922 1403.91 L463.116 1384.56 Q462.098 1381.65 459.898 1381.65 L458.764 1381.65 L458.764 1377.99 L460.385 1377.99 Q464.945 1377.99 466.38 1382.06 Z" fill="#000000" fill-rule="nonzero" fill-opacity="1" /><path clip-path="url(#clip720)" d="M510.245 1411.78 L510.245 1415.09 L485.616 1415.09 L485.616 1411.78 L510.245 1411.78 Z" fill="#000000" fill-rule="nonzero" fill-opacity="1" /><path clip-path="url(#clip720)" d="M518.37 1400.03 L518.37 1413.78 L514.088 1413.78 L514.088 1377.99 L518.37 1377.99 L518.37 1381.92 Q519.713 1379.61 521.75 1378.5 Q523.81 1377.36 526.657 1377.36 Q531.38 1377.36 534.319 1381.11 Q537.282 1384.86 537.282 1390.97 Q537.282 1397.09 534.319 1400.84 Q531.38 1404.59 526.657 1404.59 Q523.81 1404.59 521.75 1403.47 Q519.713 1402.34 518.37 1400.03 M532.861 1390.97 Q532.861 1386.28 530.917 1383.61 Q528.995 1380.93 525.616 1380.93 Q522.236 1380.93 520.292 1383.61 Q518.37 1386.28 518.37 1390.97 Q518.37 1395.67 520.292 1398.36 Q522.236 1401.02 525.616 1401.02 Q528.995 1401.02 530.917 1398.36 Q532.861 1395.67 532.861 1390.97 Z" fill="#000000" fill-rule="nonzero" fill-opacity="1" /><path clip-path="url(#clip720)" d="M559.365 1381.97 Q558.648 1381.55 557.791 1381.37 Q556.958 1381.16 555.94 1381.16 Q552.328 1381.16 550.384 1383.52 Q548.463 1385.86 548.463 1390.26 L548.463 1403.91 L544.18 1403.91 L544.18 1377.99 L548.463 1377.99 L548.463 1382.02 Q549.805 1379.66 551.958 1378.52 Q554.111 1377.36 557.19 1377.36 Q557.629 1377.36 558.162 1377.43 Q558.694 1377.48 559.342 1377.6 L559.365 1381.97 Z" fill="#000000" fill-rule="nonzero" fill-opacity="1" /><path clip-path="url(#clip720)" d="M584.967 1389.89 L584.967 1391.97 L565.384 1391.97 Q565.662 1396.37 568.023 1398.68 Q570.407 1400.97 574.643 1400.97 Q577.097 1400.97 579.389 1400.37 Q581.703 1399.77 583.972 1398.57 L583.972 1402.59 Q581.68 1403.57 579.273 1404.08 Q576.865 1404.59 574.389 1404.59 Q568.185 1404.59 564.551 1400.97 Q560.94 1397.36 560.94 1391.21 Q560.94 1384.84 564.365 1381.11 Q567.815 1377.36 573.648 1377.36 Q578.879 1377.36 581.912 1380.74 Q584.967 1384.1 584.967 1389.89 M580.708 1388.64 Q580.662 1385.14 578.74 1383.06 Q576.842 1380.97 573.694 1380.97 Q570.129 1380.97 567.977 1382.99 Q565.847 1385 565.523 1388.66 L580.708 1388.64 Z" fill="#000000" fill-rule="nonzero" fill-opacity="1" /><path clip-path="url(#clip720)" d="M609.018 1381.92 L609.018 1367.9 L613.277 1367.9 L613.277 1403.91 L609.018 1403.91 L609.018 1400.03 Q607.675 1402.34 605.615 1403.47 Q603.578 1404.59 600.708 1404.59 Q596.009 1404.59 593.046 1400.84 Q590.106 1397.09 590.106 1390.97 Q590.106 1384.86 593.046 1381.11 Q596.009 1377.36 600.708 1377.36 Q603.578 1377.36 605.615 1378.5 Q607.675 1379.61 609.018 1381.92 M594.504 1390.97 Q594.504 1395.67 596.425 1398.36 Q598.37 1401.02 601.75 1401.02 Q605.129 1401.02 607.074 1398.36 Q609.018 1395.67 609.018 1390.97 Q609.018 1386.28 607.074 1383.61 Q605.129 1380.93 601.75 1380.93 Q598.37 1380.93 596.425 1383.61 Q594.504 1386.28 594.504 1390.97 Z" fill="#000000" fill-rule="nonzero" fill-opacity="1" /><path clip-path="url(#clip720)" d="M622.05 1377.99 L626.31 1377.99 L626.31 1403.91 L622.05 1403.91 L622.05 1377.99 M622.05 1367.9 L626.31 1367.9 L626.31 1373.29 L622.05 1373.29 L622.05 1367.9 Z" fill="#000000" fill-rule="nonzero" fill-opacity="1" /><path clip-path="url(#clip720)" d="M653.879 1378.98 L653.879 1382.97 Q652.073 1381.97 650.245 1381.48 Q648.439 1380.97 646.587 1380.97 Q642.444 1380.97 640.152 1383.61 Q637.86 1386.23 637.86 1390.97 Q637.86 1395.72 640.152 1398.36 Q642.444 1400.97 646.587 1400.97 Q648.439 1400.97 650.245 1400.49 Q652.073 1399.98 653.879 1398.98 L653.879 1402.92 Q652.096 1403.75 650.175 1404.17 Q648.277 1404.59 646.124 1404.59 Q640.268 1404.59 636.819 1400.91 Q633.37 1397.22 633.37 1390.97 Q633.37 1384.63 636.842 1381 Q640.337 1377.36 646.402 1377.36 Q648.37 1377.36 650.245 1377.78 Q652.12 1378.17 653.879 1378.98 Z" fill="#000000" fill-rule="nonzero" fill-opacity="1" /><path clip-path="url(#clip720)" d="M665.499 1370.63 L665.499 1377.99 L674.272 1377.99 L674.272 1381.3 L665.499 1381.3 L665.499 1395.37 Q665.499 1398.54 666.356 1399.45 Q667.235 1400.35 669.897 1400.35 L674.272 1400.35 L674.272 1403.91 L669.897 1403.91 Q664.967 1403.91 663.092 1402.09 Q661.217 1400.23 661.217 1395.37 L661.217 1381.3 L658.092 1381.3 L658.092 1377.99 L661.217 1377.99 L661.217 1370.63 L665.499 1370.63 Z" fill="#000000" fill-rule="nonzero" fill-opacity="1" /><path clip-path="url(#clip720)" d="M702.05 1389.89 L702.05 1391.97 L682.467 1391.97 Q682.744 1396.37 685.106 1398.68 Q687.49 1400.97 691.726 1400.97 Q694.18 1400.97 696.471 1400.37 Q698.786 1399.77 701.055 1398.57 L701.055 1402.59 Q698.763 1403.57 696.356 1404.08 Q693.948 1404.59 691.471 1404.59 Q685.268 1404.59 681.633 1400.97 Q678.022 1397.36 678.022 1391.21 Q678.022 1384.84 681.448 1381.11 Q684.897 1377.36 690.731 1377.36 Q695.962 1377.36 698.994 1380.74 Q702.05 1384.1 702.05 1389.89 M697.791 1388.64 Q697.744 1385.14 695.823 1383.06 Q693.925 1380.97 690.777 1380.97 Q687.212 1380.97 685.059 1382.99 Q682.93 1385 682.606 1388.66 L697.791 1388.64 Z" fill="#000000" fill-rule="nonzero" fill-opacity="1" /><path clip-path="url(#clip720)" d="M726.101 1381.92 L726.101 1367.9 L730.36 1367.9 L730.36 1403.91 L726.101 1403.91 L726.101 1400.03 Q724.758 1402.34 722.698 1403.47 Q720.661 1404.59 717.791 1404.59 Q713.092 1404.59 710.129 1400.84 Q707.189 1397.09 707.189 1390.97 Q707.189 1384.86 710.129 1381.11 Q713.092 1377.36 717.791 1377.36 Q720.661 1377.36 722.698 1378.5 Q724.758 1379.61 726.101 1381.92 M711.587 1390.97 Q711.587 1395.67 713.508 1398.36 Q715.453 1401.02 718.832 1401.02 Q722.212 1401.02 724.156 1398.36 Q726.101 1395.67 726.101 1390.97 Q726.101 1386.28 724.156 1383.61 Q722.212 1380.93 718.832 1380.93 Q715.453 1380.93 713.508 1383.61 Q711.587 1386.28 711.587 1390.97 Z" fill="#000000" fill-rule="nonzero" fill-opacity="1" /><path clip-path="url(#clip720)" d="M996.49 1486.45 L1557.86 1486.45 L1557.86 47.2441 L996.49 47.2441  Z" fill="#ffffff" fill-rule="evenodd" fill-opacity="1"/>
<defs>
  <clipPath id="clip723">
    <rect x="996" y="47" width="562" height="1440"/>
  </clipPath>
</defs>
<polyline clip-path="url(#clip723)" style="stroke:#000000; stroke-linecap:round; stroke-linejoin:round; stroke-width:2; stroke-opacity:0.1; fill:none" points="1012.38,1486.45 1012.38,47.2441 "/>
<polyline clip-path="url(#clip723)" style="stroke:#000000; stroke-linecap:round; stroke-linejoin:round; stroke-width:2; stroke-opacity:0.1; fill:none" points="1096.67,1486.45 1096.67,47.2441 "/>
<polyline clip-path="url(#clip723)" style="stroke:#000000; stroke-linecap:round; stroke-linejoin:round; stroke-width:2; stroke-opacity:0.1; fill:none" points="1180.95,1486.45 1180.95,47.2441 "/>
<polyline clip-path="url(#clip723)" style="stroke:#000000; stroke-linecap:round; stroke-linejoin:round; stroke-width:2; stroke-opacity:0.1; fill:none" points="1265.24,1486.45 1265.24,47.2441 "/>
<polyline clip-path="url(#clip723)" style="stroke:#000000; stroke-linecap:round; stroke-linejoin:round; stroke-width:2; stroke-opacity:0.1; fill:none" points="1349.53,1486.45 1349.53,47.2441 "/>
<polyline clip-path="url(#clip723)" style="stroke:#000000; stroke-linecap:round; stroke-linejoin:round; stroke-width:2; stroke-opacity:0.1; fill:none" points="1433.82,1486.45 1433.82,47.2441 "/>
<polyline clip-path="url(#clip723)" style="stroke:#000000; stroke-linecap:round; stroke-linejoin:round; stroke-width:2; stroke-opacity:0.1; fill:none" points="1518.11,1486.45 1518.11,47.2441 "/>
<polyline clip-path="url(#clip720)" style="stroke:#000000; stroke-linecap:round; stroke-linejoin:round; stroke-width:4; stroke-opacity:1; fill:none" points="996.49,1486.45 1557.86,1486.45 "/>
<polyline clip-path="url(#clip720)" style="stroke:#000000; stroke-linecap:round; stroke-linejoin:round; stroke-width:4; stroke-opacity:1; fill:none" points="1012.38,1486.45 1012.38,1467.55 "/>
<polyline clip-path="url(#clip720)" style="stroke:#000000; stroke-linecap:round; stroke-linejoin:round; stroke-width:4; stroke-opacity:1; fill:none" points="1096.67,1486.45 1096.67,1467.55 "/>
<polyline clip-path="url(#clip720)" style="stroke:#000000; stroke-linecap:round; stroke-linejoin:round; stroke-width:4; stroke-opacity:1; fill:none" points="1180.95,1486.45 1180.95,1467.55 "/>
<polyline clip-path="url(#clip720)" style="stroke:#000000; stroke-linecap:round; stroke-linejoin:round; stroke-width:4; stroke-opacity:1; fill:none" points="1265.24,1486.45 1265.24,1467.55 "/>
<polyline clip-path="url(#clip720)" style="stroke:#000000; stroke-linecap:round; stroke-linejoin:round; stroke-width:4; stroke-opacity:1; fill:none" points="1349.53,1486.45 1349.53,1467.55 "/>
<polyline clip-path="url(#clip720)" style="stroke:#000000; stroke-linecap:round; stroke-linejoin:round; stroke-width:4; stroke-opacity:1; fill:none" points="1433.82,1486.45 1433.82,1467.55 "/>
<polyline clip-path="url(#clip720)" style="stroke:#000000; stroke-linecap:round; stroke-linejoin:round; stroke-width:4; stroke-opacity:1; fill:none" points="1518.11,1486.45 1518.11,1467.55 "/>
<path clip-path="url(#clip720)" d="M1012.38 1517.37 Q1008.77 1517.37 1006.94 1520.93 Q1005.13 1524.47 1005.13 1531.6 Q1005.13 1538.71 1006.94 1542.27 Q1008.77 1545.82 1012.38 1545.82 Q1016.01 1545.82 1017.82 1542.27 Q1019.65 1538.71 1019.65 1531.6 Q1019.65 1524.47 1017.82 1520.93 Q1016.01 1517.37 1012.38 1517.37 M1012.38 1513.66 Q1018.19 1513.66 1021.24 1518.27 Q1024.32 1522.85 1024.32 1531.6 Q1024.32 1540.33 1021.24 1544.94 Q1018.19 1549.52 1012.38 1549.52 Q1006.57 1549.52 1003.49 1544.94 Q1000.43 1540.33 1000.43 1531.6 Q1000.43 1522.85 1003.49 1518.27 Q1006.57 1513.66 1012.38 1513.66 Z" fill="#000000" fill-rule="nonzero" fill-opacity="1" /><path clip-path="url(#clip720)" d="M1087.05 1544.91 L1094.69 1544.91 L1094.69 1518.55 L1086.38 1520.21 L1086.38 1515.95 L1094.64 1514.29 L1099.32 1514.29 L1099.32 1544.91 L1106.96 1544.91 L1106.96 1548.85 L1087.05 1548.85 L1087.05 1544.91 Z" fill="#000000" fill-rule="nonzero" fill-opacity="1" /><path clip-path="url(#clip720)" d="M1175.61 1544.91 L1191.93 1544.91 L1191.93 1548.85 L1169.98 1548.85 L1169.98 1544.91 Q1172.64 1542.16 1177.23 1537.53 Q1181.83 1532.88 1183.01 1531.53 Q1185.26 1529.01 1186.14 1527.27 Q1187.04 1525.51 1187.04 1523.82 Q1187.04 1521.07 1185.1 1519.33 Q1183.18 1517.6 1180.07 1517.6 Q1177.88 1517.6 1175.42 1518.36 Q1172.99 1519.13 1170.21 1520.68 L1170.21 1515.95 Q1173.04 1514.82 1175.49 1514.24 Q1177.94 1513.66 1179.98 1513.66 Q1185.35 1513.66 1188.55 1516.35 Q1191.74 1519.03 1191.74 1523.52 Q1191.74 1525.65 1190.93 1527.57 Q1190.14 1529.47 1188.04 1532.07 Q1187.46 1532.74 1184.36 1535.95 Q1181.26 1539.15 1175.61 1544.91 Z" fill="#000000" fill-rule="nonzero" fill-opacity="1" /><path clip-path="url(#clip720)" d="M1269.49 1530.21 Q1272.85 1530.93 1274.72 1533.2 Q1276.62 1535.47 1276.62 1538.8 Q1276.62 1543.92 1273.1 1546.72 Q1269.58 1549.52 1263.1 1549.52 Q1260.93 1549.52 1258.61 1549.08 Q1256.32 1548.66 1253.87 1547.81 L1253.87 1543.29 Q1255.81 1544.43 1258.12 1545.01 Q1260.44 1545.58 1262.96 1545.58 Q1267.36 1545.58 1269.65 1543.85 Q1271.97 1542.11 1271.97 1538.8 Q1271.97 1535.75 1269.81 1534.03 Q1267.68 1532.3 1263.87 1532.3 L1259.84 1532.3 L1259.84 1528.45 L1264.05 1528.45 Q1267.5 1528.45 1269.33 1527.09 Q1271.16 1525.7 1271.16 1523.11 Q1271.16 1520.45 1269.26 1519.03 Q1267.38 1517.6 1263.87 1517.6 Q1261.94 1517.6 1259.74 1518.01 Q1257.55 1518.43 1254.91 1519.31 L1254.91 1515.14 Q1257.57 1514.4 1259.88 1514.03 Q1262.22 1513.66 1264.28 1513.66 Q1269.61 1513.66 1272.71 1516.09 Q1275.81 1518.5 1275.81 1522.62 Q1275.81 1525.49 1274.17 1527.48 Q1272.52 1529.45 1269.49 1530.21 Z" fill="#000000" fill-rule="nonzero" fill-opacity="1" /><path clip-path="url(#clip720)" d="M1352.54 1518.36 L1340.73 1536.81 L1352.54 1536.81 L1352.54 1518.36 M1351.31 1514.29 L1357.19 1514.29 L1357.19 1536.81 L1362.12 1536.81 L1362.12 1540.7 L1357.19 1540.7 L1357.19 1548.85 L1352.54 1548.85 L1352.54 1540.7 L1336.94 1540.7 L1336.94 1536.19 L1351.31 1514.29 Z" fill="#000000" fill-rule="nonzero" fill-opacity="1" /><path clip-path="url(#clip720)" d="M1424.1 1514.29 L1442.45 1514.29 L1442.45 1518.22 L1428.38 1518.22 L1428.38 1526.7 Q1429.4 1526.35 1430.42 1526.19 Q1431.43 1526 1432.45 1526 Q1438.24 1526 1441.62 1529.17 Q1445 1532.34 1445 1537.76 Q1445 1543.34 1441.53 1546.44 Q1438.05 1549.52 1431.74 1549.52 Q1429.56 1549.52 1427.29 1549.15 Q1425.05 1548.78 1422.64 1548.04 L1422.64 1543.34 Q1424.72 1544.47 1426.94 1545.03 Q1429.17 1545.58 1431.64 1545.58 Q1435.65 1545.58 1437.99 1543.48 Q1440.32 1541.37 1440.32 1537.76 Q1440.32 1534.15 1437.99 1532.04 Q1435.65 1529.94 1431.64 1529.94 Q1429.77 1529.94 1427.89 1530.35 Q1426.04 1530.77 1424.1 1531.65 L1424.1 1514.29 Z" fill="#000000" fill-rule="nonzero" fill-opacity="1" /><path clip-path="url(#clip720)" d="M1518.51 1529.7 Q1515.36 1529.7 1513.51 1531.86 Q1511.68 1534.01 1511.68 1537.76 Q1511.68 1541.49 1513.51 1543.66 Q1515.36 1545.82 1518.51 1545.82 Q1521.66 1545.82 1523.49 1543.66 Q1525.34 1541.49 1525.34 1537.76 Q1525.34 1534.01 1523.49 1531.86 Q1521.66 1529.7 1518.51 1529.7 M1527.79 1515.05 L1527.79 1519.31 Q1526.03 1518.48 1524.23 1518.04 Q1522.45 1517.6 1520.69 1517.6 Q1516.06 1517.6 1513.6 1520.72 Q1511.17 1523.85 1510.83 1530.17 Q1512.19 1528.15 1514.25 1527.09 Q1516.31 1526 1518.79 1526 Q1524 1526 1527.01 1529.17 Q1530.04 1532.32 1530.04 1537.76 Q1530.04 1543.08 1526.89 1546.3 Q1523.74 1549.52 1518.51 1549.52 Q1512.52 1549.52 1509.35 1544.94 Q1506.17 1540.33 1506.17 1531.6 Q1506.17 1523.41 1510.06 1518.55 Q1513.95 1513.66 1520.5 1513.66 Q1522.26 1513.66 1524.04 1514.01 Q1525.85 1514.36 1527.79 1515.05 Z" fill="#000000" fill-rule="nonzero" fill-opacity="1" /><polyline clip-path="url(#clip723)" style="stroke:#000000; stroke-linecap:round; stroke-linejoin:round; stroke-width:2; stroke-opacity:0.1; fill:none" points="996.49,1419.71 1557.86,1419.71 "/>
<polyline clip-path="url(#clip723)" style="stroke:#000000; stroke-linecap:round; stroke-linejoin:round; stroke-width:2; stroke-opacity:0.1; fill:none" points="996.49,1086.76 1557.86,1086.76 "/>
<polyline clip-path="url(#clip723)" style="stroke:#000000; stroke-linecap:round; stroke-linejoin:round; stroke-width:2; stroke-opacity:0.1; fill:none" points="996.49,753.803 1557.86,753.803 "/>
<polyline clip-path="url(#clip723)" style="stroke:#000000; stroke-linecap:round; stroke-linejoin:round; stroke-width:2; stroke-opacity:0.1; fill:none" points="996.49,420.848 1557.86,420.848 "/>
<polyline clip-path="url(#clip723)" style="stroke:#000000; stroke-linecap:round; stroke-linejoin:round; stroke-width:2; stroke-opacity:0.1; fill:none" points="996.49,87.8925 1557.86,87.8925 "/>
<polyline clip-path="url(#clip720)" style="stroke:#000000; stroke-linecap:round; stroke-linejoin:round; stroke-width:4; stroke-opacity:1; fill:none" points="996.49,1486.45 996.49,47.2441 "/>
<polyline clip-path="url(#clip720)" style="stroke:#000000; stroke-linecap:round; stroke-linejoin:round; stroke-width:4; stroke-opacity:1; fill:none" points="996.49,1419.71 1015.39,1419.71 "/>
<polyline clip-path="url(#clip720)" style="stroke:#000000; stroke-linecap:round; stroke-linejoin:round; stroke-width:4; stroke-opacity:1; fill:none" points="996.49,1086.76 1015.39,1086.76 "/>
<polyline clip-path="url(#clip720)" style="stroke:#000000; stroke-linecap:round; stroke-linejoin:round; stroke-width:4; stroke-opacity:1; fill:none" points="996.49,753.803 1015.39,753.803 "/>
<polyline clip-path="url(#clip720)" style="stroke:#000000; stroke-linecap:round; stroke-linejoin:round; stroke-width:4; stroke-opacity:1; fill:none" points="996.49,420.848 1015.39,420.848 "/>
<polyline clip-path="url(#clip720)" style="stroke:#000000; stroke-linecap:round; stroke-linejoin:round; stroke-width:4; stroke-opacity:1; fill:none" points="996.49,87.8925 1015.39,87.8925 "/>
<path clip-path="url(#clip720)" d="M853.546 1420.17 L883.222 1420.17 L883.222 1424.1 L853.546 1424.1 L853.546 1420.17 Z" fill="#000000" fill-rule="nonzero" fill-opacity="1" /><path clip-path="url(#clip720)" d="M894.125 1433.06 L901.763 1433.06 L901.763 1406.69 L893.453 1408.36 L893.453 1404.1 L901.717 1402.43 L906.393 1402.43 L906.393 1433.06 L914.032 1433.06 L914.032 1436.99 L894.125 1436.99 L894.125 1433.06 Z" fill="#000000" fill-rule="nonzero" fill-opacity="1" /><path clip-path="url(#clip720)" d="M923.476 1431.11 L928.361 1431.11 L928.361 1436.99 L923.476 1436.99 L923.476 1431.11 Z" fill="#000000" fill-rule="nonzero" fill-opacity="1" /><path clip-path="url(#clip720)" d="M948.546 1405.51 Q944.935 1405.51 943.106 1409.08 Q941.3 1412.62 941.3 1419.75 Q941.3 1426.85 943.106 1430.42 Q944.935 1433.96 948.546 1433.96 Q952.18 1433.96 953.985 1430.42 Q955.814 1426.85 955.814 1419.75 Q955.814 1412.62 953.985 1409.08 Q952.18 1405.51 948.546 1405.51 M948.546 1401.81 Q954.356 1401.81 957.411 1406.42 Q960.49 1411 960.49 1419.75 Q960.49 1428.48 957.411 1433.08 Q954.356 1437.67 948.546 1437.67 Q942.735 1437.67 939.657 1433.08 Q936.601 1428.48 936.601 1419.75 Q936.601 1411 939.657 1406.42 Q942.735 1401.81 948.546 1401.81 Z" fill="#000000" fill-rule="nonzero" fill-opacity="1" /><path clip-path="url(#clip720)" d="M854.541 1087.21 L884.217 1087.21 L884.217 1091.15 L854.541 1091.15 L854.541 1087.21 Z" fill="#000000" fill-rule="nonzero" fill-opacity="1" /><path clip-path="url(#clip720)" d="M904.31 1072.56 Q900.699 1072.56 898.87 1076.12 Q897.064 1079.66 897.064 1086.79 Q897.064 1093.9 898.87 1097.46 Q900.699 1101.01 904.31 1101.01 Q907.944 1101.01 909.75 1097.46 Q911.578 1093.9 911.578 1086.79 Q911.578 1079.66 909.75 1076.12 Q907.944 1072.56 904.31 1072.56 M904.31 1068.85 Q910.12 1068.85 913.175 1073.46 Q916.254 1078.04 916.254 1086.79 Q916.254 1095.52 913.175 1100.13 Q910.12 1104.71 904.31 1104.71 Q898.5 1104.71 895.421 1100.13 Q892.365 1095.52 892.365 1086.79 Q892.365 1078.04 895.421 1073.46 Q898.5 1068.85 904.31 1068.85 Z" fill="#000000" fill-rule="nonzero" fill-opacity="1" /><path clip-path="url(#clip720)" d="M924.472 1098.16 L929.356 1098.16 L929.356 1104.04 L924.472 1104.04 L924.472 1098.16 Z" fill="#000000" fill-rule="nonzero" fill-opacity="1" /><path clip-path="url(#clip720)" d="M939.587 1069.48 L957.944 1069.48 L957.944 1073.41 L943.87 1073.41 L943.87 1081.89 Q944.888 1081.54 945.907 1081.38 Q946.925 1081.19 947.944 1081.19 Q953.731 1081.19 957.11 1084.36 Q960.49 1087.53 960.49 1092.95 Q960.49 1098.53 957.018 1101.63 Q953.546 1104.71 947.226 1104.71 Q945.05 1104.71 942.782 1104.34 Q940.536 1103.97 938.129 1103.23 L938.129 1098.53 Q940.212 1099.66 942.435 1100.22 Q944.657 1100.77 947.134 1100.77 Q951.138 1100.77 953.476 1098.67 Q955.814 1096.56 955.814 1092.95 Q955.814 1089.34 953.476 1087.23 Q951.138 1085.13 947.134 1085.13 Q945.259 1085.13 943.384 1085.54 Q941.532 1085.96 939.587 1086.84 L939.587 1069.48 Z" fill="#000000" fill-rule="nonzero" fill-opacity="1" /><path clip-path="url(#clip720)" d="M903.314 739.602 Q899.703 739.602 897.875 743.167 Q896.069 746.708 896.069 753.838 Q896.069 760.944 897.875 764.509 Q899.703 768.051 903.314 768.051 Q906.949 768.051 908.754 764.509 Q910.583 760.944 910.583 753.838 Q910.583 746.708 908.754 743.167 Q906.949 739.602 903.314 739.602 M903.314 735.898 Q909.125 735.898 912.18 740.505 Q915.259 745.088 915.259 753.838 Q915.259 762.565 912.18 767.171 Q909.125 771.754 903.314 771.754 Q897.504 771.754 894.426 767.171 Q891.37 762.565 891.37 753.838 Q891.37 745.088 894.426 740.505 Q897.504 735.898 903.314 735.898 Z" fill="#000000" fill-rule="nonzero" fill-opacity="1" /><path clip-path="url(#clip720)" d="M923.476 765.204 L928.361 765.204 L928.361 771.083 L923.476 771.083 L923.476 765.204 Z" fill="#000000" fill-rule="nonzero" fill-opacity="1" /><path clip-path="url(#clip720)" d="M948.546 739.602 Q944.935 739.602 943.106 743.167 Q941.3 746.708 941.3 753.838 Q941.3 760.944 943.106 764.509 Q944.935 768.051 948.546 768.051 Q952.18 768.051 953.985 764.509 Q955.814 760.944 955.814 753.838 Q955.814 746.708 953.985 743.167 Q952.18 739.602 948.546 739.602 M948.546 735.898 Q954.356 735.898 957.411 740.505 Q960.49 745.088 960.49 753.838 Q960.49 762.565 957.411 767.171 Q954.356 771.754 948.546 771.754 Q942.735 771.754 939.657 767.171 Q936.601 762.565 936.601 753.838 Q936.601 745.088 939.657 740.505 Q942.735 735.898 948.546 735.898 Z" fill="#000000" fill-rule="nonzero" fill-opacity="1" /><path clip-path="url(#clip720)" d="M904.31 406.646 Q900.699 406.646 898.87 410.211 Q897.064 413.753 897.064 420.883 Q897.064 427.989 898.87 431.554 Q900.699 435.095 904.31 435.095 Q907.944 435.095 909.75 431.554 Q911.578 427.989 911.578 420.883 Q911.578 413.753 909.75 410.211 Q907.944 406.646 904.31 406.646 M904.31 402.943 Q910.12 402.943 913.175 407.549 Q916.254 412.133 916.254 420.883 Q916.254 429.609 913.175 434.216 Q910.12 438.799 904.31 438.799 Q898.5 438.799 895.421 434.216 Q892.365 429.609 892.365 420.883 Q892.365 412.133 895.421 407.549 Q898.5 402.943 904.31 402.943 Z" fill="#000000" fill-rule="nonzero" fill-opacity="1" /><path clip-path="url(#clip720)" d="M924.472 432.248 L929.356 432.248 L929.356 438.128 L924.472 438.128 L924.472 432.248 Z" fill="#000000" fill-rule="nonzero" fill-opacity="1" /><path clip-path="url(#clip720)" d="M939.587 403.568 L957.944 403.568 L957.944 407.503 L943.87 407.503 L943.87 415.975 Q944.888 415.628 945.907 415.466 Q946.925 415.281 947.944 415.281 Q953.731 415.281 957.11 418.452 Q960.49 421.623 960.49 427.04 Q960.49 432.619 957.018 435.72 Q953.546 438.799 947.226 438.799 Q945.05 438.799 942.782 438.429 Q940.536 438.058 938.129 437.318 L938.129 432.619 Q940.212 433.753 942.435 434.308 Q944.657 434.864 947.134 434.864 Q951.138 434.864 953.476 432.757 Q955.814 430.651 955.814 427.04 Q955.814 423.429 953.476 421.322 Q951.138 419.216 947.134 419.216 Q945.259 419.216 943.384 419.633 Q941.532 420.049 939.587 420.929 L939.587 403.568 Z" fill="#000000" fill-rule="nonzero" fill-opacity="1" /><path clip-path="url(#clip720)" d="M894.125 101.237 L901.763 101.237 L901.763 74.8717 L893.453 76.5384 L893.453 72.2791 L901.717 70.6125 L906.393 70.6125 L906.393 101.237 L914.032 101.237 L914.032 105.172 L894.125 105.172 L894.125 101.237 Z" fill="#000000" fill-rule="nonzero" fill-opacity="1" /><path clip-path="url(#clip720)" d="M923.476 99.2929 L928.361 99.2929 L928.361 105.172 L923.476 105.172 L923.476 99.2929 Z" fill="#000000" fill-rule="nonzero" fill-opacity="1" /><path clip-path="url(#clip720)" d="M948.546 73.6911 Q944.935 73.6911 943.106 77.2559 Q941.3 80.7976 941.3 87.9272 Q941.3 95.0336 943.106 98.5984 Q944.935 102.14 948.546 102.14 Q952.18 102.14 953.985 98.5984 Q955.814 95.0336 955.814 87.9272 Q955.814 80.7976 953.985 77.2559 Q952.18 73.6911 948.546 73.6911 M948.546 69.9875 Q954.356 69.9875 957.411 74.5939 Q960.49 79.1772 960.49 87.9272 Q960.49 96.654 957.411 101.26 Q954.356 105.844 948.546 105.844 Q942.735 105.844 939.657 101.26 Q936.601 96.654 936.601 87.9272 Q936.601 79.1772 939.657 74.5939 Q942.735 69.9875 948.546 69.9875 Z" fill="#000000" fill-rule="nonzero" fill-opacity="1" /><polyline clip-path="url(#clip723)" style="stroke:#0000ff; stroke-linecap:round; stroke-linejoin:round; stroke-width:4; stroke-opacity:1; fill:none" points="1012.38,753.803 1017.73,711.568 1023.08,669.504 1028.43,627.779 1033.78,586.561 1039.13,546.017 1044.47,506.309 1049.82,467.598 1055.17,430.04 1060.52,393.785 1065.87,358.979 1071.22,325.764 1076.57,294.272 1081.92,264.631 1087.27,236.959 1092.62,211.368 1097.97,187.962 1103.32,166.834 1108.67,148.069 1114.02,131.744 1119.37,117.924 1124.72,106.663 1130.07,98.0091 1135.42,91.9955 1140.77,88.6467 1146.11,87.9763 1151.46,89.9869 1156.81,94.6705 1162.16,102.008 1167.51,111.97 1172.86,124.517 1178.21,139.598 1183.56,157.151 1188.91,177.108 1194.26,199.386 1199.61,223.897 1204.96,250.541 1210.31,279.212 1215.66,309.795 1221.01,342.164 1226.36,376.192 1231.71,411.74 1237.06,448.665 1242.41,486.819 1247.75,526.048 1253.1,566.194 1258.45,607.096 1263.8,648.588 1269.15,690.504 1274.5,732.675 1279.85,774.931 1285.2,817.102 1290.55,859.018 1295.9,900.51 1301.25,941.412 1306.6,981.558 1311.95,1020.79 1317.3,1058.94 1322.65,1095.87 1328,1131.41 1333.35,1165.44 1338.7,1197.81 1344.05,1228.39 1349.39,1257.06 1354.74,1283.71 1360.09,1308.22 1365.44,1330.5 1370.79,1350.45 1376.14,1368.01 1381.49,1383.09 1386.84,1395.64 1392.19,1405.6 1397.54,1412.94 1402.89,1417.62 1408.24,1419.63 1413.59,1418.96 1418.94,1415.61 1424.29,1409.6 1429.64,1400.94 1434.99,1389.68 1440.34,1375.86 1445.69,1359.54 1451.03,1340.77 1456.38,1319.64 1461.73,1296.24 1467.08,1270.65 1472.43,1242.98 1477.78,1213.33 1483.13,1181.84 1488.48,1148.63 1493.83,1113.82 1499.18,1077.57 1504.53,1040.01 1509.88,1001.3 1515.23,961.59 1520.58,921.045 1525.93,879.828 1531.28,838.102 1536.63,796.038 1541.98,753.803 "/>
<polyline clip-path="url(#clip723)" style="stroke:#ff0000; stroke-linecap:round; stroke-linejoin:round; stroke-width:4; stroke-opacity:1; fill:none" stroke-dasharray="16, 10" points="1012.38,356.507 1017.73,383.397 1023.08,403.689 1028.43,417.848 1033.78,426.335 1039.13,429.614 1044.47,428.149 1049.82,422.402 1055.17,412.838 1060.52,399.919 1065.87,384.109 1071.22,365.871 1076.57,345.668 1081.92,323.965 1087.27,301.223 1092.62,277.906 1097.97,254.479 1103.32,231.403 1108.67,209.142 1114.02,188.16 1119.37,168.92 1124.72,151.885 1130.07,137.519 1135.42,126.285 1140.77,118.646 1146.11,115.063 1151.46,115.778 1156.81,120.6 1162.16,129.293 1167.51,141.617 1172.86,157.334 1178.21,176.206 1183.56,197.995 1188.91,222.462 1194.26,249.369 1199.61,278.477 1204.96,309.55 1210.31,342.347 1215.66,376.631 1221.01,412.163 1226.36,448.706 1231.71,486.021 1237.06,523.869 1242.41,562.013 1247.75,600.213 1253.1,638.233 1258.45,675.833 1263.8,712.775 1269.15,748.82 1274.5,783.731 1279.85,817.276 1285.2,849.37 1290.55,880.076 1295.9,909.462 1301.25,937.597 1306.6,964.551 1311.95,990.393 1317.3,1015.19 1322.65,1039.02 1328,1061.93 1333.35,1084.02 1338.7,1105.33 1344.05,1125.95 1349.39,1145.93 1354.74,1165.36 1360.09,1184.29 1365.44,1202.81 1370.79,1220.97 1376.14,1238.84 1381.49,1256.5 1386.84,1274.01 1392.19,1291.45 1397.54,1308.88 1402.89,1326.36 1408.24,1343.98 1413.59,1361.75 1418.94,1379.28 1424.29,1395.97 1429.64,1411.22 1434.99,1424.42 1440.34,1434.97 1445.69,1442.27 1451.03,1445.72 1456.38,1444.7 1461.73,1438.62 1467.08,1426.88 1472.43,1408.87 1477.78,1383.98 1483.13,1351.62 1488.48,1311.19 1493.83,1262.07 1499.18,1203.66 1504.53,1135.37 1509.88,1056.59 1515.23,966.71 1520.58,865.135 1525.93,751.258 1531.28,624.478 1536.63,484.19 1541.98,329.792 "/>
<path clip-path="url(#clip720)" d="M1015.2 1438.47 L1342.94 1438.47 L1342.94 1282.95 L1015.2 1282.95  Z" fill="#ffffff" fill-rule="evenodd" fill-opacity="1"/>
<polyline clip-path="url(#clip720)" style="stroke:#000000; stroke-linecap:round; stroke-linejoin:round; stroke-width:4; stroke-opacity:1; fill:none" points="1015.2,1438.47 1342.94,1438.47 1342.94,1282.95 1015.2,1282.95 1015.2,1438.47 "/>
<polyline clip-path="url(#clip720)" style="stroke:#0000ff; stroke-linecap:round; stroke-linejoin:round; stroke-width:4; stroke-opacity:1; fill:none" points="1021.44,1334.79 1058.86,1334.79 "/>
<path clip-path="url(#clip720)" d="M1072.72 1330.22 L1078.39 1346.24 L1086.49 1326.15 L1091.01 1326.15 L1080.52 1352.07 L1080.52 1361.94 L1076.26 1361.94 L1076.26 1352.07 L1069.45 1332.72 Q1068.44 1329.81 1066.24 1329.81 L1065.1 1329.81 L1065.1 1326.15 L1066.72 1326.15 Q1071.28 1326.15 1072.72 1330.22 Z" fill="#000000" fill-rule="nonzero" fill-opacity="1" /><path clip-path="url(#clip720)" d="M1116.58 1359.94 L1116.58 1363.25 L1091.95 1363.25 L1091.95 1359.94 L1116.58 1359.94 Z" fill="#000000" fill-rule="nonzero" fill-opacity="1" /><path clip-path="url(#clip720)" d="M1140.77 1331.13 Q1142.37 1328.26 1144.59 1326.89 Q1146.81 1325.52 1149.82 1325.52 Q1153.88 1325.52 1156.07 1328.37 Q1158.27 1331.19 1158.27 1336.43 L1158.27 1352.07 L1153.99 1352.07 L1153.99 1336.57 Q1153.99 1332.84 1152.67 1331.03 Q1151.35 1329.23 1148.64 1329.23 Q1145.33 1329.23 1143.41 1331.43 Q1141.49 1333.63 1141.49 1337.42 L1141.49 1352.07 L1137.21 1352.07 L1137.21 1336.57 Q1137.21 1332.82 1135.89 1331.03 Q1134.57 1329.23 1131.81 1329.23 Q1128.55 1329.23 1126.63 1331.45 Q1124.71 1333.65 1124.71 1337.42 L1124.71 1352.07 L1120.43 1352.07 L1120.43 1326.15 L1124.71 1326.15 L1124.71 1330.18 Q1126.17 1327.79 1128.2 1326.66 Q1130.24 1325.52 1133.04 1325.52 Q1135.87 1325.52 1137.83 1326.96 Q1139.82 1328.39 1140.77 1331.13 Z" fill="#000000" fill-rule="nonzero" fill-opacity="1" /><path clip-path="url(#clip720)" d="M1178.55 1339.04 Q1173.39 1339.04 1171.4 1340.22 Q1169.41 1341.4 1169.41 1344.25 Q1169.41 1346.52 1170.89 1347.86 Q1172.39 1349.18 1174.96 1349.18 Q1178.5 1349.18 1180.63 1346.68 Q1182.79 1344.16 1182.79 1339.99 L1182.79 1339.04 L1178.55 1339.04 M1187.05 1337.28 L1187.05 1352.07 L1182.79 1352.07 L1182.79 1348.14 Q1181.33 1350.5 1179.15 1351.63 Q1176.98 1352.75 1173.83 1352.75 Q1169.85 1352.75 1167.49 1350.52 Q1165.15 1348.28 1165.15 1344.53 Q1165.15 1340.15 1168.06 1337.93 Q1171 1335.71 1176.81 1335.71 L1182.79 1335.71 L1182.79 1335.29 Q1182.79 1332.35 1180.84 1330.76 Q1178.92 1329.13 1175.43 1329.13 Q1173.2 1329.13 1171.1 1329.67 Q1168.99 1330.2 1167.05 1331.26 L1167.05 1327.33 Q1169.38 1326.43 1171.58 1325.99 Q1173.78 1325.52 1175.87 1325.52 Q1181.49 1325.52 1184.27 1328.44 Q1187.05 1331.36 1187.05 1337.28 Z" fill="#000000" fill-rule="nonzero" fill-opacity="1" /><path clip-path="url(#clip720)" d="M1200.03 1318.79 L1200.03 1326.15 L1208.81 1326.15 L1208.81 1329.46 L1200.03 1329.46 L1200.03 1343.53 Q1200.03 1346.7 1200.89 1347.61 Q1201.77 1348.51 1204.43 1348.51 L1208.81 1348.51 L1208.81 1352.07 L1204.43 1352.07 Q1199.5 1352.07 1197.62 1350.25 Q1195.75 1348.39 1195.75 1343.53 L1195.75 1329.46 L1192.62 1329.46 L1192.62 1326.15 L1195.75 1326.15 L1195.75 1318.79 L1200.03 1318.79 Z" fill="#000000" fill-rule="nonzero" fill-opacity="1" /><path clip-path="url(#clip720)" d="M1229.43 1330.13 Q1228.71 1329.71 1227.86 1329.53 Q1227.02 1329.32 1226 1329.32 Q1222.39 1329.32 1220.45 1331.68 Q1218.53 1334.02 1218.53 1338.42 L1218.53 1352.07 L1214.25 1352.07 L1214.25 1326.15 L1218.53 1326.15 L1218.53 1330.18 Q1219.87 1327.82 1222.02 1326.68 Q1224.18 1325.52 1227.25 1325.52 Q1227.69 1325.52 1228.23 1325.59 Q1228.76 1325.64 1229.41 1325.76 L1229.43 1330.13 Z" fill="#000000" fill-rule="nonzero" fill-opacity="1" /><path clip-path="url(#clip720)" d="M1233.9 1326.15 L1238.16 1326.15 L1238.16 1352.07 L1233.9 1352.07 L1233.9 1326.15 M1233.9 1316.06 L1238.16 1316.06 L1238.16 1321.45 L1233.9 1321.45 L1233.9 1316.06 Z" fill="#000000" fill-rule="nonzero" fill-opacity="1" /><path clip-path="url(#clip720)" d="M1268.62 1326.15 L1259.24 1338.76 L1269.11 1352.07 L1264.08 1352.07 L1256.54 1341.89 L1248.99 1352.07 L1243.97 1352.07 L1254.04 1338.51 L1244.82 1326.15 L1249.85 1326.15 L1256.72 1335.38 L1263.6 1326.15 L1268.62 1326.15 Z" fill="#000000" fill-rule="nonzero" fill-opacity="1" /><polyline clip-path="url(#clip720)" style="stroke:#ff0000; stroke-linecap:round; stroke-linejoin:round; stroke-width:4; stroke-opacity:1; fill:none" stroke-dasharray="16, 10" points="1021.44,1386.63 1058.86,1386.63 "/>
<path clip-path="url(#clip720)" d="M1072.72 1382.06 L1078.39 1398.08 L1086.49 1377.99 L1091.01 1377.99 L1080.52 1403.91 L1080.52 1413.78 L1076.26 1413.78 L1076.26 1403.91 L1069.45 1384.56 Q1068.44 1381.65 1066.24 1381.65 L1065.1 1381.65 L1065.1 1377.99 L1066.72 1377.99 Q1071.28 1377.99 1072.72 1382.06 Z" fill="#000000" fill-rule="nonzero" fill-opacity="1" /><path clip-path="url(#clip720)" d="M1116.58 1411.78 L1116.58 1415.09 L1091.95 1415.09 L1091.95 1411.78 L1116.58 1411.78 Z" fill="#000000" fill-rule="nonzero" fill-opacity="1" /><path clip-path="url(#clip720)" d="M1124.71 1400.03 L1124.71 1413.78 L1120.43 1413.78 L1120.43 1377.99 L1124.71 1377.99 L1124.71 1381.92 Q1126.05 1379.61 1128.09 1378.5 Q1130.15 1377.36 1133 1377.36 Q1137.72 1377.36 1140.66 1381.11 Q1143.62 1384.86 1143.62 1390.97 Q1143.62 1397.09 1140.66 1400.84 Q1137.72 1404.59 1133 1404.59 Q1130.15 1404.59 1128.09 1403.47 Q1126.05 1402.34 1124.71 1400.03 M1139.2 1390.97 Q1139.2 1386.28 1137.25 1383.61 Q1135.33 1380.93 1131.95 1380.93 Q1128.57 1380.93 1126.63 1383.61 Q1124.71 1386.28 1124.71 1390.97 Q1124.71 1395.67 1126.63 1398.36 Q1128.57 1401.02 1131.95 1401.02 Q1135.33 1401.02 1137.25 1398.36 Q1139.2 1395.67 1139.2 1390.97 Z" fill="#000000" fill-rule="nonzero" fill-opacity="1" /><path clip-path="url(#clip720)" d="M1165.7 1381.97 Q1164.99 1381.55 1164.13 1381.37 Q1163.3 1381.16 1162.28 1381.16 Q1158.67 1381.16 1156.72 1383.52 Q1154.8 1385.86 1154.8 1390.26 L1154.8 1403.91 L1150.52 1403.91 L1150.52 1377.99 L1154.8 1377.99 L1154.8 1382.02 Q1156.14 1379.66 1158.3 1378.52 Q1160.45 1377.36 1163.53 1377.36 Q1163.97 1377.36 1164.5 1377.43 Q1165.03 1377.48 1165.68 1377.6 L1165.7 1381.97 Z" fill="#000000" fill-rule="nonzero" fill-opacity="1" /><path clip-path="url(#clip720)" d="M1191.31 1389.89 L1191.31 1391.97 L1171.72 1391.97 Q1172 1396.37 1174.36 1398.68 Q1176.75 1400.97 1180.98 1400.97 Q1183.44 1400.97 1185.73 1400.37 Q1188.04 1399.77 1190.31 1398.57 L1190.31 1402.59 Q1188.02 1403.57 1185.61 1404.08 Q1183.2 1404.59 1180.73 1404.59 Q1174.52 1404.59 1170.89 1400.97 Q1167.28 1397.36 1167.28 1391.21 Q1167.28 1384.84 1170.7 1381.11 Q1174.15 1377.36 1179.99 1377.36 Q1185.22 1377.36 1188.25 1380.74 Q1191.31 1384.1 1191.31 1389.89 M1187.05 1388.64 Q1187 1385.14 1185.08 1383.06 Q1183.18 1380.97 1180.03 1380.97 Q1176.47 1380.97 1174.31 1382.99 Q1172.19 1385 1171.86 1388.66 L1187.05 1388.64 Z" fill="#000000" fill-rule="nonzero" fill-opacity="1" /><path clip-path="url(#clip720)" d="M1215.36 1381.92 L1215.36 1367.9 L1219.62 1367.9 L1219.62 1403.91 L1215.36 1403.91 L1215.36 1400.03 Q1214.01 1402.34 1211.95 1403.47 Q1209.92 1404.59 1207.05 1404.59 Q1202.35 1404.59 1199.38 1400.84 Q1196.44 1397.09 1196.44 1390.97 Q1196.44 1384.86 1199.38 1381.11 Q1202.35 1377.36 1207.05 1377.36 Q1209.92 1377.36 1211.95 1378.5 Q1214.01 1379.61 1215.36 1381.92 M1200.84 1390.97 Q1200.84 1395.67 1202.76 1398.36 Q1204.71 1401.02 1208.09 1401.02 Q1211.47 1401.02 1213.41 1398.36 Q1215.36 1395.67 1215.36 1390.97 Q1215.36 1386.28 1213.41 1383.61 Q1211.47 1380.93 1208.09 1380.93 Q1204.71 1380.93 1202.76 1383.61 Q1200.84 1386.28 1200.84 1390.97 Z" fill="#000000" fill-rule="nonzero" fill-opacity="1" /><path clip-path="url(#clip720)" d="M1228.39 1377.99 L1232.65 1377.99 L1232.65 1403.91 L1228.39 1403.91 L1228.39 1377.99 M1228.39 1367.9 L1232.65 1367.9 L1232.65 1373.29 L1228.39 1373.29 L1228.39 1367.9 Z" fill="#000000" fill-rule="nonzero" fill-opacity="1" /><path clip-path="url(#clip720)" d="M1260.22 1378.98 L1260.22 1382.97 Q1258.41 1381.97 1256.58 1381.48 Q1254.78 1380.97 1252.93 1380.97 Q1248.78 1380.97 1246.49 1383.61 Q1244.2 1386.23 1244.2 1390.97 Q1244.2 1395.72 1246.49 1398.36 Q1248.78 1400.97 1252.93 1400.97 Q1254.78 1400.97 1256.58 1400.49 Q1258.41 1399.98 1260.22 1398.98 L1260.22 1402.92 Q1258.43 1403.75 1256.51 1404.17 Q1254.62 1404.59 1252.46 1404.59 Q1246.61 1404.59 1243.16 1400.91 Q1239.71 1397.22 1239.71 1390.97 Q1239.71 1384.63 1243.18 1381 Q1246.68 1377.36 1252.74 1377.36 Q1254.71 1377.36 1256.58 1377.78 Q1258.46 1378.17 1260.22 1378.98 Z" fill="#000000" fill-rule="nonzero" fill-opacity="1" /><path clip-path="url(#clip720)" d="M1271.84 1370.63 L1271.84 1377.99 L1280.61 1377.99 L1280.61 1381.3 L1271.84 1381.3 L1271.84 1395.37 Q1271.84 1398.54 1272.69 1399.45 Q1273.57 1400.35 1276.24 1400.35 L1280.61 1400.35 L1280.61 1403.91 L1276.24 1403.91 Q1271.3 1403.91 1269.43 1402.09 Q1267.55 1400.23 1267.55 1395.37 L1267.55 1381.3 L1264.43 1381.3 L1264.43 1377.99 L1267.55 1377.99 L1267.55 1370.63 L1271.84 1370.63 Z" fill="#000000" fill-rule="nonzero" fill-opacity="1" /><path clip-path="url(#clip720)" d="M1308.39 1389.89 L1308.39 1391.97 L1288.8 1391.97 Q1289.08 1396.37 1291.44 1398.68 Q1293.83 1400.97 1298.06 1400.97 Q1300.52 1400.97 1302.81 1400.37 Q1305.12 1399.77 1307.39 1398.57 L1307.39 1402.59 Q1305.1 1403.57 1302.69 1404.08 Q1300.29 1404.59 1297.81 1404.59 Q1291.61 1404.59 1287.97 1400.97 Q1284.36 1397.36 1284.36 1391.21 Q1284.36 1384.84 1287.79 1381.11 Q1291.24 1377.36 1297.07 1377.36 Q1302.3 1377.36 1305.33 1380.74 Q1308.39 1384.1 1308.39 1389.89 M1304.13 1388.64 Q1304.08 1385.14 1302.16 1383.06 Q1300.26 1380.97 1297.12 1380.97 Q1293.55 1380.97 1291.4 1382.99 Q1289.27 1385 1288.94 1388.66 L1304.13 1388.64 Z" fill="#000000" fill-rule="nonzero" fill-opacity="1" /><path clip-path="url(#clip720)" d="M1332.44 1381.92 L1332.44 1367.9 L1336.7 1367.9 L1336.7 1403.91 L1332.44 1403.91 L1332.44 1400.03 Q1331.1 1402.34 1329.04 1403.47 Q1327 1404.59 1324.13 1404.59 Q1319.43 1404.59 1316.47 1400.84 Q1313.53 1397.09 1313.53 1390.97 Q1313.53 1384.86 1316.47 1381.11 Q1319.43 1377.36 1324.13 1377.36 Q1327 1377.36 1329.04 1378.5 Q1331.1 1379.61 1332.44 1381.92 M1317.93 1390.97 Q1317.93 1395.67 1319.85 1398.36 Q1321.79 1401.02 1325.17 1401.02 Q1328.55 1401.02 1330.49 1398.36 Q1332.44 1395.67 1332.44 1390.97 Q1332.44 1386.28 1330.49 1383.61 Q1328.55 1380.93 1325.17 1380.93 Q1321.79 1380.93 1319.85 1383.61 Q1317.93 1386.28 1317.93 1390.97 Z" fill="#000000" fill-rule="nonzero" fill-opacity="1" /><path clip-path="url(#clip720)" d="M1791.38 1486.45 L2352.76 1486.45 L2352.76 47.2441 L1791.38 47.2441  Z" fill="#ffffff" fill-rule="evenodd" fill-opacity="1"/>
<defs>
  <clipPath id="clip724">
    <rect x="1791" y="47" width="562" height="1440"/>
  </clipPath>
</defs>
<polyline clip-path="url(#clip724)" style="stroke:#000000; stroke-linecap:round; stroke-linejoin:round; stroke-width:2; stroke-opacity:0.1; fill:none" points="1807.27,1486.45 1807.27,47.2441 "/>
<polyline clip-path="url(#clip724)" style="stroke:#000000; stroke-linecap:round; stroke-linejoin:round; stroke-width:2; stroke-opacity:0.1; fill:none" points="1891.56,1486.45 1891.56,47.2441 "/>
<polyline clip-path="url(#clip724)" style="stroke:#000000; stroke-linecap:round; stroke-linejoin:round; stroke-width:2; stroke-opacity:0.1; fill:none" points="1975.85,1486.45 1975.85,47.2441 "/>
<polyline clip-path="url(#clip724)" style="stroke:#000000; stroke-linecap:round; stroke-linejoin:round; stroke-width:2; stroke-opacity:0.1; fill:none" points="2060.13,1486.45 2060.13,47.2441 "/>
<polyline clip-path="url(#clip724)" style="stroke:#000000; stroke-linecap:round; stroke-linejoin:round; stroke-width:2; stroke-opacity:0.1; fill:none" points="2144.42,1486.45 2144.42,47.2441 "/>
<polyline clip-path="url(#clip724)" style="stroke:#000000; stroke-linecap:round; stroke-linejoin:round; stroke-width:2; stroke-opacity:0.1; fill:none" points="2228.71,1486.45 2228.71,47.2441 "/>
<polyline clip-path="url(#clip724)" style="stroke:#000000; stroke-linecap:round; stroke-linejoin:round; stroke-width:2; stroke-opacity:0.1; fill:none" points="2313,1486.45 2313,47.2441 "/>
<polyline clip-path="url(#clip720)" style="stroke:#000000; stroke-linecap:round; stroke-linejoin:round; stroke-width:4; stroke-opacity:1; fill:none" points="1791.38,1486.45 2352.76,1486.45 "/>
<polyline clip-path="url(#clip720)" style="stroke:#000000; stroke-linecap:round; stroke-linejoin:round; stroke-width:4; stroke-opacity:1; fill:none" points="1807.27,1486.45 1807.27,1467.55 "/>
<polyline clip-path="url(#clip720)" style="stroke:#000000; stroke-linecap:round; stroke-linejoin:round; stroke-width:4; stroke-opacity:1; fill:none" points="1891.56,1486.45 1891.56,1467.55 "/>
<polyline clip-path="url(#clip720)" style="stroke:#000000; stroke-linecap:round; stroke-linejoin:round; stroke-width:4; stroke-opacity:1; fill:none" points="1975.85,1486.45 1975.85,1467.55 "/>
<polyline clip-path="url(#clip720)" style="stroke:#000000; stroke-linecap:round; stroke-linejoin:round; stroke-width:4; stroke-opacity:1; fill:none" points="2060.13,1486.45 2060.13,1467.55 "/>
<polyline clip-path="url(#clip720)" style="stroke:#000000; stroke-linecap:round; stroke-linejoin:round; stroke-width:4; stroke-opacity:1; fill:none" points="2144.42,1486.45 2144.42,1467.55 "/>
<polyline clip-path="url(#clip720)" style="stroke:#000000; stroke-linecap:round; stroke-linejoin:round; stroke-width:4; stroke-opacity:1; fill:none" points="2228.71,1486.45 2228.71,1467.55 "/>
<polyline clip-path="url(#clip720)" style="stroke:#000000; stroke-linecap:round; stroke-linejoin:round; stroke-width:4; stroke-opacity:1; fill:none" points="2313,1486.45 2313,1467.55 "/>
<path clip-path="url(#clip720)" d="M1807.27 1517.37 Q1803.66 1517.37 1801.83 1520.93 Q1800.02 1524.47 1800.02 1531.6 Q1800.02 1538.71 1801.83 1542.27 Q1803.66 1545.82 1807.27 1545.82 Q1810.9 1545.82 1812.71 1542.27 Q1814.54 1538.71 1814.54 1531.6 Q1814.54 1524.47 1812.71 1520.93 Q1810.9 1517.37 1807.27 1517.37 M1807.27 1513.66 Q1813.08 1513.66 1816.14 1518.27 Q1819.21 1522.85 1819.21 1531.6 Q1819.21 1540.33 1816.14 1544.94 Q1813.08 1549.52 1807.27 1549.52 Q1801.46 1549.52 1798.38 1544.94 Q1795.33 1540.33 1795.33 1531.6 Q1795.33 1522.85 1798.38 1518.27 Q1801.46 1513.66 1807.27 1513.66 Z" fill="#000000" fill-rule="nonzero" fill-opacity="1" /><path clip-path="url(#clip720)" d="M1881.94 1544.91 L1889.58 1544.91 L1889.58 1518.55 L1881.27 1520.21 L1881.27 1515.95 L1889.53 1514.29 L1894.21 1514.29 L1894.21 1544.91 L1901.85 1544.91 L1901.85 1548.85 L1881.94 1548.85 L1881.94 1544.91 Z" fill="#000000" fill-rule="nonzero" fill-opacity="1" /><path clip-path="url(#clip720)" d="M1970.5 1544.91 L1986.82 1544.91 L1986.82 1548.85 L1964.87 1548.85 L1964.87 1544.91 Q1967.54 1542.16 1972.12 1537.53 Q1976.73 1532.88 1977.91 1531.53 Q1980.15 1529.01 1981.03 1527.27 Q1981.93 1525.51 1981.93 1523.82 Q1981.93 1521.07 1979.99 1519.33 Q1978.07 1517.6 1974.97 1517.6 Q1972.77 1517.6 1970.31 1518.36 Q1967.88 1519.13 1965.11 1520.68 L1965.11 1515.95 Q1967.93 1514.82 1970.38 1514.24 Q1972.84 1513.66 1974.87 1513.66 Q1980.24 1513.66 1983.44 1516.35 Q1986.63 1519.03 1986.63 1523.52 Q1986.63 1525.65 1985.82 1527.57 Q1985.04 1529.47 1982.93 1532.07 Q1982.35 1532.74 1979.25 1535.95 Q1976.15 1539.15 1970.5 1544.91 Z" fill="#000000" fill-rule="nonzero" fill-opacity="1" /><path clip-path="url(#clip720)" d="M2064.38 1530.21 Q2067.74 1530.93 2069.61 1533.2 Q2071.51 1535.47 2071.51 1538.8 Q2071.51 1543.92 2067.99 1546.72 Q2064.47 1549.52 2057.99 1549.52 Q2055.82 1549.52 2053.5 1549.08 Q2051.21 1548.66 2048.76 1547.81 L2048.76 1543.29 Q2050.7 1544.43 2053.02 1545.01 Q2055.33 1545.58 2057.85 1545.58 Q2062.25 1545.58 2064.54 1543.85 Q2066.86 1542.11 2066.86 1538.8 Q2066.86 1535.75 2064.71 1534.03 Q2062.58 1532.3 2058.76 1532.3 L2054.73 1532.3 L2054.73 1528.45 L2058.94 1528.45 Q2062.39 1528.45 2064.22 1527.09 Q2066.05 1525.7 2066.05 1523.11 Q2066.05 1520.45 2064.15 1519.03 Q2062.28 1517.6 2058.76 1517.6 Q2056.84 1517.6 2054.64 1518.01 Q2052.44 1518.43 2049.8 1519.31 L2049.8 1515.14 Q2052.46 1514.4 2054.78 1514.03 Q2057.11 1513.66 2059.17 1513.66 Q2064.5 1513.66 2067.6 1516.09 Q2070.7 1518.5 2070.7 1522.62 Q2070.7 1525.49 2069.06 1527.48 Q2067.41 1529.45 2064.38 1530.21 Z" fill="#000000" fill-rule="nonzero" fill-opacity="1" /><path clip-path="url(#clip720)" d="M2147.43 1518.36 L2135.63 1536.81 L2147.43 1536.81 L2147.43 1518.36 M2146.2 1514.29 L2152.08 1514.29 L2152.08 1536.81 L2157.02 1536.81 L2157.02 1540.7 L2152.08 1540.7 L2152.08 1548.85 L2147.43 1548.85 L2147.43 1540.7 L2131.83 1540.7 L2131.83 1536.19 L2146.2 1514.29 Z" fill="#000000" fill-rule="nonzero" fill-opacity="1" /><path clip-path="url(#clip720)" d="M2218.99 1514.29 L2237.34 1514.29 L2237.34 1518.22 L2223.27 1518.22 L2223.27 1526.7 Q2224.29 1526.35 2225.31 1526.19 Q2226.33 1526 2227.34 1526 Q2233.13 1526 2236.51 1529.17 Q2239.89 1532.34 2239.89 1537.76 Q2239.89 1543.34 2236.42 1546.44 Q2232.95 1549.52 2226.63 1549.52 Q2224.45 1549.52 2222.18 1549.15 Q2219.94 1548.78 2217.53 1548.04 L2217.53 1543.34 Q2219.61 1544.47 2221.84 1545.03 Q2224.06 1545.58 2226.53 1545.58 Q2230.54 1545.58 2232.88 1543.48 Q2235.22 1541.37 2235.22 1537.76 Q2235.22 1534.15 2232.88 1532.04 Q2230.54 1529.94 2226.53 1529.94 Q2224.66 1529.94 2222.78 1530.35 Q2220.93 1530.77 2218.99 1531.65 L2218.99 1514.29 Z" fill="#000000" fill-rule="nonzero" fill-opacity="1" /><path clip-path="url(#clip720)" d="M2313.4 1529.7 Q2310.26 1529.7 2308.4 1531.86 Q2306.58 1534.01 2306.58 1537.76 Q2306.58 1541.49 2308.4 1543.66 Q2310.26 1545.82 2313.4 1545.82 Q2316.55 1545.82 2318.38 1543.66 Q2320.23 1541.49 2320.23 1537.76 Q2320.23 1534.01 2318.38 1531.86 Q2316.55 1529.7 2313.4 1529.7 M2322.69 1515.05 L2322.69 1519.31 Q2320.93 1518.48 2319.12 1518.04 Q2317.34 1517.6 2315.58 1517.6 Q2310.95 1517.6 2308.5 1520.72 Q2306.07 1523.85 2305.72 1530.17 Q2307.08 1528.15 2309.14 1527.09 Q2311.2 1526 2313.68 1526 Q2318.89 1526 2321.9 1529.17 Q2324.93 1532.32 2324.93 1537.76 Q2324.93 1543.08 2321.78 1546.3 Q2318.64 1549.52 2313.4 1549.52 Q2307.41 1549.52 2304.24 1544.94 Q2301.07 1540.33 2301.07 1531.6 Q2301.07 1523.41 2304.95 1518.55 Q2308.84 1513.66 2315.39 1513.66 Q2317.15 1513.66 2318.94 1514.01 Q2320.74 1514.36 2322.69 1515.05 Z" fill="#000000" fill-rule="nonzero" fill-opacity="1" /><polyline clip-path="url(#clip724)" style="stroke:#000000; stroke-linecap:round; stroke-linejoin:round; stroke-width:2; stroke-opacity:0.1; fill:none" points="1791.38,1445.72 2352.76,1445.72 "/>
<polyline clip-path="url(#clip724)" style="stroke:#000000; stroke-linecap:round; stroke-linejoin:round; stroke-width:2; stroke-opacity:0.1; fill:none" points="1791.38,1106.28 2352.76,1106.28 "/>
<polyline clip-path="url(#clip724)" style="stroke:#000000; stroke-linecap:round; stroke-linejoin:round; stroke-width:2; stroke-opacity:0.1; fill:none" points="1791.38,766.846 2352.76,766.846 "/>
<polyline clip-path="url(#clip724)" style="stroke:#000000; stroke-linecap:round; stroke-linejoin:round; stroke-width:2; stroke-opacity:0.1; fill:none" points="1791.38,427.411 2352.76,427.411 "/>
<polyline clip-path="url(#clip724)" style="stroke:#000000; stroke-linecap:round; stroke-linejoin:round; stroke-width:2; stroke-opacity:0.1; fill:none" points="1791.38,87.9763 2352.76,87.9763 "/>
<polyline clip-path="url(#clip720)" style="stroke:#000000; stroke-linecap:round; stroke-linejoin:round; stroke-width:4; stroke-opacity:1; fill:none" points="1791.38,1486.45 1791.38,47.2441 "/>
<polyline clip-path="url(#clip720)" style="stroke:#000000; stroke-linecap:round; stroke-linejoin:round; stroke-width:4; stroke-opacity:1; fill:none" points="1791.38,1445.72 1810.28,1445.72 "/>
<polyline clip-path="url(#clip720)" style="stroke:#000000; stroke-linecap:round; stroke-linejoin:round; stroke-width:4; stroke-opacity:1; fill:none" points="1791.38,1106.28 1810.28,1106.28 "/>
<polyline clip-path="url(#clip720)" style="stroke:#000000; stroke-linecap:round; stroke-linejoin:round; stroke-width:4; stroke-opacity:1; fill:none" points="1791.38,766.846 1810.28,766.846 "/>
<polyline clip-path="url(#clip720)" style="stroke:#000000; stroke-linecap:round; stroke-linejoin:round; stroke-width:4; stroke-opacity:1; fill:none" points="1791.38,427.411 1810.28,427.411 "/>
<polyline clip-path="url(#clip720)" style="stroke:#000000; stroke-linecap:round; stroke-linejoin:round; stroke-width:4; stroke-opacity:1; fill:none" points="1791.38,87.9763 1810.28,87.9763 "/>
<path clip-path="url(#clip720)" d="M1668.04 1431.51 Q1664.43 1431.51 1662.6 1435.08 Q1660.8 1438.62 1660.8 1445.75 Q1660.8 1452.86 1662.6 1456.42 Q1664.43 1459.96 1668.04 1459.96 Q1671.68 1459.96 1673.48 1456.42 Q1675.31 1452.86 1675.31 1445.75 Q1675.31 1438.62 1673.48 1435.08 Q1671.68 1431.51 1668.04 1431.51 M1668.04 1427.81 Q1673.85 1427.81 1676.91 1432.42 Q1679.99 1437 1679.99 1445.75 Q1679.99 1454.48 1676.91 1459.08 Q1673.85 1463.67 1668.04 1463.67 Q1662.23 1463.67 1659.16 1459.08 Q1656.1 1454.48 1656.1 1445.75 Q1656.1 1437 1659.16 1432.42 Q1662.23 1427.81 1668.04 1427.81 Z" fill="#000000" fill-rule="nonzero" fill-opacity="1" /><path clip-path="url(#clip720)" d="M1688.21 1457.12 L1693.09 1457.12 L1693.09 1463 L1688.21 1463 L1688.21 1457.12 Z" fill="#000000" fill-rule="nonzero" fill-opacity="1" /><path clip-path="url(#clip720)" d="M1713.28 1431.51 Q1709.66 1431.51 1707.84 1435.08 Q1706.03 1438.62 1706.03 1445.75 Q1706.03 1452.86 1707.84 1456.42 Q1709.66 1459.96 1713.28 1459.96 Q1716.91 1459.96 1718.72 1456.42 Q1720.54 1452.86 1720.54 1445.75 Q1720.54 1438.62 1718.72 1435.08 Q1716.91 1431.51 1713.28 1431.51 M1713.28 1427.81 Q1719.09 1427.81 1722.14 1432.42 Q1725.22 1437 1725.22 1445.75 Q1725.22 1454.48 1722.14 1459.08 Q1719.09 1463.67 1713.28 1463.67 Q1707.47 1463.67 1704.39 1459.08 Q1701.33 1454.48 1701.33 1445.75 Q1701.33 1437 1704.39 1432.42 Q1707.47 1427.81 1713.28 1427.81 Z" fill="#000000" fill-rule="nonzero" fill-opacity="1" /><path clip-path="url(#clip720)" d="M1743.44 1431.51 Q1739.83 1431.51 1738 1435.08 Q1736.19 1438.62 1736.19 1445.75 Q1736.19 1452.86 1738 1456.42 Q1739.83 1459.96 1743.44 1459.96 Q1747.07 1459.96 1748.88 1456.42 Q1750.71 1452.86 1750.71 1445.75 Q1750.71 1438.62 1748.88 1435.08 Q1747.07 1431.51 1743.44 1431.51 M1743.44 1427.81 Q1749.25 1427.81 1752.3 1432.42 Q1755.38 1437 1755.38 1445.75 Q1755.38 1454.48 1752.3 1459.08 Q1749.25 1463.67 1743.44 1463.67 Q1737.63 1463.67 1734.55 1459.08 Q1731.49 1454.48 1731.49 1445.75 Q1731.49 1437 1734.55 1432.42 Q1737.63 1427.81 1743.44 1427.81 Z" fill="#000000" fill-rule="nonzero" fill-opacity="1" /><path clip-path="url(#clip720)" d="M1669.04 1092.08 Q1665.43 1092.08 1663.6 1095.64 Q1661.79 1099.19 1661.79 1106.32 Q1661.79 1113.42 1663.6 1116.99 Q1665.43 1120.53 1669.04 1120.53 Q1672.67 1120.53 1674.48 1116.99 Q1676.31 1113.42 1676.31 1106.32 Q1676.31 1099.19 1674.48 1095.64 Q1672.67 1092.08 1669.04 1092.08 M1669.04 1088.38 Q1674.85 1088.38 1677.91 1092.98 Q1680.98 1097.57 1680.98 1106.32 Q1680.98 1115.04 1677.91 1119.65 Q1674.85 1124.23 1669.04 1124.23 Q1663.23 1124.23 1660.15 1119.65 Q1657.1 1115.04 1657.1 1106.32 Q1657.1 1097.57 1660.15 1092.98 Q1663.23 1088.38 1669.04 1088.38 Z" fill="#000000" fill-rule="nonzero" fill-opacity="1" /><path clip-path="url(#clip720)" d="M1689.2 1117.68 L1694.09 1117.68 L1694.09 1123.56 L1689.2 1123.56 L1689.2 1117.68 Z" fill="#000000" fill-rule="nonzero" fill-opacity="1" /><path clip-path="url(#clip720)" d="M1708.3 1119.63 L1724.62 1119.63 L1724.62 1123.56 L1702.67 1123.56 L1702.67 1119.63 Q1705.34 1116.87 1709.92 1112.24 Q1714.53 1107.59 1715.71 1106.25 Q1717.95 1103.72 1718.83 1101.99 Q1719.73 1100.23 1719.73 1098.54 Q1719.73 1095.78 1717.79 1094.05 Q1715.87 1092.31 1712.77 1092.31 Q1710.57 1092.31 1708.11 1093.07 Q1705.68 1093.84 1702.91 1095.39 L1702.91 1090.67 Q1705.73 1089.53 1708.18 1088.95 Q1710.64 1088.38 1712.67 1088.38 Q1718.04 1088.38 1721.24 1091.06 Q1724.43 1093.75 1724.43 1098.24 Q1724.43 1100.37 1723.62 1102.29 Q1722.84 1104.19 1720.73 1106.78 Q1720.15 1107.45 1717.05 1110.67 Q1713.95 1113.86 1708.3 1119.63 Z" fill="#000000" fill-rule="nonzero" fill-opacity="1" /><path clip-path="url(#clip720)" d="M1734.48 1089 L1752.84 1089 L1752.84 1092.94 L1738.76 1092.94 L1738.76 1101.41 Q1739.78 1101.06 1740.8 1100.9 Q1741.82 1100.71 1742.84 1100.71 Q1748.62 1100.71 1752 1103.89 Q1755.38 1107.06 1755.38 1112.47 Q1755.38 1118.05 1751.91 1121.15 Q1748.44 1124.23 1742.12 1124.23 Q1739.94 1124.23 1737.67 1123.86 Q1735.43 1123.49 1733.02 1122.75 L1733.02 1118.05 Q1735.1 1119.19 1737.33 1119.74 Q1739.55 1120.3 1742.03 1120.3 Q1746.03 1120.3 1748.37 1118.19 Q1750.71 1116.08 1750.71 1112.47 Q1750.71 1108.86 1748.37 1106.76 Q1746.03 1104.65 1742.03 1104.65 Q1740.15 1104.65 1738.28 1105.07 Q1736.42 1105.48 1734.48 1106.36 L1734.48 1089 Z" fill="#000000" fill-rule="nonzero" fill-opacity="1" /><path clip-path="url(#clip720)" d="M1668.04 752.645 Q1664.43 752.645 1662.6 756.209 Q1660.8 759.751 1660.8 766.881 Q1660.8 773.987 1662.6 777.552 Q1664.43 781.094 1668.04 781.094 Q1671.68 781.094 1673.48 777.552 Q1675.31 773.987 1675.31 766.881 Q1675.31 759.751 1673.48 756.209 Q1671.68 752.645 1668.04 752.645 M1668.04 748.941 Q1673.85 748.941 1676.91 753.547 Q1679.99 758.131 1679.99 766.881 Q1679.99 775.608 1676.91 780.214 Q1673.85 784.797 1668.04 784.797 Q1662.23 784.797 1659.16 780.214 Q1656.1 775.608 1656.1 766.881 Q1656.1 758.131 1659.16 753.547 Q1662.23 748.941 1668.04 748.941 Z" fill="#000000" fill-rule="nonzero" fill-opacity="1" /><path clip-path="url(#clip720)" d="M1688.21 778.246 L1693.09 778.246 L1693.09 784.126 L1688.21 784.126 L1688.21 778.246 Z" fill="#000000" fill-rule="nonzero" fill-opacity="1" /><path clip-path="url(#clip720)" d="M1703.32 749.566 L1721.68 749.566 L1721.68 753.501 L1707.6 753.501 L1707.6 761.973 Q1708.62 761.626 1709.64 761.464 Q1710.66 761.279 1711.68 761.279 Q1717.47 761.279 1720.85 764.45 Q1724.22 767.621 1724.22 773.038 Q1724.22 778.617 1720.75 781.719 Q1717.28 784.797 1710.96 784.797 Q1708.79 784.797 1706.52 784.427 Q1704.27 784.057 1701.86 783.316 L1701.86 778.617 Q1703.95 779.751 1706.17 780.307 Q1708.39 780.862 1710.87 780.862 Q1714.87 780.862 1717.21 778.756 Q1719.55 776.649 1719.55 773.038 Q1719.55 769.427 1717.21 767.321 Q1714.87 765.214 1710.87 765.214 Q1708.99 765.214 1707.12 765.631 Q1705.27 766.047 1703.32 766.927 L1703.32 749.566 Z" fill="#000000" fill-rule="nonzero" fill-opacity="1" /><path clip-path="url(#clip720)" d="M1743.44 752.645 Q1739.83 752.645 1738 756.209 Q1736.19 759.751 1736.19 766.881 Q1736.19 773.987 1738 777.552 Q1739.83 781.094 1743.44 781.094 Q1747.07 781.094 1748.88 777.552 Q1750.71 773.987 1750.71 766.881 Q1750.71 759.751 1748.88 756.209 Q1747.07 752.645 1743.44 752.645 M1743.44 748.941 Q1749.25 748.941 1752.3 753.547 Q1755.38 758.131 1755.38 766.881 Q1755.38 775.608 1752.3 780.214 Q1749.25 784.797 1743.44 784.797 Q1737.63 784.797 1734.55 780.214 Q1731.49 775.608 1731.49 766.881 Q1731.49 758.131 1734.55 753.547 Q1737.63 748.941 1743.44 748.941 Z" fill="#000000" fill-rule="nonzero" fill-opacity="1" /><path clip-path="url(#clip720)" d="M1669.04 413.21 Q1665.43 413.21 1663.6 416.775 Q1661.79 420.316 1661.79 427.446 Q1661.79 434.552 1663.6 438.117 Q1665.43 441.659 1669.04 441.659 Q1672.67 441.659 1674.48 438.117 Q1676.31 434.552 1676.31 427.446 Q1676.31 420.316 1674.48 416.775 Q1672.67 413.21 1669.04 413.21 M1669.04 409.506 Q1674.85 409.506 1677.91 414.113 Q1680.98 418.696 1680.98 427.446 Q1680.98 436.173 1677.91 440.779 Q1674.85 445.362 1669.04 445.362 Q1663.23 445.362 1660.15 440.779 Q1657.1 436.173 1657.1 427.446 Q1657.1 418.696 1660.15 414.113 Q1663.23 409.506 1669.04 409.506 Z" fill="#000000" fill-rule="nonzero" fill-opacity="1" /><path clip-path="url(#clip720)" d="M1689.2 438.812 L1694.09 438.812 L1694.09 444.691 L1689.2 444.691 L1689.2 438.812 Z" fill="#000000" fill-rule="nonzero" fill-opacity="1" /><path clip-path="url(#clip720)" d="M1703.09 410.131 L1725.31 410.131 L1725.31 412.122 L1712.77 444.691 L1707.88 444.691 L1719.69 414.066 L1703.09 414.066 L1703.09 410.131 Z" fill="#000000" fill-rule="nonzero" fill-opacity="1" /><path clip-path="url(#clip720)" d="M1734.48 410.131 L1752.84 410.131 L1752.84 414.066 L1738.76 414.066 L1738.76 422.538 Q1739.78 422.191 1740.8 422.029 Q1741.82 421.844 1742.84 421.844 Q1748.62 421.844 1752 425.015 Q1755.38 428.187 1755.38 433.603 Q1755.38 439.182 1751.91 442.284 Q1748.44 445.362 1742.12 445.362 Q1739.94 445.362 1737.67 444.992 Q1735.43 444.622 1733.02 443.881 L1733.02 439.182 Q1735.1 440.316 1737.33 440.872 Q1739.55 441.427 1742.03 441.427 Q1746.03 441.427 1748.37 439.321 Q1750.71 437.214 1750.71 433.603 Q1750.71 429.992 1748.37 427.886 Q1746.03 425.779 1742.03 425.779 Q1740.15 425.779 1738.28 426.196 Q1736.42 426.613 1734.48 427.492 L1734.48 410.131 Z" fill="#000000" fill-rule="nonzero" fill-opacity="1" /><path clip-path="url(#clip720)" d="M1658.85 101.321 L1666.49 101.321 L1666.49 74.9555 L1658.18 76.6222 L1658.18 72.3629 L1666.45 70.6963 L1671.12 70.6963 L1671.12 101.321 L1678.76 101.321 L1678.76 105.256 L1658.85 105.256 L1658.85 101.321 Z" fill="#000000" fill-rule="nonzero" fill-opacity="1" /><path clip-path="url(#clip720)" d="M1688.21 99.3767 L1693.09 99.3767 L1693.09 105.256 L1688.21 105.256 L1688.21 99.3767 Z" fill="#000000" fill-rule="nonzero" fill-opacity="1" /><path clip-path="url(#clip720)" d="M1713.28 73.775 Q1709.66 73.775 1707.84 77.3398 Q1706.03 80.8814 1706.03 88.011 Q1706.03 95.1174 1707.84 98.6822 Q1709.66 102.224 1713.28 102.224 Q1716.91 102.224 1718.72 98.6822 Q1720.54 95.1174 1720.54 88.011 Q1720.54 80.8814 1718.72 77.3398 Q1716.91 73.775 1713.28 73.775 M1713.28 70.0713 Q1719.09 70.0713 1722.14 74.6777 Q1725.22 79.261 1725.22 88.011 Q1725.22 96.7378 1722.14 101.344 Q1719.09 105.928 1713.28 105.928 Q1707.47 105.928 1704.39 101.344 Q1701.33 96.7378 1701.33 88.011 Q1701.33 79.261 1704.39 74.6777 Q1707.47 70.0713 1713.28 70.0713 Z" fill="#000000" fill-rule="nonzero" fill-opacity="1" /><path clip-path="url(#clip720)" d="M1743.44 73.775 Q1739.83 73.775 1738 77.3398 Q1736.19 80.8814 1736.19 88.011 Q1736.19 95.1174 1738 98.6822 Q1739.83 102.224 1743.44 102.224 Q1747.07 102.224 1748.88 98.6822 Q1750.71 95.1174 1750.71 88.011 Q1750.71 80.8814 1748.88 77.3398 Q1747.07 73.775 1743.44 73.775 M1743.44 70.0713 Q1749.25 70.0713 1752.3 74.6777 Q1755.38 79.261 1755.38 88.011 Q1755.38 96.7378 1752.3 101.344 Q1749.25 105.928 1743.44 105.928 Q1737.63 105.928 1734.55 101.344 Q1731.49 96.7378 1731.49 88.011 Q1731.49 79.261 1734.55 74.6777 Q1737.63 70.0713 1743.44 70.0713 Z" fill="#000000" fill-rule="nonzero" fill-opacity="1" /><polyline clip-path="url(#clip724)" style="stroke:#0000ff; stroke-linecap:round; stroke-linejoin:round; stroke-width:4; stroke-opacity:1; fill:none" points="1807.27,1445.72 1812.62,1445.72 1817.97,1445.72 1823.32,1445.72 1828.67,1445.72 1834.02,1445.72 1839.37,1445.72 1844.72,1445.72 1850.07,1445.72 1855.42,1445.72 1860.76,1445.72 1866.11,1445.72 1871.46,1445.72 1876.81,1445.72 1882.16,1445.72 1887.51,1445.72 1892.86,1445.72 1898.21,1445.72 1903.56,1445.72 1908.91,1445.72 1914.26,1445.72 1919.61,1445.72 1924.96,1445.72 1930.31,1445.72 1935.66,1445.72 1941.01,1445.72 1946.36,1445.72 1951.71,1445.72 1957.06,1445.72 1962.4,1445.72 1967.75,1445.72 1973.1,1445.72 1978.45,1445.72 1983.8,1445.72 1989.15,1445.72 1994.5,1445.72 1999.85,1445.72 2005.2,1445.72 2010.55,1445.72 2015.9,1445.72 2021.25,1445.72 2026.6,1445.72 2031.95,1445.72 2037.3,1445.72 2042.65,1445.72 2048,1445.72 2053.35,1445.72 2058.7,1445.72 2064.04,1445.72 2069.39,1445.72 2074.74,1445.72 2080.09,1445.72 2085.44,1445.72 2090.79,1445.72 2096.14,1445.72 2101.49,1445.72 2106.84,1445.72 2112.19,1445.72 2117.54,1445.72 2122.89,1445.72 2128.24,1445.72 2133.59,1445.72 2138.94,1445.72 2144.29,1445.72 2149.64,1445.72 2154.99,1445.72 2160.34,1445.72 2165.68,1445.72 2171.03,1445.72 2176.38,1445.72 2181.73,1445.72 2187.08,1445.72 2192.43,1445.72 2197.78,1445.72 2203.13,1445.72 2208.48,1445.72 2213.83,1445.72 2219.18,1445.72 2224.53,1445.72 2229.88,1445.72 2235.23,1445.72 2240.58,1445.72 2245.93,1445.72 2251.28,1445.72 2256.63,1445.72 2261.98,1445.72 2267.32,1445.72 2272.67,1445.72 2278.02,1445.72 2283.37,1445.72 2288.72,1445.72 2294.07,1445.72 2299.42,1445.72 2304.77,1445.72 2310.12,1445.72 2315.47,1445.72 2320.82,1445.72 2326.17,1445.72 2331.52,1445.72 2336.87,1445.72 "/>
<polyline clip-path="url(#clip724)" style="stroke:#ff0000; stroke-linecap:round; stroke-linejoin:round; stroke-width:4; stroke-opacity:1; fill:none" stroke-dasharray="16, 10" points="1807.27,1445.72 1812.62,1445.72 1817.97,1445.72 1823.32,1445.72 1828.67,1445.72 1834.02,1445.72 1839.37,1445.72 1844.72,1445.72 1850.07,1445.72 1855.42,1445.72 1860.76,1445.72 1866.11,1445.72 1871.46,1445.72 1876.81,1445.72 1882.16,1445.72 1887.51,1445.72 1892.86,1445.72 1898.21,1445.72 1903.56,1445.72 1908.91,1445.72 1914.26,1445.72 1919.61,1445.72 1924.96,1445.72 1930.31,1445.72 1935.66,1445.72 1941.01,1445.72 1946.36,1445.72 1951.71,1445.72 1957.06,1445.72 1962.4,1445.72 1967.75,1445.72 1973.1,1445.72 1978.45,1445.72 1983.8,1445.72 1989.15,1445.72 1994.5,1445.72 1999.85,1445.72 2005.2,1445.72 2010.55,1445.72 2015.9,1445.72 2021.25,1445.72 2026.6,1445.72 2031.95,1445.72 2037.3,1445.72 2042.65,1445.72 2048,1445.72 2053.35,1445.72 2058.7,1445.72 2064.04,1445.72 2069.39,1445.72 2074.74,1445.72 2080.09,1445.72 2085.44,1445.72 2090.79,1445.72 2096.14,1445.72 2101.49,1445.72 2106.84,1445.72 2112.19,1445.72 2117.54,1445.72 2122.89,1445.72 2128.24,1445.72 2133.59,1445.72 2138.94,1445.72 2144.29,1445.72 2149.64,1445.72 2154.99,1445.72 2160.34,1445.72 2165.68,1445.72 2171.03,1445.72 2176.38,1445.72 2181.73,1445.72 2187.08,1445.72 2192.43,1445.72 2197.78,1445.72 2203.13,1445.72 2208.48,1445.72 2213.83,1445.72 2219.18,1445.72 2224.53,1445.72 2229.88,1445.72 2235.23,1445.72 2240.58,1445.72 2245.93,1445.72 2251.28,1445.72 2256.63,1445.72 2261.98,1445.72 2267.32,1445.72 2272.67,1445.72 2278.02,1445.72 2283.37,1445.72 2288.72,1445.72 2294.07,1445.72 2299.42,1445.72 2304.77,1445.72 2310.12,1445.72 2315.47,1445.72 2320.82,1445.72 2326.17,1445.72 2331.52,1445.72 2336.87,1445.72 "/>
<path clip-path="url(#clip720)" d="M2006.31 250.738 L2334.04 250.738 L2334.04 95.2176 L2006.31 95.2176  Z" fill="#ffffff" fill-rule="evenodd" fill-opacity="1"/>
<polyline clip-path="url(#clip720)" style="stroke:#000000; stroke-linecap:round; stroke-linejoin:round; stroke-width:4; stroke-opacity:1; fill:none" points="2006.31,250.738 2334.04,250.738 2334.04,95.2176 2006.31,95.2176 2006.31,250.738 "/>
<polyline clip-path="url(#clip720)" style="stroke:#0000ff; stroke-linecap:round; stroke-linejoin:round; stroke-width:4; stroke-opacity:1; fill:none" points="2012.55,147.058 2049.97,147.058 "/>
<path clip-path="url(#clip720)" d="M2063.83 142.486 L2069.5 158.504 L2077.6 138.412 L2082.11 138.412 L2071.63 164.338 L2071.63 174.199 L2067.37 174.199 L2067.37 164.338 L2060.56 144.986 Q2059.54 142.069 2057.34 142.069 L2056.21 142.069 L2056.21 138.412 L2057.83 138.412 Q2062.39 138.412 2063.83 142.486 Z" fill="#000000" fill-rule="nonzero" fill-opacity="1" /><path clip-path="url(#clip720)" d="M2107.69 172.208 L2107.69 175.518 L2083.06 175.518 L2083.06 172.208 L2107.69 172.208 Z" fill="#000000" fill-rule="nonzero" fill-opacity="1" /><path clip-path="url(#clip720)" d="M2131.88 143.389 Q2133.48 140.518 2135.7 139.153 Q2137.92 137.787 2140.93 137.787 Q2144.98 137.787 2147.18 140.634 Q2149.38 143.458 2149.38 148.689 L2149.38 164.338 L2145.1 164.338 L2145.1 148.828 Q2145.1 145.102 2143.78 143.296 Q2142.46 141.49 2139.75 141.49 Q2136.44 141.49 2134.52 143.69 Q2132.6 145.889 2132.6 149.685 L2132.6 164.338 L2128.32 164.338 L2128.32 148.828 Q2128.32 145.078 2127 143.296 Q2125.68 141.49 2122.92 141.49 Q2119.66 141.49 2117.74 143.713 Q2115.82 145.912 2115.82 149.685 L2115.82 164.338 L2111.53 164.338 L2111.53 138.412 L2115.82 138.412 L2115.82 142.44 Q2117.27 140.055 2119.31 138.921 Q2121.35 137.787 2124.15 137.787 Q2126.97 137.787 2128.94 139.222 Q2130.93 140.657 2131.88 143.389 Z" fill="#000000" fill-rule="nonzero" fill-opacity="1" /><path clip-path="url(#clip720)" d="M2169.66 151.305 Q2164.5 151.305 2162.51 152.486 Q2160.52 153.666 2160.52 156.514 Q2160.52 158.782 2162 160.125 Q2163.5 161.444 2166.07 161.444 Q2169.61 161.444 2171.74 158.944 Q2173.89 156.421 2173.89 152.254 L2173.89 151.305 L2169.66 151.305 M2178.15 149.546 L2178.15 164.338 L2173.89 164.338 L2173.89 160.402 Q2172.44 162.763 2170.26 163.898 Q2168.08 165.009 2164.94 165.009 Q2160.95 165.009 2158.59 162.787 Q2156.26 160.541 2156.26 156.791 Q2156.26 152.416 2159.17 150.194 Q2162.11 147.972 2167.92 147.972 L2173.89 147.972 L2173.89 147.555 Q2173.89 144.615 2171.95 143.018 Q2170.03 141.398 2166.53 141.398 Q2164.31 141.398 2162.2 141.93 Q2160.1 142.463 2158.15 143.527 L2158.15 139.592 Q2160.49 138.69 2162.69 138.25 Q2164.89 137.787 2166.97 137.787 Q2172.6 137.787 2175.38 140.703 Q2178.15 143.62 2178.15 149.546 Z" fill="#000000" fill-rule="nonzero" fill-opacity="1" /><path clip-path="url(#clip720)" d="M2191.14 131.051 L2191.14 138.412 L2199.91 138.412 L2199.91 141.722 L2191.14 141.722 L2191.14 155.796 Q2191.14 158.967 2192 159.87 Q2192.88 160.773 2195.54 160.773 L2199.91 160.773 L2199.91 164.338 L2195.54 164.338 Q2190.61 164.338 2188.73 162.509 Q2186.86 160.657 2186.86 155.796 L2186.86 141.722 L2183.73 141.722 L2183.73 138.412 L2186.86 138.412 L2186.86 131.051 L2191.14 131.051 Z" fill="#000000" fill-rule="nonzero" fill-opacity="1" /><path clip-path="url(#clip720)" d="M2220.54 142.393 Q2219.82 141.977 2218.96 141.791 Q2218.13 141.583 2217.11 141.583 Q2213.5 141.583 2211.56 143.944 Q2209.64 146.282 2209.64 150.68 L2209.64 164.338 L2205.35 164.338 L2205.35 138.412 L2209.64 138.412 L2209.64 142.44 Q2210.98 140.078 2213.13 138.944 Q2215.28 137.787 2218.36 137.787 Q2218.8 137.787 2219.33 137.856 Q2219.87 137.903 2220.51 138.018 L2220.54 142.393 Z" fill="#000000" fill-rule="nonzero" fill-opacity="1" /><path clip-path="url(#clip720)" d="M2225.01 138.412 L2229.26 138.412 L2229.26 164.338 L2225.01 164.338 L2225.01 138.412 M2225.01 128.319 L2229.26 128.319 L2229.26 133.713 L2225.01 133.713 L2225.01 128.319 Z" fill="#000000" fill-rule="nonzero" fill-opacity="1" /><path clip-path="url(#clip720)" d="M2259.73 138.412 L2250.35 151.027 L2260.21 164.338 L2255.19 164.338 L2247.64 154.152 L2240.1 164.338 L2235.07 164.338 L2245.14 150.773 L2235.93 138.412 L2240.95 138.412 L2247.83 147.648 L2254.7 138.412 L2259.73 138.412 Z" fill="#000000" fill-rule="nonzero" fill-opacity="1" /><polyline clip-path="url(#clip720)" style="stroke:#ff0000; stroke-linecap:round; stroke-linejoin:round; stroke-width:4; stroke-opacity:1; fill:none" stroke-dasharray="16, 10" points="2012.55,198.898 2049.97,198.898 "/>
<path clip-path="url(#clip720)" d="M2063.83 194.326 L2069.5 210.344 L2077.6 190.252 L2082.11 190.252 L2071.63 216.178 L2071.63 226.039 L2067.37 226.039 L2067.37 216.178 L2060.56 196.826 Q2059.54 193.909 2057.34 193.909 L2056.21 193.909 L2056.21 190.252 L2057.83 190.252 Q2062.39 190.252 2063.83 194.326 Z" fill="#000000" fill-rule="nonzero" fill-opacity="1" /><path clip-path="url(#clip720)" d="M2107.69 224.048 L2107.69 227.358 L2083.06 227.358 L2083.06 224.048 L2107.69 224.048 Z" fill="#000000" fill-rule="nonzero" fill-opacity="1" /><path clip-path="url(#clip720)" d="M2115.82 212.289 L2115.82 226.039 L2111.53 226.039 L2111.53 190.252 L2115.82 190.252 L2115.82 194.187 Q2117.16 191.872 2119.2 190.761 Q2121.26 189.627 2124.1 189.627 Q2128.83 189.627 2131.77 193.377 Q2134.73 197.127 2134.73 203.238 Q2134.73 209.349 2131.77 213.099 Q2128.83 216.849 2124.1 216.849 Q2121.26 216.849 2119.2 215.738 Q2117.16 214.603 2115.82 212.289 M2130.31 203.238 Q2130.31 198.539 2128.36 195.877 Q2126.44 193.192 2123.06 193.192 Q2119.68 193.192 2117.74 195.877 Q2115.82 198.539 2115.82 203.238 Q2115.82 207.937 2117.74 210.622 Q2119.68 213.284 2123.06 213.284 Q2126.44 213.284 2128.36 210.622 Q2130.31 207.937 2130.31 203.238 Z" fill="#000000" fill-rule="nonzero" fill-opacity="1" /><path clip-path="url(#clip720)" d="M2156.81 194.233 Q2156.09 193.817 2155.24 193.631 Q2154.4 193.423 2153.39 193.423 Q2149.77 193.423 2147.83 195.784 Q2145.91 198.122 2145.91 202.52 L2145.91 216.178 L2141.63 216.178 L2141.63 190.252 L2145.91 190.252 L2145.91 194.28 Q2147.25 191.918 2149.4 190.784 Q2151.56 189.627 2154.64 189.627 Q2155.08 189.627 2155.61 189.696 Q2156.14 189.743 2156.79 189.858 L2156.81 194.233 Z" fill="#000000" fill-rule="nonzero" fill-opacity="1" /><path clip-path="url(#clip720)" d="M2182.41 202.15 L2182.41 204.233 L2162.83 204.233 Q2163.11 208.631 2165.47 210.946 Q2167.85 213.238 2172.09 213.238 Q2174.54 213.238 2176.83 212.636 Q2179.15 212.034 2181.42 210.83 L2181.42 214.858 Q2179.13 215.83 2176.72 216.34 Q2174.31 216.849 2171.83 216.849 Q2165.63 216.849 2162 213.238 Q2158.39 209.627 2158.39 203.469 Q2158.39 197.104 2161.81 193.377 Q2165.26 189.627 2171.09 189.627 Q2176.33 189.627 2179.36 193.006 Q2182.41 196.363 2182.41 202.15 M2178.15 200.9 Q2178.11 197.405 2176.19 195.321 Q2174.29 193.238 2171.14 193.238 Q2167.58 193.238 2165.42 195.252 Q2163.29 197.266 2162.97 200.923 L2178.15 200.9 Z" fill="#000000" fill-rule="nonzero" fill-opacity="1" /><path clip-path="url(#clip720)" d="M2206.46 194.187 L2206.46 180.159 L2210.72 180.159 L2210.72 216.178 L2206.46 216.178 L2206.46 212.289 Q2205.12 214.603 2203.06 215.738 Q2201.02 216.849 2198.15 216.849 Q2193.45 216.849 2190.49 213.099 Q2187.55 209.349 2187.55 203.238 Q2187.55 197.127 2190.49 193.377 Q2193.45 189.627 2198.15 189.627 Q2201.02 189.627 2203.06 190.761 Q2205.12 191.872 2206.46 194.187 M2191.95 203.238 Q2191.95 207.937 2193.87 210.622 Q2195.82 213.284 2199.2 213.284 Q2202.58 213.284 2204.52 210.622 Q2206.46 207.937 2206.46 203.238 Q2206.46 198.539 2204.52 195.877 Q2202.58 193.192 2199.2 193.192 Q2195.82 193.192 2193.87 195.877 Q2191.95 198.539 2191.95 203.238 Z" fill="#000000" fill-rule="nonzero" fill-opacity="1" /><path clip-path="url(#clip720)" d="M2219.5 190.252 L2223.76 190.252 L2223.76 216.178 L2219.5 216.178 L2219.5 190.252 M2219.5 180.159 L2223.76 180.159 L2223.76 185.553 L2219.5 185.553 L2219.5 180.159 Z" fill="#000000" fill-rule="nonzero" fill-opacity="1" /><path clip-path="url(#clip720)" d="M2251.32 191.247 L2251.32 195.229 Q2249.52 194.233 2247.69 193.747 Q2245.89 193.238 2244.03 193.238 Q2239.89 193.238 2237.6 195.877 Q2235.31 198.492 2235.31 203.238 Q2235.31 207.983 2237.6 210.622 Q2239.89 213.238 2244.03 213.238 Q2245.89 213.238 2247.69 212.752 Q2249.52 212.242 2251.32 211.247 L2251.32 215.182 Q2249.54 216.016 2247.62 216.432 Q2245.72 216.849 2243.57 216.849 Q2237.71 216.849 2234.26 213.168 Q2230.82 209.488 2230.82 203.238 Q2230.82 196.895 2234.29 193.261 Q2237.78 189.627 2243.85 189.627 Q2245.82 189.627 2247.69 190.043 Q2249.57 190.437 2251.32 191.247 Z" fill="#000000" fill-rule="nonzero" fill-opacity="1" /><path clip-path="url(#clip720)" d="M2262.95 182.891 L2262.95 190.252 L2271.72 190.252 L2271.72 193.562 L2262.95 193.562 L2262.95 207.636 Q2262.95 210.807 2263.8 211.71 Q2264.68 212.613 2267.34 212.613 L2271.72 212.613 L2271.72 216.178 L2267.34 216.178 Q2262.41 216.178 2260.54 214.349 Q2258.66 212.497 2258.66 207.636 L2258.66 193.562 L2255.54 193.562 L2255.54 190.252 L2258.66 190.252 L2258.66 182.891 L2262.95 182.891 Z" fill="#000000" fill-rule="nonzero" fill-opacity="1" /><path clip-path="url(#clip720)" d="M2299.5 202.15 L2299.5 204.233 L2279.91 204.233 Q2280.19 208.631 2282.55 210.946 Q2284.94 213.238 2289.17 213.238 Q2291.63 213.238 2293.92 212.636 Q2296.23 212.034 2298.5 210.83 L2298.5 214.858 Q2296.21 215.83 2293.8 216.34 Q2291.39 216.849 2288.92 216.849 Q2282.71 216.849 2279.08 213.238 Q2275.47 209.627 2275.47 203.469 Q2275.47 197.104 2278.89 193.377 Q2282.34 189.627 2288.18 189.627 Q2293.41 189.627 2296.44 193.006 Q2299.5 196.363 2299.5 202.15 M2295.24 200.9 Q2295.19 197.405 2293.27 195.321 Q2291.37 193.238 2288.22 193.238 Q2284.66 193.238 2282.51 195.252 Q2280.38 197.266 2280.05 200.923 L2295.24 200.9 Z" fill="#000000" fill-rule="nonzero" fill-opacity="1" /><path clip-path="url(#clip720)" d="M2323.55 194.187 L2323.55 180.159 L2327.81 180.159 L2327.81 216.178 L2323.55 216.178 L2323.55 212.289 Q2322.2 214.603 2320.14 215.738 Q2318.11 216.849 2315.24 216.849 Q2310.54 216.849 2307.57 213.099 Q2304.63 209.349 2304.63 203.238 Q2304.63 197.127 2307.57 193.377 Q2310.54 189.627 2315.24 189.627 Q2318.11 189.627 2320.14 190.761 Q2322.2 191.872 2323.55 194.187 M2309.03 203.238 Q2309.03 207.937 2310.95 210.622 Q2312.9 213.284 2316.28 213.284 Q2319.66 213.284 2321.6 210.622 Q2323.55 207.937 2323.55 203.238 Q2323.55 198.539 2321.6 195.877 Q2319.66 193.192 2316.28 193.192 Q2312.9 193.192 2310.95 195.877 Q2309.03 198.539 2309.03 203.238 Z" fill="#000000" fill-rule="nonzero" fill-opacity="1" /></svg>
