<?xml version="1.0" encoding="utf-8"?>
<svg xmlns="http://www.w3.org/2000/svg" xmlns:xlink="http://www.w3.org/1999/xlink" width="600" height="400" viewBox="0 0 2400 1600">
<defs>
  <clipPath id="clip320">
    <rect x="0" y="0" width="2400" height="1600"/>
  </clipPath>
</defs>
<path clip-path="url(#clip320)" d="M0 1600 L2400 1600 L2400 0 L0 0  Z" fill="#ffffff" fill-rule="evenodd" fill-opacity="1"/>
<defs>
  <clipPath id="clip321">
    <rect x="480" y="0" width="1681" height="1600"/>
  </clipPath>
</defs>
<path clip-path="url(#clip320)" d="M147.478 1486.45 L739.824 1486.45 L739.824 47.2441 L147.478 47.2441  Z" fill="#ffffff" fill-rule="evenodd" fill-opacity="1"/>
<defs>
  <clipPath id="clip322">
    <rect x="147" y="47" width="593" height="1440"/>
  </clipPath>
</defs>
<polyline clip-path="url(#clip322)" style="stroke:#000000; stroke-linecap:round; stroke-linejoin:round; stroke-width:2; stroke-opacity:0.1; fill:none" points="164.242,1486.45 164.242,47.2441 "/>
<polyline clip-path="url(#clip322)" style="stroke:#000000; stroke-linecap:round; stroke-linejoin:round; stroke-width:2; stroke-opacity:0.1; fill:none" points="253.181,1486.45 253.181,47.2441 "/>
<polyline clip-path="url(#clip322)" style="stroke:#000000; stroke-linecap:round; stroke-linejoin:round; stroke-width:2; stroke-opacity:0.1; fill:none" points="342.119,1486.45 342.119,47.2441 "/>
<polyline clip-path="url(#clip322)" style="stroke:#000000; stroke-linecap:round; stroke-linejoin:round; stroke-width:2; stroke-opacity:0.1; fill:none" points="431.058,1486.45 431.058,47.2441 "/>
<polyline clip-path="url(#clip322)" style="stroke:#000000; stroke-linecap:round; stroke-linejoin:round; stroke-width:2; stroke-opacity:0.1; fill:none" points="519.996,1486.45 519.996,47.2441 "/>
<polyline clip-path="url(#clip322)" style="stroke:#000000; stroke-linecap:round; stroke-linejoin:round; stroke-width:2; stroke-opacity:0.1; fill:none" points="608.935,1486.45 608.935,47.2441 "/>
<polyline clip-path="url(#clip322)" style="stroke:#000000; stroke-linecap:round; stroke-linejoin:round; stroke-width:2; stroke-opacity:0.1; fill:none" points="697.873,1486.45 697.873,47.2441 "/>
<polyline clip-path="url(#clip320)" style="stroke:#000000; stroke-linecap:round; stroke-linejoin:round; stroke-width:4; stroke-opacity:1; fill:none" points="147.478,1486.45 739.824,1486.45 "/>
<polyline clip-path="url(#clip320)" style="stroke:#000000; stroke-linecap:round; stroke-linejoin:round; stroke-width:4; stroke-opacity:1; fill:none" points="164.242,1486.45 164.242,1467.55 "/>
<polyline clip-path="url(#clip320)" style="stroke:#000000; stroke-linecap:round; stroke-linejoin:round; stroke-width:4; stroke-opacity:1; fill:none" points="253.181,1486.45 253.181,1467.55 "/>
<polyline clip-path="url(#clip320)" style="stroke:#000000; stroke-linecap:round; stroke-linejoin:round; stroke-width:4; stroke-opacity:1; fill:none" points="342.119,1486.45 342.119,1467.55 "/>
<polyline clip-path="url(#clip320)" style="stroke:#000000; stroke-linecap:round; stroke-linejoin:round; stroke-width:4; stroke-opacity:1; fill:none" points="431.058,1486.45 431.058,1467.55 "/>
<polyline clip-path="url(#clip320)" style="stroke:#000000; stroke-linecap:round; stroke-linejoin:round; stroke-width:4; stroke-opacity:1; fill:none" points="519.996,1486.45 519.996,1467.55 "/>
<polyline clip-path="url(#clip320)" style="stroke:#000000; stroke-linecap:round; stroke-linejoin:round; stroke-width:4; stroke-opacity:1; fill:none" points="608.935,1486.45 608.935,1467.55 "/>
<polyline clip-path="url(#clip320)" style="stroke:#000000; stroke-linecap:round; stroke-linejoin:round; stroke-width:4; stroke-opacity:1; fill:none" points="697.873,1486.45 697.873,1467.55 "/>
<path clip-path="url(#clip320)" d="M164.242 1517.37 Q160.631 1517.37 158.803 1520.93 Q156.997 1524.47 156.997 1531.6 Q156.997 1538.71 158.803 1542.27 Q160.631 1545.82 164.242 1545.82 Q167.877 1545.82 169.682 1542.27 Q171.511 1538.71 171.511 1531.6 Q171.511 1524.47 169.682 1520.93 Q167.877 1517.37 164.242 1517.37 M164.242 1513.66 Q170.053 1513.66 173.108 1518.27 Q176.187 1522.85 176.187 1531.6 Q176.187 1540.33 173.108 1544.94 Q170.053 1549.52 164.242 1549.52 Q158.432 1549.52 155.354 1544.94 Q152.298 1540.33 152.298 1531.6 Q152.298 1522.85 155.354 1518.27 Q158.432 1513.66 164.242 1513.66 Z" fill="#000000" fill-rule="nonzero" fill-opacity="1" /><path clip-path="url(#clip320)" d="M243.563 1544.91 L251.202 1544.91 L251.202 1518.55 L242.892 1520.21 L242.892 1515.95 L251.155 1514.29 L255.831 1514.29 L255.831 1544.91 L263.47 1544.91 L263.47 1548.85 L243.563 1548.85 L243.563 1544.91 Z" fill="#000000" fill-rule="nonzero" fill-opacity="1" /><path clip-path="url(#clip320)" d="M336.772 1544.91 L353.092 1544.91 L353.092 1548.85 L331.147 1548.85 L331.147 1544.91 Q333.809 1542.16 338.393 1537.53 Q342.999 1532.88 344.18 1531.53 Q346.425 1529.01 347.305 1527.27 Q348.207 1525.51 348.207 1523.82 Q348.207 1521.07 346.263 1519.33 Q344.342 1517.6 341.24 1517.6 Q339.041 1517.6 336.587 1518.36 Q334.156 1519.13 331.379 1520.68 L331.379 1515.95 Q334.203 1514.82 336.656 1514.24 Q339.11 1513.66 341.147 1513.66 Q346.518 1513.66 349.712 1516.35 Q352.906 1519.03 352.906 1523.52 Q352.906 1525.65 352.096 1527.57 Q351.309 1529.47 349.203 1532.07 Q348.624 1532.74 345.522 1535.95 Q342.42 1539.15 336.772 1544.91 Z" fill="#000000" fill-rule="nonzero" fill-opacity="1" /><path clip-path="url(#clip320)" d="M435.306 1530.21 Q438.662 1530.93 440.537 1533.2 Q442.435 1535.47 442.435 1538.8 Q442.435 1543.92 438.917 1546.72 Q435.398 1549.52 428.917 1549.52 Q426.741 1549.52 424.426 1549.08 Q422.134 1548.66 419.681 1547.81 L419.681 1543.29 Q421.625 1544.43 423.94 1545.01 Q426.255 1545.58 428.778 1545.58 Q433.176 1545.58 435.468 1543.85 Q437.782 1542.11 437.782 1538.8 Q437.782 1535.75 435.63 1534.03 Q433.5 1532.3 429.681 1532.3 L425.653 1532.3 L425.653 1528.45 L429.866 1528.45 Q433.315 1528.45 435.143 1527.09 Q436.972 1525.7 436.972 1523.11 Q436.972 1520.45 435.074 1519.03 Q433.199 1517.6 429.681 1517.6 Q427.759 1517.6 425.56 1518.01 Q423.361 1518.43 420.722 1519.31 L420.722 1515.14 Q423.384 1514.4 425.699 1514.03 Q428.037 1513.66 430.097 1513.66 Q435.421 1513.66 438.523 1516.09 Q441.625 1518.5 441.625 1522.62 Q441.625 1525.49 439.981 1527.48 Q438.338 1529.45 435.306 1530.21 Z" fill="#000000" fill-rule="nonzero" fill-opacity="1" /><path clip-path="url(#clip320)" d="M523.006 1518.36 L511.2 1536.81 L523.006 1536.81 L523.006 1518.36 M521.779 1514.29 L527.658 1514.29 L527.658 1536.81 L532.589 1536.81 L532.589 1540.7 L527.658 1540.7 L527.658 1548.85 L523.006 1548.85 L523.006 1540.7 L507.404 1540.7 L507.404 1536.19 L521.779 1514.29 Z" fill="#000000" fill-rule="nonzero" fill-opacity="1" /><path clip-path="url(#clip320)" d="M599.213 1514.29 L617.569 1514.29 L617.569 1518.22 L603.495 1518.22 L603.495 1526.7 Q604.514 1526.35 605.532 1526.19 Q606.551 1526 607.569 1526 Q613.356 1526 616.736 1529.17 Q620.115 1532.34 620.115 1537.76 Q620.115 1543.34 616.643 1546.44 Q613.171 1549.52 606.851 1549.52 Q604.676 1549.52 602.407 1549.15 Q600.162 1548.78 597.754 1548.04 L597.754 1543.34 Q599.838 1544.47 602.06 1545.03 Q604.282 1545.58 606.759 1545.58 Q610.764 1545.58 613.101 1543.48 Q615.439 1541.37 615.439 1537.76 Q615.439 1534.15 613.101 1532.04 Q610.764 1529.94 606.759 1529.94 Q604.884 1529.94 603.009 1530.35 Q601.157 1530.77 599.213 1531.65 L599.213 1514.29 Z" fill="#000000" fill-rule="nonzero" fill-opacity="1" /><path clip-path="url(#clip320)" d="M698.278 1529.7 Q695.13 1529.7 693.278 1531.86 Q691.45 1534.01 691.45 1537.76 Q691.45 1541.49 693.278 1543.66 Q695.13 1545.82 698.278 1545.82 Q701.427 1545.82 703.255 1543.66 Q705.107 1541.49 705.107 1537.76 Q705.107 1534.01 703.255 1531.86 Q701.427 1529.7 698.278 1529.7 M707.561 1515.05 L707.561 1519.31 Q705.801 1518.48 703.996 1518.04 Q702.214 1517.6 700.454 1517.6 Q695.825 1517.6 693.371 1520.72 Q690.94 1523.85 690.593 1530.17 Q691.959 1528.15 694.019 1527.09 Q696.079 1526 698.556 1526 Q703.764 1526 706.774 1529.17 Q709.806 1532.32 709.806 1537.76 Q709.806 1543.08 706.658 1546.3 Q703.51 1549.52 698.278 1549.52 Q692.283 1549.52 689.112 1544.94 Q685.94 1540.33 685.94 1531.6 Q685.94 1523.41 689.829 1518.55 Q693.718 1513.66 700.269 1513.66 Q702.028 1513.66 703.811 1514.01 Q705.616 1514.36 707.561 1515.05 Z" fill="#000000" fill-rule="nonzero" fill-opacity="1" /><polyline clip-path="url(#clip322)" style="stroke:#000000; stroke-linecap:round; stroke-linejoin:round; stroke-width:2; stroke-opacity:0.1; fill:none" points="147.478,1310.75 739.824,1310.75 "/>
<polyline clip-path="url(#clip322)" style="stroke:#000000; stroke-linecap:round; stroke-linejoin:round; stroke-width:2; stroke-opacity:0.1; fill:none" points="147.478,895.835 739.824,895.835 "/>
<polyline clip-path="url(#clip322)" style="stroke:#000000; stroke-linecap:round; stroke-linejoin:round; stroke-width:2; stroke-opacity:0.1; fill:none" points="147.478,480.926 739.824,480.926 "/>
<polyline clip-path="url(#clip322)" style="stroke:#000000; stroke-linecap:round; stroke-linejoin:round; stroke-width:2; stroke-opacity:0.1; fill:none" points="147.478,66.0162 739.824,66.0162 "/>
<polyline clip-path="url(#clip320)" style="stroke:#000000; stroke-linecap:round; stroke-linejoin:round; stroke-width:4; stroke-opacity:1; fill:none" points="147.478,1486.45 147.478,47.2441 "/>
<polyline clip-path="url(#clip320)" style="stroke:#000000; stroke-linecap:round; stroke-linejoin:round; stroke-width:4; stroke-opacity:1; fill:none" points="147.478,1310.75 166.376,1310.75 "/>
<polyline clip-path="url(#clip320)" style="stroke:#000000; stroke-linecap:round; stroke-linejoin:round; stroke-width:4; stroke-opacity:1; fill:none" points="147.478,895.835 166.376,895.835 "/>
<polyline clip-path="url(#clip320)" style="stroke:#000000; stroke-linecap:round; stroke-linejoin:round; stroke-width:4; stroke-opacity:1; fill:none" points="147.478,480.926 166.376,480.926 "/>
<polyline clip-path="url(#clip320)" style="stroke:#000000; stroke-linecap:round; stroke-linejoin:round; stroke-width:4; stroke-opacity:1; fill:none" points="147.478,66.0162 166.376,66.0162 "/>
<path clip-path="url(#clip320)" d="M50.9921 1311.2 L80.6679 1311.2 L80.6679 1315.13 L50.9921 1315.13 L50.9921 1311.2 Z" fill="#000000" fill-rule="nonzero" fill-opacity="1" /><path clip-path="url(#clip320)" d="M91.5706 1324.09 L99.2095 1324.09 L99.2095 1297.72 L90.8993 1299.39 L90.8993 1295.13 L99.1632 1293.47 L103.839 1293.47 L103.839 1324.09 L111.478 1324.09 L111.478 1328.03 L91.5706 1328.03 L91.5706 1324.09 Z" fill="#000000" fill-rule="nonzero" fill-opacity="1" /><path clip-path="url(#clip320)" d="M99.5335 881.634 Q95.9224 881.634 94.0937 885.199 Q92.2882 888.741 92.2882 895.87 Q92.2882 902.977 94.0937 906.541 Q95.9224 910.083 99.5335 910.083 Q103.168 910.083 104.973 906.541 Q106.802 902.977 106.802 895.87 Q106.802 888.741 104.973 885.199 Q103.168 881.634 99.5335 881.634 M99.5335 877.93 Q105.344 877.93 108.399 882.537 Q111.478 887.12 111.478 895.87 Q111.478 904.597 108.399 909.203 Q105.344 913.787 99.5335 913.787 Q93.7234 913.787 90.6447 909.203 Q87.5892 904.597 87.5892 895.87 Q87.5892 887.12 90.6447 882.537 Q93.7234 877.93 99.5335 877.93 Z" fill="#000000" fill-rule="nonzero" fill-opacity="1" /><path clip-path="url(#clip320)" d="M91.5706 494.271 L99.2095 494.271 L99.2095 467.905 L90.8993 469.572 L90.8993 465.313 L99.1632 463.646 L103.839 463.646 L103.839 494.271 L111.478 494.271 L111.478 498.206 L91.5706 498.206 L91.5706 494.271 Z" fill="#000000" fill-rule="nonzero" fill-opacity="1" /><path clip-path="url(#clip320)" d="M95.1586 79.3611 L111.478 79.3611 L111.478 83.2962 L89.5336 83.2962 L89.5336 79.3611 Q92.1956 76.6065 96.7789 71.9768 Q101.385 67.3241 102.566 65.9815 Q104.811 63.4584 105.691 61.7223 Q106.594 59.963 106.594 58.2732 Q106.594 55.5186 104.649 53.7825 Q102.728 52.0464 99.6261 52.0464 Q97.4271 52.0464 94.9734 52.8103 Q92.5428 53.5742 89.7651 55.1251 L89.7651 50.4029 Q92.5891 49.2686 95.0428 48.6899 Q97.4965 48.1112 99.5335 48.1112 Q104.904 48.1112 108.098 50.7964 Q111.293 53.4816 111.293 57.9723 Q111.293 60.1019 110.483 62.0232 Q109.696 63.9213 107.589 66.5139 Q107.01 67.1852 103.909 70.4028 Q100.807 73.5972 95.1586 79.3611 Z" fill="#000000" fill-rule="nonzero" fill-opacity="1" /><polyline clip-path="url(#clip322)" style="stroke:#0000ff; stroke-linecap:round; stroke-linejoin:round; stroke-width:4; stroke-opacity:1; fill:none" points="164.242,480.926 169.887,481.761 175.532,484.264 181.176,488.424 186.821,494.224 192.465,501.642 198.11,510.647 203.755,521.203 209.399,533.267 215.044,546.791 220.689,561.721 226.333,577.996 231.978,595.551 237.622,614.315 243.267,634.213 248.912,655.164 254.556,677.085 260.201,699.886 265.846,723.476 271.49,747.76 277.135,772.64 282.779,798.017 288.424,823.787 294.069,849.848 299.713,876.093 305.358,902.418 311.002,928.717 316.647,954.883 322.292,980.812 327.936,1006.4 333.581,1031.54 339.226,1056.13 344.87,1080.08 350.515,1103.29 356.159,1125.66 361.804,1147.11 367.449,1167.54 373.093,1186.88 378.738,1205.05 384.382,1221.98 390.027,1237.59 395.672,1251.82 401.316,1264.62 406.961,1275.94 412.606,1285.72 418.25,1293.94 423.895,1300.55 429.539,1305.53 435.184,1308.87 440.829,1310.54 446.473,1310.54 452.118,1308.87 457.762,1305.53 463.407,1300.55 469.052,1293.94 474.696,1285.72 480.341,1275.94 485.986,1264.62 491.63,1251.82 497.275,1237.59 502.919,1221.98 508.564,1205.05 514.209,1186.88 519.853,1167.54 525.498,1147.11 531.142,1125.66 536.787,1103.29 542.432,1080.08 548.076,1056.13 553.721,1031.54 559.366,1006.4 565.01,980.812 570.655,954.883 576.299,928.717 581.944,902.418 587.589,876.093 593.233,849.848 598.878,823.787 604.522,798.017 610.167,772.64 615.812,747.76 621.456,723.476 627.101,699.886 632.746,677.085 638.39,655.164 644.035,634.213 649.679,614.315 655.324,595.551 660.969,577.996 666.613,561.721 672.258,546.791 677.902,533.267 683.547,521.203 689.192,510.647 694.836,501.642 700.481,494.224 706.126,488.424 711.77,484.264 717.415,481.761 723.059,480.926 "/>
<polyline clip-path="url(#clip322)" style="stroke:#ff0000; stroke-linecap:round; stroke-linejoin:round; stroke-width:4; stroke-opacity:1; fill:none" stroke-dasharray="16, 10" points="164.242,87.9763 169.887,103.957 175.532,124.863 181.176,150.327 186.821,179.977 192.465,213.444 198.11,250.36 203.755,290.354 209.399,333.057 215.044,378.099 220.689,425.112 226.333,473.724 231.978,523.568 237.622,574.272 243.267,625.469 248.912,676.788 254.556,727.859 260.201,778.314 265.846,827.782 271.49,875.895 277.135,922.282 282.779,966.574 288.424,1008.4 294.069,1047.4 299.713,1083.19 305.358,1115.41 311.002,1143.86 316.647,1168.73 322.292,1190.19 327.936,1208.46 333.581,1223.74 339.226,1236.23 344.87,1246.13 350.515,1253.64 356.159,1258.97 361.804,1262.31 367.449,1263.87 373.093,1263.85 378.738,1262.46 384.382,1259.88 390.027,1256.33 395.672,1252.01 401.316,1247.12 406.961,1241.86 412.606,1236.43 418.25,1231.04 423.895,1225.88 429.539,1221.16 435.184,1217.08 440.829,1213.84 446.473,1211.63 452.118,1210.44 457.762,1210.04 463.407,1210.17 469.052,1210.6 474.696,1211.09 480.341,1211.39 485.986,1211.27 491.63,1210.48 497.275,1208.78 502.919,1205.94 508.564,1201.7 514.209,1195.83 519.853,1188.08 525.498,1178.22 531.142,1166 536.787,1151.19 542.432,1133.53 548.076,1112.79 553.721,1088.72 559.366,1061.1 565.01,1029.66 570.655,994.18 576.299,954.409 581.944,910.106 587.589,861.138 593.233,808.294 598.878,752.842 604.522,696.053 610.167,639.198 615.812,583.548 621.456,530.374 627.101,480.947 632.746,436.539 638.39,398.42 644.035,367.861 649.679,346.135 655.324,334.511 660.969,334.26 666.613,346.655 672.258,372.966 677.902,414.464 683.547,472.42 689.192,548.106 694.836,642.791 700.481,757.749 706.126,894.249 711.77,1053.56 717.415,1236.96 723.059,1445.72 "/>
<path clip-path="url(#clip320)" d="M167.223 1438.47 L498.053 1438.47 L498.053 1282.95 L167.223 1282.95  Z" fill="#ffffff" fill-rule="evenodd" fill-opacity="1"/>
<polyline clip-path="url(#clip320)" style="stroke:#000000; stroke-linecap:round; stroke-linejoin:round; stroke-width:4; stroke-opacity:1; fill:none" points="167.223,1438.47 498.053,1438.47 498.053,1282.95 167.223,1282.95 167.223,1438.47 "/>
<polyline clip-path="url(#clip320)" style="stroke:#0000ff; stroke-linecap:round; stroke-linejoin:round; stroke-width:4; stroke-opacity:1; fill:none" points="173.804,1334.79 213.294,1334.79 "/>
<path clip-path="url(#clip320)" d="M227.491 1330.22 L233.163 1346.24 L241.265 1326.15 L245.778 1326.15 L235.292 1352.07 L235.292 1361.94 L231.033 1361.94 L231.033 1352.07 L224.228 1332.72 Q223.209 1329.81 221.01 1329.81 L219.876 1329.81 L219.876 1326.15 L221.496 1326.15 Q226.056 1326.15 227.491 1330.22 Z" fill="#000000" fill-rule="nonzero" fill-opacity="1" /><path clip-path="url(#clip320)" d="M271.357 1359.94 L271.357 1363.25 L246.727 1363.25 L246.727 1359.94 L271.357 1359.94 Z" fill="#000000" fill-rule="nonzero" fill-opacity="1" /><path clip-path="url(#clip320)" d="M295.547 1331.13 Q297.144 1328.26 299.366 1326.89 Q301.588 1325.52 304.598 1325.52 Q308.648 1325.52 310.847 1328.37 Q313.047 1331.19 313.047 1336.43 L313.047 1352.07 L308.764 1352.07 L308.764 1336.57 Q308.764 1332.84 307.445 1331.03 Q306.125 1329.23 303.417 1329.23 Q300.107 1329.23 298.186 1331.43 Q296.264 1333.63 296.264 1337.42 L296.264 1352.07 L291.982 1352.07 L291.982 1336.57 Q291.982 1332.82 290.662 1331.03 Q289.343 1329.23 286.588 1329.23 Q283.324 1329.23 281.403 1331.45 Q279.482 1333.65 279.482 1337.42 L279.482 1352.07 L275.2 1352.07 L275.2 1326.15 L279.482 1326.15 L279.482 1330.18 Q280.94 1327.79 282.977 1326.66 Q285.014 1325.52 287.815 1325.52 Q290.639 1325.52 292.607 1326.96 Q294.598 1328.39 295.547 1331.13 Z" fill="#000000" fill-rule="nonzero" fill-opacity="1" /><path clip-path="url(#clip320)" d="M333.324 1339.04 Q328.162 1339.04 326.171 1340.22 Q324.181 1341.4 324.181 1344.25 Q324.181 1346.52 325.662 1347.86 Q327.167 1349.18 329.736 1349.18 Q333.278 1349.18 335.408 1346.68 Q337.56 1344.16 337.56 1339.99 L337.56 1339.04 L333.324 1339.04 M341.82 1337.28 L341.82 1352.07 L337.56 1352.07 L337.56 1348.14 Q336.102 1350.5 333.926 1351.63 Q331.75 1352.75 328.602 1352.75 Q324.621 1352.75 322.259 1350.52 Q319.922 1348.28 319.922 1344.53 Q319.922 1340.15 322.838 1337.93 Q325.778 1335.71 331.588 1335.71 L337.56 1335.71 L337.56 1335.29 Q337.56 1332.35 335.616 1330.76 Q333.695 1329.13 330.199 1329.13 Q327.977 1329.13 325.871 1329.67 Q323.764 1330.2 321.82 1331.26 L321.82 1327.33 Q324.158 1326.43 326.357 1325.99 Q328.556 1325.52 330.639 1325.52 Q336.264 1325.52 339.042 1328.44 Q341.82 1331.36 341.82 1337.28 Z" fill="#000000" fill-rule="nonzero" fill-opacity="1" /><path clip-path="url(#clip320)" d="M354.806 1318.79 L354.806 1326.15 L363.579 1326.15 L363.579 1329.46 L354.806 1329.46 L354.806 1343.53 Q354.806 1346.7 355.662 1347.61 Q356.542 1348.51 359.204 1348.51 L363.579 1348.51 L363.579 1352.07 L359.204 1352.07 Q354.273 1352.07 352.398 1350.25 Q350.523 1348.39 350.523 1343.53 L350.523 1329.46 L347.398 1329.46 L347.398 1326.15 L350.523 1326.15 L350.523 1318.79 L354.806 1318.79 Z" fill="#000000" fill-rule="nonzero" fill-opacity="1" /><path clip-path="url(#clip320)" d="M384.204 1330.13 Q383.486 1329.71 382.63 1329.53 Q381.796 1329.32 380.778 1329.32 Q377.167 1329.32 375.222 1331.68 Q373.301 1334.02 373.301 1338.42 L373.301 1352.07 L369.018 1352.07 L369.018 1326.15 L373.301 1326.15 L373.301 1330.18 Q374.643 1327.82 376.796 1326.68 Q378.949 1325.52 382.028 1325.52 Q382.467 1325.52 383 1325.59 Q383.532 1325.64 384.18 1325.76 L384.204 1330.13 Z" fill="#000000" fill-rule="nonzero" fill-opacity="1" /><path clip-path="url(#clip320)" d="M388.671 1326.15 L392.93 1326.15 L392.93 1352.07 L388.671 1352.07 L388.671 1326.15 M388.671 1316.06 L392.93 1316.06 L392.93 1321.45 L388.671 1321.45 L388.671 1316.06 Z" fill="#000000" fill-rule="nonzero" fill-opacity="1" /><path clip-path="url(#clip320)" d="M423.393 1326.15 L414.018 1338.76 L423.879 1352.07 L418.856 1352.07 L411.31 1341.89 L403.764 1352.07 L398.741 1352.07 L408.81 1338.51 L399.597 1326.15 L404.62 1326.15 L411.495 1335.38 L418.37 1326.15 L423.393 1326.15 Z" fill="#000000" fill-rule="nonzero" fill-opacity="1" /><polyline clip-path="url(#clip320)" style="stroke:#ff0000; stroke-linecap:round; stroke-linejoin:round; stroke-width:4; stroke-opacity:1; fill:none" stroke-dasharray="16, 10" points="173.804,1386.63 213.294,1386.63 "/>
<path clip-path="url(#clip320)" d="M227.491 1382.06 L233.163 1398.08 L241.265 1377.99 L245.778 1377.99 L235.292 1403.91 L235.292 1413.78 L231.033 1413.78 L231.033 1403.91 L224.228 1384.56 Q223.209 1381.65 221.01 1381.65 L219.876 1381.65 L219.876 1377.99 L221.496 1377.99 Q226.056 1377.99 227.491 1382.06 Z" fill="#000000" fill-rule="nonzero" fill-opacity="1" /><path clip-path="url(#clip320)" d="M271.357 1411.78 L271.357 1415.09 L246.727 1415.09 L246.727 1411.78 L271.357 1411.78 Z" fill="#000000" fill-rule="nonzero" fill-opacity="1" /><path clip-path="url(#clip320)" d="M279.482 1400.03 L279.482 1413.78 L275.2 1413.78 L275.2 1377.99 L279.482 1377.99 L279.482 1381.92 Q280.825 1379.61 282.862 1378.5 Q284.922 1377.36 287.769 1377.36 Q292.491 1377.36 295.431 1381.11 Q298.394 1384.86 298.394 1390.97 Q298.394 1397.09 295.431 1400.84 Q292.491 1404.59 287.769 1404.59 Q284.922 1404.59 282.862 1403.47 Q280.825 1402.34 279.482 1400.03 M293.973 1390.97 Q293.973 1386.28 292.028 1383.61 Q290.107 1380.93 286.727 1380.93 Q283.348 1380.93 281.403 1383.61 Q279.482 1386.28 279.482 1390.97 Q279.482 1395.67 281.403 1398.36 Q283.348 1401.02 286.727 1401.02 Q290.107 1401.02 292.028 1398.36 Q293.973 1395.67 293.973 1390.97 Z" fill="#000000" fill-rule="nonzero" fill-opacity="1" /><path clip-path="url(#clip320)" d="M320.477 1381.97 Q319.759 1381.55 318.903 1381.37 Q318.07 1381.16 317.051 1381.16 Q313.44 1381.16 311.496 1383.52 Q309.574 1385.86 309.574 1390.26 L309.574 1403.91 L305.292 1403.91 L305.292 1377.99 L309.574 1377.99 L309.574 1382.02 Q310.917 1379.66 313.07 1378.52 Q315.222 1377.36 318.301 1377.36 Q318.741 1377.36 319.273 1377.43 Q319.806 1377.48 320.454 1377.6 L320.477 1381.97 Z" fill="#000000" fill-rule="nonzero" fill-opacity="1" /><path clip-path="url(#clip320)" d="M346.079 1389.89 L346.079 1391.97 L326.496 1391.97 Q326.773 1396.37 329.134 1398.68 Q331.519 1400.97 335.755 1400.97 Q338.208 1400.97 340.5 1400.37 Q342.815 1399.77 345.083 1398.57 L345.083 1402.59 Q342.792 1403.57 340.384 1404.08 Q337.977 1404.59 335.5 1404.59 Q329.296 1404.59 325.662 1400.97 Q322.051 1397.36 322.051 1391.21 Q322.051 1384.84 325.477 1381.11 Q328.926 1377.36 334.759 1377.36 Q339.991 1377.36 343.023 1380.74 Q346.079 1384.1 346.079 1389.89 M341.82 1388.64 Q341.773 1385.14 339.852 1383.06 Q337.954 1380.97 334.806 1380.97 Q331.241 1380.97 329.088 1382.99 Q326.959 1385 326.634 1388.66 L341.82 1388.64 Z" fill="#000000" fill-rule="nonzero" fill-opacity="1" /><path clip-path="url(#clip320)" d="M370.13 1381.92 L370.13 1367.9 L374.389 1367.9 L374.389 1403.91 L370.13 1403.91 L370.13 1400.03 Q368.787 1402.34 366.727 1403.47 Q364.69 1404.59 361.819 1404.59 Q357.12 1404.59 354.157 1400.84 Q351.218 1397.09 351.218 1390.97 Q351.218 1384.86 354.157 1381.11 Q357.12 1377.36 361.819 1377.36 Q364.69 1377.36 366.727 1378.5 Q368.787 1379.61 370.13 1381.92 M355.616 1390.97 Q355.616 1395.67 357.537 1398.36 Q359.481 1401.02 362.861 1401.02 Q366.241 1401.02 368.185 1398.36 Q370.13 1395.67 370.13 1390.97 Q370.13 1386.28 368.185 1383.61 Q366.241 1380.93 362.861 1380.93 Q359.481 1380.93 357.537 1383.61 Q355.616 1386.28 355.616 1390.97 Z" fill="#000000" fill-rule="nonzero" fill-opacity="1" /><path clip-path="url(#clip320)" d="M383.162 1377.99 L387.421 1377.99 L387.421 1403.91 L383.162 1403.91 L383.162 1377.99 M383.162 1367.9 L387.421 1367.9 L387.421 1373.29 L383.162 1373.29 L383.162 1367.9 Z" fill="#000000" fill-rule="nonzero" fill-opacity="1" /><path clip-path="url(#clip320)" d="M414.99 1378.98 L414.99 1382.97 Q413.185 1381.97 411.356 1381.48 Q409.551 1380.97 407.699 1380.97 Q403.555 1380.97 401.264 1383.61 Q398.972 1386.23 398.972 1390.97 Q398.972 1395.72 401.264 1398.36 Q403.555 1400.97 407.699 1400.97 Q409.551 1400.97 411.356 1400.49 Q413.185 1399.98 414.99 1398.98 L414.99 1402.92 Q413.208 1403.75 411.287 1404.17 Q409.389 1404.59 407.236 1404.59 Q401.379 1404.59 397.93 1400.91 Q394.481 1397.22 394.481 1390.97 Q394.481 1384.63 397.954 1381 Q401.449 1377.36 407.514 1377.36 Q409.481 1377.36 411.356 1377.78 Q413.231 1378.17 414.99 1378.98 Z" fill="#000000" fill-rule="nonzero" fill-opacity="1" /><path clip-path="url(#clip320)" d="M426.611 1370.63 L426.611 1377.99 L435.384 1377.99 L435.384 1381.3 L426.611 1381.3 L426.611 1395.37 Q426.611 1398.54 427.467 1399.45 Q428.347 1400.35 431.009 1400.35 L435.384 1400.35 L435.384 1403.91 L431.009 1403.91 Q426.078 1403.91 424.203 1402.09 Q422.328 1400.23 422.328 1395.37 L422.328 1381.3 L419.203 1381.3 L419.203 1377.99 L422.328 1377.99 L422.328 1370.63 L426.611 1370.63 Z" fill="#000000" fill-rule="nonzero" fill-opacity="1" /><path clip-path="url(#clip320)" d="M463.161 1389.89 L463.161 1391.97 L443.578 1391.97 Q443.856 1396.37 446.217 1398.68 Q448.601 1400.97 452.837 1400.97 Q455.291 1400.97 457.583 1400.37 Q459.898 1399.77 462.166 1398.57 L462.166 1402.59 Q459.874 1403.57 457.467 1404.08 Q455.06 1404.59 452.583 1404.59 Q446.379 1404.59 442.745 1400.97 Q439.134 1397.36 439.134 1391.21 Q439.134 1384.84 442.56 1381.11 Q446.009 1377.36 451.842 1377.36 Q457.074 1377.36 460.106 1380.74 Q463.161 1384.1 463.161 1389.89 M458.902 1388.64 Q458.856 1385.14 456.935 1383.06 Q455.037 1380.97 451.888 1380.97 Q448.324 1380.97 446.171 1382.99 Q444.041 1385 443.717 1388.66 L458.902 1388.64 Z" fill="#000000" fill-rule="nonzero" fill-opacity="1" /><path clip-path="url(#clip320)" d="M487.212 1381.92 L487.212 1367.9 L491.472 1367.9 L491.472 1403.91 L487.212 1403.91 L487.212 1400.03 Q485.87 1402.34 483.81 1403.47 Q481.772 1404.59 478.902 1404.59 Q474.203 1404.59 471.24 1400.84 Q468.3 1397.09 468.3 1390.97 Q468.3 1384.86 471.24 1381.11 Q474.203 1377.36 478.902 1377.36 Q481.772 1377.36 483.81 1378.5 Q485.87 1379.61 487.212 1381.92 M472.698 1390.97 Q472.698 1395.67 474.62 1398.36 Q476.564 1401.02 479.944 1401.02 Q483.323 1401.02 485.268 1398.36 Q487.212 1395.67 487.212 1390.97 Q487.212 1386.28 485.268 1383.61 Q483.323 1380.93 479.944 1380.93 Q476.564 1380.93 474.62 1383.61 Q472.698 1386.28 472.698 1390.97 Z" fill="#000000" fill-rule="nonzero" fill-opacity="1" /><path clip-path="url(#clip320)" d="M934.546 1486.45 L1526.89 1486.45 L1526.89 47.2441 L934.546 47.2441  Z" fill="#ffffff" fill-rule="evenodd" fill-opacity="1"/>
<defs>
  <clipPath id="clip323">
    <rect x="934" y="47" width="593" height="1440"/>
  </clipPath>
</defs>
<polyline clip-path="url(#clip323)" style="stroke:#000000; stroke-linecap:round; stroke-linejoin:round; stroke-width:2; stroke-opacity:0.1; fill:none" points="951.31,1486.45 951.31,47.2441 "/>
<polyline clip-path="url(#clip323)" style="stroke:#000000; stroke-linecap:round; stroke-linejoin:round; stroke-width:2; stroke-opacity:0.1; fill:none" points="1040.25,1486.45 1040.25,47.2441 "/>
<polyline clip-path="url(#clip323)" style="stroke:#000000; stroke-linecap:round; stroke-linejoin:round; stroke-width:2; stroke-opacity:0.1; fill:none" points="1129.19,1486.45 1129.19,47.2441 "/>
<polyline clip-path="url(#clip323)" style="stroke:#000000; stroke-linecap:round; stroke-linejoin:round; stroke-width:2; stroke-opacity:0.1; fill:none" points="1218.13,1486.45 1218.13,47.2441 "/>
<polyline clip-path="url(#clip323)" style="stroke:#000000; stroke-linecap:round; stroke-linejoin:round; stroke-width:2; stroke-opacity:0.1; fill:none" points="1307.06,1486.45 1307.06,47.2441 "/>
<polyline clip-path="url(#clip323)" style="stroke:#000000; stroke-linecap:round; stroke-linejoin:round; stroke-width:2; stroke-opacity:0.1; fill:none" points="1396,1486.45 1396,47.2441 "/>
<polyline clip-path="url(#clip323)" style="stroke:#000000; stroke-linecap:round; stroke-linejoin:round; stroke-width:2; stroke-opacity:0.1; fill:none" points="1484.94,1486.45 1484.94,47.2441 "/>
<polyline clip-path="url(#clip320)" style="stroke:#000000; stroke-linecap:round; stroke-linejoin:round; stroke-width:4; stroke-opacity:1; fill:none" points="934.546,1486.45 1526.89,1486.45 "/>
<polyline clip-path="url(#clip320)" style="stroke:#000000; stroke-linecap:round; stroke-linejoin:round; stroke-width:4; stroke-opacity:1; fill:none" points="951.31,1486.45 951.31,1467.55 "/>
<polyline clip-path="url(#clip320)" style="stroke:#000000; stroke-linecap:round; stroke-linejoin:round; stroke-width:4; stroke-opacity:1; fill:none" points="1040.25,1486.45 1040.25,1467.55 "/>
<polyline clip-path="url(#clip320)" style="stroke:#000000; stroke-linecap:round; stroke-linejoin:round; stroke-width:4; stroke-opacity:1; fill:none" points="1129.19,1486.45 1129.19,1467.55 "/>
<polyline clip-path="url(#clip320)" style="stroke:#000000; stroke-linecap:round; stroke-linejoin:round; stroke-width:4; stroke-opacity:1; fill:none" points="1218.13,1486.45 1218.13,1467.55 "/>
<polyline clip-path="url(#clip320)" style="stroke:#000000; stroke-linecap:round; stroke-linejoin:round; stroke-width:4; stroke-opacity:1; fill:none" points="1307.06,1486.45 1307.06,1467.55 "/>
<polyline clip-path="url(#clip320)" style="stroke:#000000; stroke-linecap:round; stroke-linejoin:round; stroke-width:4; stroke-opacity:1; fill:none" points="1396,1486.45 1396,1467.55 "/>
<polyline clip-path="url(#clip320)" style="stroke:#000000; stroke-linecap:round; stroke-linejoin:round; stroke-width:4; stroke-opacity:1; fill:none" points="1484.94,1486.45 1484.94,1467.55 "/>
<path clip-path="url(#clip320)" d="M951.31 1517.37 Q947.699 1517.37 945.871 1520.93 Q944.065 1524.47 944.065 1531.6 Q944.065 1538.71 945.871 1542.27 Q947.699 1545.82 951.31 1545.82 Q954.945 1545.82 956.75 1542.27 Q958.579 1538.71 958.579 1531.6 Q958.579 1524.47 956.75 1520.93 Q954.945 1517.37 951.31 1517.37 M951.31 1513.66 Q957.121 1513.66 960.176 1518.27 Q963.255 1522.85 963.255 1531.6 Q963.255 1540.33 960.176 1544.94 Q957.121 1549.52 951.31 1549.52 Q945.5 1549.52 942.422 1544.94 Q939.366 1540.33 939.366 1531.6 Q939.366 1522.85 942.422 1518.27 Q945.5 1513.66 951.31 1513.66 Z" fill="#000000" fill-rule="nonzero" fill-opacity="1" /><path clip-path="url(#clip320)" d="M1030.63 1544.91 L1038.27 1544.91 L1038.27 1518.55 L1029.96 1520.21 L1029.96 1515.95 L1038.22 1514.29 L1042.9 1514.29 L1042.9 1544.91 L1050.54 1544.91 L1050.54 1548.85 L1030.63 1548.85 L1030.63 1544.91 Z" fill="#000000" fill-rule="nonzero" fill-opacity="1" /><path clip-path="url(#clip320)" d="M1123.84 1544.91 L1140.16 1544.91 L1140.16 1548.85 L1118.22 1548.85 L1118.22 1544.91 Q1120.88 1542.16 1125.46 1537.53 Q1130.07 1532.88 1131.25 1531.53 Q1133.49 1529.01 1134.37 1527.27 Q1135.28 1525.51 1135.28 1523.82 Q1135.28 1521.07 1133.33 1519.33 Q1131.41 1517.6 1128.31 1517.6 Q1126.11 1517.6 1123.65 1518.36 Q1121.22 1519.13 1118.45 1520.68 L1118.45 1515.95 Q1121.27 1514.82 1123.72 1514.24 Q1126.18 1513.66 1128.22 1513.66 Q1133.59 1513.66 1136.78 1516.35 Q1139.97 1519.03 1139.97 1523.52 Q1139.97 1525.65 1139.16 1527.57 Q1138.38 1529.47 1136.27 1532.07 Q1135.69 1532.74 1132.59 1535.95 Q1129.49 1539.15 1123.84 1544.91 Z" fill="#000000" fill-rule="nonzero" fill-opacity="1" /><path clip-path="url(#clip320)" d="M1222.37 1530.21 Q1225.73 1530.93 1227.6 1533.2 Q1229.5 1535.47 1229.5 1538.8 Q1229.5 1543.92 1225.98 1546.72 Q1222.47 1549.52 1215.98 1549.52 Q1213.81 1549.52 1211.49 1549.08 Q1209.2 1548.66 1206.75 1547.81 L1206.75 1543.29 Q1208.69 1544.43 1211.01 1545.01 Q1213.32 1545.58 1215.85 1545.58 Q1220.24 1545.58 1222.54 1543.85 Q1224.85 1542.11 1224.85 1538.8 Q1224.85 1535.75 1222.7 1534.03 Q1220.57 1532.3 1216.75 1532.3 L1212.72 1532.3 L1212.72 1528.45 L1216.93 1528.45 Q1220.38 1528.45 1222.21 1527.09 Q1224.04 1525.7 1224.04 1523.11 Q1224.04 1520.45 1222.14 1519.03 Q1220.27 1517.6 1216.75 1517.6 Q1214.83 1517.6 1212.63 1518.01 Q1210.43 1518.43 1207.79 1519.31 L1207.79 1515.14 Q1210.45 1514.4 1212.77 1514.03 Q1215.11 1513.66 1217.17 1513.66 Q1222.49 1513.66 1225.59 1516.09 Q1228.69 1518.5 1228.69 1522.62 Q1228.69 1525.49 1227.05 1527.48 Q1225.41 1529.45 1222.37 1530.21 Z" fill="#000000" fill-rule="nonzero" fill-opacity="1" /><path clip-path="url(#clip320)" d="M1310.07 1518.36 L1298.27 1536.81 L1310.07 1536.81 L1310.07 1518.36 M1308.85 1514.29 L1314.73 1514.29 L1314.73 1536.81 L1319.66 1536.81 L1319.66 1540.7 L1314.73 1540.7 L1314.73 1548.85 L1310.07 1548.85 L1310.07 1540.7 L1294.47 1540.7 L1294.47 1536.19 L1308.85 1514.29 Z" fill="#000000" fill-rule="nonzero" fill-opacity="1" /><path clip-path="url(#clip320)" d="M1386.28 1514.29 L1404.64 1514.29 L1404.64 1518.22 L1390.56 1518.22 L1390.56 1526.7 Q1391.58 1526.35 1392.6 1526.19 Q1393.62 1526 1394.64 1526 Q1400.42 1526 1403.8 1529.17 Q1407.18 1532.34 1407.18 1537.76 Q1407.18 1543.34 1403.71 1546.44 Q1400.24 1549.52 1393.92 1549.52 Q1391.74 1549.52 1389.48 1549.15 Q1387.23 1548.78 1384.82 1548.04 L1384.82 1543.34 Q1386.91 1544.47 1389.13 1545.03 Q1391.35 1545.58 1393.83 1545.58 Q1397.83 1545.58 1400.17 1543.48 Q1402.51 1541.37 1402.51 1537.76 Q1402.51 1534.15 1400.17 1532.04 Q1397.83 1529.94 1393.83 1529.94 Q1391.95 1529.94 1390.08 1530.35 Q1388.23 1530.77 1386.28 1531.65 L1386.28 1514.29 Z" fill="#000000" fill-rule="nonzero" fill-opacity="1" /><path clip-path="url(#clip320)" d="M1485.35 1529.7 Q1482.2 1529.7 1480.35 1531.86 Q1478.52 1534.01 1478.52 1537.76 Q1478.52 1541.49 1480.35 1543.66 Q1482.2 1545.82 1485.35 1545.82 Q1488.49 1545.82 1490.32 1543.66 Q1492.18 1541.49 1492.18 1537.76 Q1492.18 1534.01 1490.32 1531.86 Q1488.49 1529.7 1485.35 1529.7 M1494.63 1515.05 L1494.63 1519.31 Q1492.87 1518.48 1491.06 1518.04 Q1489.28 1517.6 1487.52 1517.6 Q1482.89 1517.6 1480.44 1520.72 Q1478.01 1523.85 1477.66 1530.17 Q1479.03 1528.15 1481.09 1527.09 Q1483.15 1526 1485.62 1526 Q1490.83 1526 1493.84 1529.17 Q1496.87 1532.32 1496.87 1537.76 Q1496.87 1543.08 1493.73 1546.3 Q1490.58 1549.52 1485.35 1549.52 Q1479.35 1549.52 1476.18 1544.94 Q1473.01 1540.33 1473.01 1531.6 Q1473.01 1523.41 1476.9 1518.55 Q1480.79 1513.66 1487.34 1513.66 Q1489.1 1513.66 1490.88 1514.01 Q1492.68 1514.36 1494.63 1515.05 Z" fill="#000000" fill-rule="nonzero" fill-opacity="1" /><polyline clip-path="url(#clip323)" style="stroke:#000000; stroke-linecap:round; stroke-linejoin:round; stroke-width:2; stroke-opacity:0.1; fill:none" points="934.546,1222.72 1526.89,1222.72 "/>
<polyline clip-path="url(#clip323)" style="stroke:#000000; stroke-linecap:round; stroke-linejoin:round; stroke-width:2; stroke-opacity:0.1; fill:none" points="934.546,888.1 1526.89,888.1 "/>
<polyline clip-path="url(#clip323)" style="stroke:#000000; stroke-linecap:round; stroke-linejoin:round; stroke-width:2; stroke-opacity:0.1; fill:none" points="934.546,553.485 1526.89,553.485 "/>
<polyline clip-path="url(#clip323)" style="stroke:#000000; stroke-linecap:round; stroke-linejoin:round; stroke-width:2; stroke-opacity:0.1; fill:none" points="934.546,218.87 1526.89,218.87 "/>
<polyline clip-path="url(#clip320)" style="stroke:#000000; stroke-linecap:round; stroke-linejoin:round; stroke-width:4; stroke-opacity:1; fill:none" points="934.546,1486.45 934.546,47.2441 "/>
<polyline clip-path="url(#clip320)" style="stroke:#000000; stroke-linecap:round; stroke-linejoin:round; stroke-width:4; stroke-opacity:1; fill:none" points="934.546,1222.72 953.444,1222.72 "/>
<polyline clip-path="url(#clip320)" style="stroke:#000000; stroke-linecap:round; stroke-linejoin:round; stroke-width:4; stroke-opacity:1; fill:none" points="934.546,888.1 953.444,888.1 "/>
<polyline clip-path="url(#clip320)" style="stroke:#000000; stroke-linecap:round; stroke-linejoin:round; stroke-width:4; stroke-opacity:1; fill:none" points="934.546,553.485 953.444,553.485 "/>
<polyline clip-path="url(#clip320)" style="stroke:#000000; stroke-linecap:round; stroke-linejoin:round; stroke-width:4; stroke-opacity:1; fill:none" points="934.546,218.87 953.444,218.87 "/>
<path clip-path="url(#clip320)" d="M838.06 1223.17 L867.736 1223.17 L867.736 1227.1 L838.06 1227.1 L838.06 1223.17 Z" fill="#000000" fill-rule="nonzero" fill-opacity="1" /><path clip-path="url(#clip320)" d="M878.639 1236.06 L886.277 1236.06 L886.277 1209.69 L877.967 1211.36 L877.967 1207.1 L886.231 1205.44 L890.907 1205.44 L890.907 1236.06 L898.546 1236.06 L898.546 1240 L878.639 1240 L878.639 1236.06 Z" fill="#000000" fill-rule="nonzero" fill-opacity="1" /><path clip-path="url(#clip320)" d="M886.602 873.899 Q882.99 873.899 881.162 877.464 Q879.356 881.006 879.356 888.135 Q879.356 895.242 881.162 898.806 Q882.99 902.348 886.602 902.348 Q890.236 902.348 892.041 898.806 Q893.87 895.242 893.87 888.135 Q893.87 881.006 892.041 877.464 Q890.236 873.899 886.602 873.899 M886.602 870.195 Q892.412 870.195 895.467 874.802 Q898.546 879.385 898.546 888.135 Q898.546 896.862 895.467 901.468 Q892.412 906.052 886.602 906.052 Q880.791 906.052 877.713 901.468 Q874.657 896.862 874.657 888.135 Q874.657 879.385 877.713 874.802 Q880.791 870.195 886.602 870.195 Z" fill="#000000" fill-rule="nonzero" fill-opacity="1" /><path clip-path="url(#clip320)" d="M878.639 566.83 L886.277 566.83 L886.277 540.465 L877.967 542.131 L877.967 537.872 L886.231 536.205 L890.907 536.205 L890.907 566.83 L898.546 566.83 L898.546 570.765 L878.639 570.765 L878.639 566.83 Z" fill="#000000" fill-rule="nonzero" fill-opacity="1" /><path clip-path="url(#clip320)" d="M882.227 232.215 L898.546 232.215 L898.546 236.15 L876.602 236.15 L876.602 232.215 Q879.264 229.461 883.847 224.831 Q888.453 220.178 889.634 218.836 Q891.879 216.313 892.759 214.576 Q893.662 212.817 893.662 211.127 Q893.662 208.373 891.717 206.637 Q889.796 204.901 886.694 204.901 Q884.495 204.901 882.041 205.664 Q879.611 206.428 876.833 207.979 L876.833 203.257 Q879.657 202.123 882.111 201.544 Q884.564 200.965 886.602 200.965 Q891.972 200.965 895.166 203.651 Q898.361 206.336 898.361 210.826 Q898.361 212.956 897.551 214.877 Q896.763 216.776 894.657 219.368 Q894.078 220.039 890.976 223.257 Q887.875 226.451 882.227 232.215 Z" fill="#000000" fill-rule="nonzero" fill-opacity="1" /><polyline clip-path="url(#clip323)" style="stroke:#0000ff; stroke-linecap:round; stroke-linejoin:round; stroke-width:4; stroke-opacity:1; fill:none" points="951.31,888.1 956.955,866.878 962.6,845.741 968.244,824.774 973.889,804.063 979.533,783.689 985.178,763.737 990.823,744.285 996.467,725.412 1002.11,707.194 1007.76,689.705 1013.4,673.014 1019.05,657.19 1024.69,642.295 1030.34,628.39 1035.98,615.531 1041.62,603.77 1047.27,593.153 1052.91,583.724 1058.56,575.521 1064.2,568.576 1069.85,562.918 1075.49,558.569 1081.14,555.547 1086.78,553.864 1092.43,553.528 1098.07,554.538 1103.72,556.891 1109.36,560.578 1115,565.584 1120.65,571.889 1126.29,579.467 1131.94,588.287 1137.58,598.315 1143.23,609.51 1148.87,621.827 1154.52,635.215 1160.16,649.622 1165.81,664.99 1171.45,681.255 1177.1,698.354 1182.74,716.216 1188.38,734.771 1194.03,753.943 1199.67,773.655 1205.32,793.829 1210.96,814.381 1216.61,835.231 1222.25,856.293 1227.9,877.484 1233.54,898.717 1239.19,919.908 1244.83,940.97 1250.48,961.82 1256.12,982.372 1261.76,1002.55 1267.41,1022.26 1273.05,1041.43 1278.7,1059.98 1284.34,1077.85 1289.99,1094.95 1295.63,1111.21 1301.28,1126.58 1306.92,1140.99 1312.57,1154.37 1318.21,1166.69 1323.86,1177.89 1329.5,1187.91 1335.14,1196.73 1340.79,1204.31 1346.43,1210.62 1352.08,1215.62 1357.72,1219.31 1363.37,1221.66 1369.01,1222.67 1374.66,1222.34 1380.3,1220.65 1385.95,1217.63 1391.59,1213.28 1397.24,1207.63 1402.88,1200.68 1408.52,1192.48 1414.17,1183.05 1419.81,1172.43 1425.46,1160.67 1431.1,1147.81 1436.75,1133.91 1442.39,1119.01 1448.04,1103.19 1453.68,1086.5 1459.33,1069.01 1464.97,1050.79 1470.62,1031.92 1476.26,1012.46 1481.9,992.512 1487.55,972.138 1493.19,951.427 1498.84,930.46 1504.48,909.323 1510.13,888.1 "/>
<polyline clip-path="url(#clip323)" style="stroke:#ff0000; stroke-linecap:round; stroke-linejoin:round; stroke-width:4; stroke-opacity:1; fill:none" stroke-dasharray="16, 10" points="951.31,1218.77 956.955,1113.3 962.6,1018.26 968.244,933.16 973.889,857.525 979.533,790.868 985.178,732.707 990.823,682.558 996.467,639.938 1002.11,604.364 1007.76,575.353 1013.4,552.421 1019.05,535.086 1024.69,522.864 1030.34,515.272 1035.98,511.827 1041.62,512.045 1047.27,515.444 1052.91,521.541 1058.56,529.851 1064.2,539.892 1069.85,551.182 1075.49,563.236 1081.14,575.571 1086.78,587.705 1092.43,599.155 1098.07,609.622 1103.72,619.16 1109.36,627.864 1115,635.828 1120.65,643.146 1126.29,649.914 1131.94,656.225 1137.58,662.174 1143.23,667.857 1148.87,673.367 1154.52,678.799 1160.16,684.247 1165.81,689.806 1171.45,695.572 1177.1,701.637 1182.74,708.097 1188.38,715.047 1194.03,722.58 1199.67,730.792 1205.32,739.777 1210.96,749.63 1216.61,760.444 1222.25,772.316 1227.9,785.339 1233.54,799.604 1239.19,815.119 1244.83,831.809 1250.48,849.596 1256.12,868.401 1261.76,888.144 1267.41,908.749 1273.05,930.135 1278.7,952.225 1284.34,974.939 1289.99,998.199 1295.63,1021.93 1301.28,1046.04 1306.92,1070.47 1312.57,1095.13 1318.21,1119.93 1323.86,1144.82 1329.5,1169.7 1335.14,1194.49 1340.79,1219.13 1346.43,1243.52 1352.08,1267.6 1357.72,1291.27 1363.37,1314.47 1369.01,1337.12 1374.66,1359.09 1380.3,1379.93 1385.95,1399 1391.59,1415.68 1397.24,1429.33 1402.88,1439.3 1408.52,1444.98 1414.17,1445.72 1419.81,1440.88 1425.46,1429.84 1431.1,1411.96 1436.75,1386.6 1442.39,1353.14 1448.04,1310.93 1453.68,1259.34 1459.33,1197.73 1464.97,1125.48 1470.62,1041.95 1476.26,946.494 1481.9,838.489 1487.55,717.298 1493.19,582.286 1498.84,432.818 1504.48,268.26 1510.13,87.9763 "/>
<path clip-path="url(#clip320)" d="M954.291 250.738 L1285.12 250.738 L1285.12 95.2176 L954.291 95.2176  Z" fill="#ffffff" fill-rule="evenodd" fill-opacity="1"/>
<polyline clip-path="url(#clip320)" style="stroke:#000000; stroke-linecap:round; stroke-linejoin:round; stroke-width:4; stroke-opacity:1; fill:none" points="954.291,250.738 1285.12,250.738 1285.12,95.2176 954.291,95.2176 954.291,250.738 "/>
<polyline clip-path="url(#clip320)" style="stroke:#0000ff; stroke-linecap:round; stroke-linejoin:round; stroke-width:4; stroke-opacity:1; fill:none" points="960.872,147.058 1000.36,147.058 "/>
<path clip-path="url(#clip320)" d="M1014.56 142.486 L1020.23 158.504 L1028.33 138.412 L1032.85 138.412 L1022.36 164.338 L1022.36 174.199 L1018.1 174.199 L1018.1 164.338 L1011.3 144.986 Q1010.28 142.069 1008.08 142.069 L1006.94 142.069 L1006.94 138.412 L1008.56 138.412 Q1013.12 138.412 1014.56 142.486 Z" fill="#000000" fill-rule="nonzero" fill-opacity="1" /><path clip-path="url(#clip320)" d="M1058.42 172.208 L1058.42 175.518 L1033.8 175.518 L1033.8 172.208 L1058.42 172.208 Z" fill="#000000" fill-rule="nonzero" fill-opacity="1" /><path clip-path="url(#clip320)" d="M1082.61 143.389 Q1084.21 140.518 1086.43 139.153 Q1088.66 137.787 1091.67 137.787 Q1095.72 137.787 1097.92 140.634 Q1100.11 143.458 1100.11 148.689 L1100.11 164.338 L1095.83 164.338 L1095.83 148.828 Q1095.83 145.102 1094.51 143.296 Q1093.19 141.49 1090.48 141.49 Q1087.17 141.49 1085.25 143.69 Q1083.33 145.889 1083.33 149.685 L1083.33 164.338 L1079.05 164.338 L1079.05 148.828 Q1079.05 145.078 1077.73 143.296 Q1076.41 141.49 1073.66 141.49 Q1070.39 141.49 1068.47 143.713 Q1066.55 145.912 1066.55 149.685 L1066.55 164.338 L1062.27 164.338 L1062.27 138.412 L1066.55 138.412 L1066.55 142.44 Q1068.01 140.055 1070.05 138.921 Q1072.08 137.787 1074.88 137.787 Q1077.71 137.787 1079.67 139.222 Q1081.67 140.657 1082.61 143.389 Z" fill="#000000" fill-rule="nonzero" fill-opacity="1" /><path clip-path="url(#clip320)" d="M1120.39 151.305 Q1115.23 151.305 1113.24 152.486 Q1111.25 153.666 1111.25 156.514 Q1111.25 158.782 1112.73 160.125 Q1114.23 161.444 1116.8 161.444 Q1120.35 161.444 1122.48 158.944 Q1124.63 156.421 1124.63 152.254 L1124.63 151.305 L1120.39 151.305 M1128.89 149.546 L1128.89 164.338 L1124.63 164.338 L1124.63 160.402 Q1123.17 162.763 1120.99 163.898 Q1118.82 165.009 1115.67 165.009 Q1111.69 165.009 1109.33 162.787 Q1106.99 160.541 1106.99 156.791 Q1106.99 152.416 1109.91 150.194 Q1112.85 147.972 1118.66 147.972 L1124.63 147.972 L1124.63 147.555 Q1124.63 144.615 1122.68 143.018 Q1120.76 141.398 1117.27 141.398 Q1115.04 141.398 1112.94 141.93 Q1110.83 142.463 1108.89 143.527 L1108.89 139.592 Q1111.23 138.69 1113.42 138.25 Q1115.62 137.787 1117.71 137.787 Q1123.33 137.787 1126.11 140.703 Q1128.89 143.62 1128.89 149.546 Z" fill="#000000" fill-rule="nonzero" fill-opacity="1" /><path clip-path="url(#clip320)" d="M1141.87 131.051 L1141.87 138.412 L1150.65 138.412 L1150.65 141.722 L1141.87 141.722 L1141.87 155.796 Q1141.87 158.967 1142.73 159.87 Q1143.61 160.773 1146.27 160.773 L1150.65 160.773 L1150.65 164.338 L1146.27 164.338 Q1141.34 164.338 1139.47 162.509 Q1137.59 160.657 1137.59 155.796 L1137.59 141.722 L1134.47 141.722 L1134.47 138.412 L1137.59 138.412 L1137.59 131.051 L1141.87 131.051 Z" fill="#000000" fill-rule="nonzero" fill-opacity="1" /><path clip-path="url(#clip320)" d="M1171.27 142.393 Q1170.55 141.977 1169.7 141.791 Q1168.86 141.583 1167.85 141.583 Q1164.23 141.583 1162.29 143.944 Q1160.37 146.282 1160.37 150.68 L1160.37 164.338 L1156.09 164.338 L1156.09 138.412 L1160.37 138.412 L1160.37 142.44 Q1161.71 140.078 1163.86 138.944 Q1166.02 137.787 1169.1 137.787 Q1169.54 137.787 1170.07 137.856 Q1170.6 137.903 1171.25 138.018 L1171.27 142.393 Z" fill="#000000" fill-rule="nonzero" fill-opacity="1" /><path clip-path="url(#clip320)" d="M1175.74 138.412 L1180 138.412 L1180 164.338 L1175.74 164.338 L1175.74 138.412 M1175.74 128.319 L1180 128.319 L1180 133.713 L1175.74 133.713 L1175.74 128.319 Z" fill="#000000" fill-rule="nonzero" fill-opacity="1" /><path clip-path="url(#clip320)" d="M1210.46 138.412 L1201.09 151.027 L1210.95 164.338 L1205.92 164.338 L1198.38 154.152 L1190.83 164.338 L1185.81 164.338 L1195.88 150.773 L1186.66 138.412 L1191.69 138.412 L1198.56 147.648 L1205.44 138.412 L1210.46 138.412 Z" fill="#000000" fill-rule="nonzero" fill-opacity="1" /><polyline clip-path="url(#clip320)" style="stroke:#ff0000; stroke-linecap:round; stroke-linejoin:round; stroke-width:4; stroke-opacity:1; fill:none" stroke-dasharray="16, 10" points="960.872,198.898 1000.36,198.898 "/>
<path clip-path="url(#clip320)" d="M1014.56 194.326 L1020.23 210.344 L1028.33 190.252 L1032.85 190.252 L1022.36 216.178 L1022.36 226.039 L1018.1 226.039 L1018.1 216.178 L1011.3 196.826 Q1010.28 193.909 1008.08 193.909 L1006.94 193.909 L1006.94 190.252 L1008.56 190.252 Q1013.12 190.252 1014.56 194.326 Z" fill="#000000" fill-rule="nonzero" fill-opacity="1" /><path clip-path="url(#clip320)" d="M1058.42 224.048 L1058.42 227.358 L1033.8 227.358 L1033.8 224.048 L1058.42 224.048 Z" fill="#000000" fill-rule="nonzero" fill-opacity="1" /><path clip-path="url(#clip320)" d="M1066.55 212.289 L1066.55 226.039 L1062.27 226.039 L1062.27 190.252 L1066.55 190.252 L1066.55 194.187 Q1067.89 191.872 1069.93 190.761 Q1071.99 189.627 1074.84 189.627 Q1079.56 189.627 1082.5 193.377 Q1085.46 197.127 1085.46 203.238 Q1085.46 209.349 1082.5 213.099 Q1079.56 216.849 1074.84 216.849 Q1071.99 216.849 1069.93 215.738 Q1067.89 214.603 1066.55 212.289 M1081.04 203.238 Q1081.04 198.539 1079.1 195.877 Q1077.17 193.192 1073.8 193.192 Q1070.42 193.192 1068.47 195.877 Q1066.55 198.539 1066.55 203.238 Q1066.55 207.937 1068.47 210.622 Q1070.42 213.284 1073.8 213.284 Q1077.17 213.284 1079.1 210.622 Q1081.04 207.937 1081.04 203.238 Z" fill="#000000" fill-rule="nonzero" fill-opacity="1" /><path clip-path="url(#clip320)" d="M1107.55 194.233 Q1106.83 193.817 1105.97 193.631 Q1105.14 193.423 1104.12 193.423 Q1100.51 193.423 1098.56 195.784 Q1096.64 198.122 1096.64 202.52 L1096.64 216.178 L1092.36 216.178 L1092.36 190.252 L1096.64 190.252 L1096.64 194.28 Q1097.98 191.918 1100.14 190.784 Q1102.29 189.627 1105.37 189.627 Q1105.81 189.627 1106.34 189.696 Q1106.87 189.743 1107.52 189.858 L1107.55 194.233 Z" fill="#000000" fill-rule="nonzero" fill-opacity="1" /><path clip-path="url(#clip320)" d="M1133.15 202.15 L1133.15 204.233 L1113.56 204.233 Q1113.84 208.631 1116.2 210.946 Q1118.59 213.238 1122.82 213.238 Q1125.28 213.238 1127.57 212.636 Q1129.88 212.034 1132.15 210.83 L1132.15 214.858 Q1129.86 215.83 1127.45 216.34 Q1125.04 216.849 1122.57 216.849 Q1116.36 216.849 1112.73 213.238 Q1109.12 209.627 1109.12 203.469 Q1109.12 197.104 1112.55 193.377 Q1115.99 189.627 1121.83 189.627 Q1127.06 189.627 1130.09 193.006 Q1133.15 196.363 1133.15 202.15 M1128.89 200.9 Q1128.84 197.405 1126.92 195.321 Q1125.02 193.238 1121.87 193.238 Q1118.31 193.238 1116.16 195.252 Q1114.03 197.266 1113.7 200.923 L1128.89 200.9 Z" fill="#000000" fill-rule="nonzero" fill-opacity="1" /><path clip-path="url(#clip320)" d="M1157.2 194.187 L1157.2 180.159 L1161.46 180.159 L1161.46 216.178 L1157.2 216.178 L1157.2 212.289 Q1155.85 214.603 1153.79 215.738 Q1151.76 216.849 1148.89 216.849 Q1144.19 216.849 1141.23 213.099 Q1138.29 209.349 1138.29 203.238 Q1138.29 197.127 1141.23 193.377 Q1144.19 189.627 1148.89 189.627 Q1151.76 189.627 1153.79 190.761 Q1155.85 191.872 1157.2 194.187 M1142.68 203.238 Q1142.68 207.937 1144.61 210.622 Q1146.55 213.284 1149.93 213.284 Q1153.31 213.284 1155.25 210.622 Q1157.2 207.937 1157.2 203.238 Q1157.2 198.539 1155.25 195.877 Q1153.31 193.192 1149.93 193.192 Q1146.55 193.192 1144.61 195.877 Q1142.68 198.539 1142.68 203.238 Z" fill="#000000" fill-rule="nonzero" fill-opacity="1" /><path clip-path="url(#clip320)" d="M1170.23 190.252 L1174.49 190.252 L1174.49 216.178 L1170.23 216.178 L1170.23 190.252 M1170.23 180.159 L1174.49 180.159 L1174.49 185.553 L1170.23 185.553 L1170.23 180.159 Z" fill="#000000" fill-rule="nonzero" fill-opacity="1" /><path clip-path="url(#clip320)" d="M1202.06 191.247 L1202.06 195.229 Q1200.25 194.233 1198.42 193.747 Q1196.62 193.238 1194.77 193.238 Q1190.62 193.238 1188.33 195.877 Q1186.04 198.492 1186.04 203.238 Q1186.04 207.983 1188.33 210.622 Q1190.62 213.238 1194.77 213.238 Q1196.62 213.238 1198.42 212.752 Q1200.25 212.242 1202.06 211.247 L1202.06 215.182 Q1200.28 216.016 1198.35 216.432 Q1196.46 216.849 1194.3 216.849 Q1188.45 216.849 1185 213.168 Q1181.55 209.488 1181.55 203.238 Q1181.55 196.895 1185.02 193.261 Q1188.52 189.627 1194.58 189.627 Q1196.55 189.627 1198.42 190.043 Q1200.3 190.437 1202.06 191.247 Z" fill="#000000" fill-rule="nonzero" fill-opacity="1" /><path clip-path="url(#clip320)" d="M1213.68 182.891 L1213.68 190.252 L1222.45 190.252 L1222.45 193.562 L1213.68 193.562 L1213.68 207.636 Q1213.68 210.807 1214.54 211.71 Q1215.41 212.613 1218.08 212.613 L1222.45 212.613 L1222.45 216.178 L1218.08 216.178 Q1213.15 216.178 1211.27 214.349 Q1209.4 212.497 1209.4 207.636 L1209.4 193.562 L1206.27 193.562 L1206.27 190.252 L1209.4 190.252 L1209.4 182.891 L1213.68 182.891 Z" fill="#000000" fill-rule="nonzero" fill-opacity="1" /><path clip-path="url(#clip320)" d="M1250.23 202.15 L1250.23 204.233 L1230.65 204.233 Q1230.92 208.631 1233.29 210.946 Q1235.67 213.238 1239.91 213.238 Q1242.36 213.238 1244.65 212.636 Q1246.97 212.034 1249.23 210.83 L1249.23 214.858 Q1246.94 215.83 1244.54 216.34 Q1242.13 216.849 1239.65 216.849 Q1233.45 216.849 1229.81 213.238 Q1226.2 209.627 1226.2 203.469 Q1226.2 197.104 1229.63 193.377 Q1233.08 189.627 1238.91 189.627 Q1244.14 189.627 1247.17 193.006 Q1250.23 196.363 1250.23 202.15 M1245.97 200.9 Q1245.92 197.405 1244 195.321 Q1242.1 193.238 1238.96 193.238 Q1235.39 193.238 1233.24 195.252 Q1231.11 197.266 1230.79 200.923 L1245.97 200.9 Z" fill="#000000" fill-rule="nonzero" fill-opacity="1" /><path clip-path="url(#clip320)" d="M1274.28 194.187 L1274.28 180.159 L1278.54 180.159 L1278.54 216.178 L1274.28 216.178 L1274.28 212.289 Q1272.94 214.603 1270.88 215.738 Q1268.84 216.849 1265.97 216.849 Q1261.27 216.849 1258.31 213.099 Q1255.37 209.349 1255.37 203.238 Q1255.37 197.127 1258.31 193.377 Q1261.27 189.627 1265.97 189.627 Q1268.84 189.627 1270.88 190.761 Q1272.94 191.872 1274.28 194.187 M1259.77 203.238 Q1259.77 207.937 1261.69 210.622 Q1263.63 213.284 1267.01 213.284 Q1270.39 213.284 1272.34 210.622 Q1274.28 207.937 1274.28 203.238 Q1274.28 198.539 1272.34 195.877 Q1270.39 193.192 1267.01 193.192 Q1263.63 193.192 1261.69 195.877 Q1259.77 198.539 1259.77 203.238 Z" fill="#000000" fill-rule="nonzero" fill-opacity="1" /><path clip-path="url(#clip320)" d="M1760.41 1486.45 L2352.76 1486.45 L2352.76 47.2441 L1760.41 47.2441  Z" fill="#ffffff" fill-rule="evenodd" fill-opacity="1"/>
<defs>
  <clipPath id="clip324">
    <rect x="1760" y="47" width="593" height="1440"/>
  </clipPath>
</defs>
<polyline clip-path="url(#clip324)" style="stroke:#000000; stroke-linecap:round; stroke-linejoin:round; stroke-width:2; stroke-opacity:0.1; fill:none" points="1777.17,1486.45 1777.17,47.2441 "/>
<polyline clip-path="url(#clip324)" style="stroke:#000000; stroke-linecap:round; stroke-linejoin:round; stroke-width:2; stroke-opacity:0.1; fill:none" points="1866.11,1486.45 1866.11,47.2441 "/>
<polyline clip-path="url(#clip324)" style="stroke:#000000; stroke-linecap:round; stroke-linejoin:round; stroke-width:2; stroke-opacity:0.1; fill:none" points="1955.05,1486.45 1955.05,47.2441 "/>
<polyline clip-path="url(#clip324)" style="stroke:#000000; stroke-linecap:round; stroke-linejoin:round; stroke-width:2; stroke-opacity:0.1; fill:none" points="2043.99,1486.45 2043.99,47.2441 "/>
<polyline clip-path="url(#clip324)" style="stroke:#000000; stroke-linecap:round; stroke-linejoin:round; stroke-width:2; stroke-opacity:0.1; fill:none" points="2132.93,1486.45 2132.93,47.2441 "/>
<polyline clip-path="url(#clip324)" style="stroke:#000000; stroke-linecap:round; stroke-linejoin:round; stroke-width:2; stroke-opacity:0.1; fill:none" points="2221.87,1486.45 2221.87,47.2441 "/>
<polyline clip-path="url(#clip324)" style="stroke:#000000; stroke-linecap:round; stroke-linejoin:round; stroke-width:2; stroke-opacity:0.1; fill:none" points="2310.81,1486.45 2310.81,47.2441 "/>
<polyline clip-path="url(#clip320)" style="stroke:#000000; stroke-linecap:round; stroke-linejoin:round; stroke-width:4; stroke-opacity:1; fill:none" points="1760.41,1486.45 2352.76,1486.45 "/>
<polyline clip-path="url(#clip320)" style="stroke:#000000; stroke-linecap:round; stroke-linejoin:round; stroke-width:4; stroke-opacity:1; fill:none" points="1777.17,1486.45 1777.17,1467.55 "/>
<polyline clip-path="url(#clip320)" style="stroke:#000000; stroke-linecap:round; stroke-linejoin:round; stroke-width:4; stroke-opacity:1; fill:none" points="1866.11,1486.45 1866.11,1467.55 "/>
<polyline clip-path="url(#clip320)" style="stroke:#000000; stroke-linecap:round; stroke-linejoin:round; stroke-width:4; stroke-opacity:1; fill:none" points="1955.05,1486.45 1955.05,1467.55 "/>
<polyline clip-path="url(#clip320)" style="stroke:#000000; stroke-linecap:round; stroke-linejoin:round; stroke-width:4; stroke-opacity:1; fill:none" points="2043.99,1486.45 2043.99,1467.55 "/>
<polyline clip-path="url(#clip320)" style="stroke:#000000; stroke-linecap:round; stroke-linejoin:round; stroke-width:4; stroke-opacity:1; fill:none" points="2132.93,1486.45 2132.93,1467.55 "/>
<polyline clip-path="url(#clip320)" style="stroke:#000000; stroke-linecap:round; stroke-linejoin:round; stroke-width:4; stroke-opacity:1; fill:none" points="2221.87,1486.45 2221.87,1467.55 "/>
<polyline clip-path="url(#clip320)" style="stroke:#000000; stroke-linecap:round; stroke-linejoin:round; stroke-width:4; stroke-opacity:1; fill:none" points="2310.81,1486.45 2310.81,1467.55 "/>
<path clip-path="url(#clip320)" d="M1777.17 1517.37 Q1773.56 1517.37 1771.73 1520.93 Q1769.93 1524.47 1769.93 1531.6 Q1769.93 1538.71 1771.73 1542.27 Q1773.56 1545.82 1777.17 1545.82 Q1780.81 1545.82 1782.61 1542.27 Q1784.44 1538.71 1784.44 1531.6 Q1784.44 1524.47 1782.61 1520.93 Q1780.81 1517.37 1777.17 1517.37 M1777.17 1513.66 Q1782.98 1513.66 1786.04 1518.27 Q1789.12 1522.85 1789.12 1531.6 Q1789.12 1540.33 1786.04 1544.94 Q1782.98 1549.52 1777.17 1549.52 Q1771.36 1549.52 1768.29 1544.94 Q1765.23 1540.33 1765.23 1531.6 Q1765.23 1522.85 1768.29 1518.27 Q1771.36 1513.66 1777.17 1513.66 Z" fill="#000000" fill-rule="nonzero" fill-opacity="1" /><path clip-path="url(#clip320)" d="M1856.49 1544.91 L1864.13 1544.91 L1864.13 1518.55 L1855.82 1520.21 L1855.82 1515.95 L1864.09 1514.29 L1868.76 1514.29 L1868.76 1544.91 L1876.4 1544.91 L1876.4 1548.85 L1856.49 1548.85 L1856.49 1544.91 Z" fill="#000000" fill-rule="nonzero" fill-opacity="1" /><path clip-path="url(#clip320)" d="M1949.7 1544.91 L1966.02 1544.91 L1966.02 1548.85 L1944.08 1548.85 L1944.08 1544.91 Q1946.74 1542.16 1951.32 1537.53 Q1955.93 1532.88 1957.11 1531.53 Q1959.36 1529.01 1960.24 1527.27 Q1961.14 1525.51 1961.14 1523.82 Q1961.14 1521.07 1959.19 1519.33 Q1957.27 1517.6 1954.17 1517.6 Q1951.97 1517.6 1949.52 1518.36 Q1947.09 1519.13 1944.31 1520.68 L1944.31 1515.95 Q1947.13 1514.82 1949.59 1514.24 Q1952.04 1513.66 1954.08 1513.66 Q1959.45 1513.66 1962.64 1516.35 Q1965.84 1519.03 1965.84 1523.52 Q1965.84 1525.65 1965.03 1527.57 Q1964.24 1529.47 1962.13 1532.07 Q1961.56 1532.74 1958.45 1535.95 Q1955.35 1539.15 1949.7 1544.91 Z" fill="#000000" fill-rule="nonzero" fill-opacity="1" /><path clip-path="url(#clip320)" d="M2048.24 1530.21 Q2051.59 1530.93 2053.47 1533.2 Q2055.37 1535.47 2055.37 1538.8 Q2055.37 1543.92 2051.85 1546.72 Q2048.33 1549.52 2041.85 1549.52 Q2039.67 1549.52 2037.36 1549.08 Q2035.07 1548.66 2032.61 1547.81 L2032.61 1543.29 Q2034.56 1544.43 2036.87 1545.01 Q2039.19 1545.58 2041.71 1545.58 Q2046.11 1545.58 2048.4 1543.85 Q2050.71 1542.11 2050.71 1538.8 Q2050.71 1535.75 2048.56 1534.03 Q2046.43 1532.3 2042.61 1532.3 L2038.58 1532.3 L2038.58 1528.45 L2042.8 1528.45 Q2046.25 1528.45 2048.08 1527.09 Q2049.9 1525.7 2049.9 1523.11 Q2049.9 1520.45 2048.01 1519.03 Q2046.13 1517.6 2042.61 1517.6 Q2040.69 1517.6 2038.49 1518.01 Q2036.29 1518.43 2033.65 1519.31 L2033.65 1515.14 Q2036.32 1514.4 2038.63 1514.03 Q2040.97 1513.66 2043.03 1513.66 Q2048.35 1513.66 2051.46 1516.09 Q2054.56 1518.5 2054.56 1522.62 Q2054.56 1525.49 2052.91 1527.48 Q2051.27 1529.45 2048.24 1530.21 Z" fill="#000000" fill-rule="nonzero" fill-opacity="1" /><path clip-path="url(#clip320)" d="M2135.94 1518.36 L2124.13 1536.81 L2135.94 1536.81 L2135.94 1518.36 M2134.71 1514.29 L2140.59 1514.29 L2140.59 1536.81 L2145.52 1536.81 L2145.52 1540.7 L2140.59 1540.7 L2140.59 1548.85 L2135.94 1548.85 L2135.94 1540.7 L2120.34 1540.7 L2120.34 1536.19 L2134.71 1514.29 Z" fill="#000000" fill-rule="nonzero" fill-opacity="1" /><path clip-path="url(#clip320)" d="M2212.14 1514.29 L2230.5 1514.29 L2230.5 1518.22 L2216.43 1518.22 L2216.43 1526.7 Q2217.45 1526.35 2218.46 1526.19 Q2219.48 1526 2220.5 1526 Q2226.29 1526 2229.67 1529.17 Q2233.05 1532.34 2233.05 1537.76 Q2233.05 1543.34 2229.58 1546.44 Q2226.1 1549.52 2219.78 1549.52 Q2217.61 1549.52 2215.34 1549.15 Q2213.09 1548.78 2210.69 1548.04 L2210.69 1543.34 Q2212.77 1544.47 2214.99 1545.03 Q2217.21 1545.58 2219.69 1545.58 Q2223.7 1545.58 2226.03 1543.48 Q2228.37 1541.37 2228.37 1537.76 Q2228.37 1534.15 2226.03 1532.04 Q2223.7 1529.94 2219.69 1529.94 Q2217.82 1529.94 2215.94 1530.35 Q2214.09 1530.77 2212.14 1531.65 L2212.14 1514.29 Z" fill="#000000" fill-rule="nonzero" fill-opacity="1" /><path clip-path="url(#clip320)" d="M2311.21 1529.7 Q2308.06 1529.7 2306.21 1531.86 Q2304.38 1534.01 2304.38 1537.76 Q2304.38 1541.49 2306.21 1543.66 Q2308.06 1545.82 2311.21 1545.82 Q2314.36 1545.82 2316.19 1543.66 Q2318.04 1541.49 2318.04 1537.76 Q2318.04 1534.01 2316.19 1531.86 Q2314.36 1529.7 2311.21 1529.7 M2320.49 1515.05 L2320.49 1519.31 Q2318.73 1518.48 2316.93 1518.04 Q2315.15 1517.6 2313.39 1517.6 Q2308.76 1517.6 2306.3 1520.72 Q2303.87 1523.85 2303.53 1530.17 Q2304.89 1528.15 2306.95 1527.09 Q2309.01 1526 2311.49 1526 Q2316.7 1526 2319.71 1529.17 Q2322.74 1532.32 2322.74 1537.76 Q2322.74 1543.08 2319.59 1546.3 Q2316.44 1549.52 2311.21 1549.52 Q2305.22 1549.52 2302.04 1544.94 Q2298.87 1540.33 2298.87 1531.6 Q2298.87 1523.41 2302.76 1518.55 Q2306.65 1513.66 2313.2 1513.66 Q2314.96 1513.66 2316.74 1514.01 Q2318.55 1514.36 2320.49 1515.05 Z" fill="#000000" fill-rule="nonzero" fill-opacity="1" /><polyline clip-path="url(#clip324)" style="stroke:#000000; stroke-linecap:round; stroke-linejoin:round; stroke-width:2; stroke-opacity:0.1; fill:none" points="1760.41,1445.72 2352.76,1445.72 "/>
<polyline clip-path="url(#clip324)" style="stroke:#000000; stroke-linecap:round; stroke-linejoin:round; stroke-width:2; stroke-opacity:0.1; fill:none" points="1760.41,1106.28 2352.76,1106.28 "/>
<polyline clip-path="url(#clip324)" style="stroke:#000000; stroke-linecap:round; stroke-linejoin:round; stroke-width:2; stroke-opacity:0.1; fill:none" points="1760.41,766.846 2352.76,766.846 "/>
<polyline clip-path="url(#clip324)" style="stroke:#000000; stroke-linecap:round; stroke-linejoin:round; stroke-width:2; stroke-opacity:0.1; fill:none" points="1760.41,427.411 2352.76,427.411 "/>
<polyline clip-path="url(#clip324)" style="stroke:#000000; stroke-linecap:round; stroke-linejoin:round; stroke-width:2; stroke-opacity:0.1; fill:none" points="1760.41,87.9763 2352.76,87.9763 "/>
<polyline clip-path="url(#clip320)" style="stroke:#000000; stroke-linecap:round; stroke-linejoin:round; stroke-width:4; stroke-opacity:1; fill:none" points="1760.41,1486.45 1760.41,47.2441 "/>
<polyline clip-path="url(#clip320)" style="stroke:#000000; stroke-linecap:round; stroke-linejoin:round; stroke-width:4; stroke-opacity:1; fill:none" points="1760.41,1445.72 1779.31,1445.72 "/>
<polyline clip-path="url(#clip320)" style="stroke:#000000; stroke-linecap:round; stroke-linejoin:round; stroke-width:4; stroke-opacity:1; fill:none" points="1760.41,1106.28 1779.31,1106.28 "/>
<polyline clip-path="url(#clip320)" style="stroke:#000000; stroke-linecap:round; stroke-linejoin:round; stroke-width:4; stroke-opacity:1; fill:none" points="1760.41,766.846 1779.31,766.846 "/>
<polyline clip-path="url(#clip320)" style="stroke:#000000; stroke-linecap:round; stroke-linejoin:round; stroke-width:4; stroke-opacity:1; fill:none" points="1760.41,427.411 1779.31,427.411 "/>
<polyline clip-path="url(#clip320)" style="stroke:#000000; stroke-linecap:round; stroke-linejoin:round; stroke-width:4; stroke-opacity:1; fill:none" points="1760.41,87.9763 1779.31,87.9763 "/>
<path clip-path="url(#clip320)" d="M1637.07 1431.51 Q1633.46 1431.51 1631.63 1435.08 Q1629.83 1438.62 1629.83 1445.75 Q1629.83 1452.86 1631.63 1456.42 Q1633.46 1459.96 1637.07 1459.96 Q1640.71 1459.96 1642.51 1456.42 Q1644.34 1452.86 1644.34 1445.75 Q1644.34 1438.62 1642.51 1435.08 Q1640.71 1431.51 1637.07 1431.51 M1637.07 1427.81 Q1642.88 1427.81 1645.94 1432.42 Q1649.02 1437 1649.02 1445.75 Q1649.02 1454.48 1645.94 1459.08 Q1642.88 1463.67 1637.07 1463.67 Q1631.26 1463.67 1628.18 1459.08 Q1625.13 1454.48 1625.13 1445.75 Q1625.13 1437 1628.18 1432.42 Q1631.26 1427.81 1637.07 1427.81 Z" fill="#000000" fill-rule="nonzero" fill-opacity="1" /><path clip-path="url(#clip320)" d="M1657.23 1457.12 L1662.12 1457.12 L1662.12 1463 L1657.23 1463 L1657.23 1457.12 Z" fill="#000000" fill-rule="nonzero" fill-opacity="1" /><path clip-path="url(#clip320)" d="M1682.3 1431.51 Q1678.69 1431.51 1676.86 1435.08 Q1675.06 1438.62 1675.06 1445.75 Q1675.06 1452.86 1676.86 1456.42 Q1678.69 1459.96 1682.3 1459.96 Q1685.94 1459.96 1687.74 1456.42 Q1689.57 1452.86 1689.57 1445.75 Q1689.57 1438.62 1687.74 1435.08 Q1685.94 1431.51 1682.3 1431.51 M1682.3 1427.81 Q1688.11 1427.81 1691.17 1432.42 Q1694.25 1437 1694.25 1445.75 Q1694.25 1454.48 1691.17 1459.08 Q1688.11 1463.67 1682.3 1463.67 Q1676.49 1463.67 1673.41 1459.08 Q1670.36 1454.48 1670.36 1445.75 Q1670.36 1437 1673.41 1432.42 Q1676.49 1427.81 1682.3 1427.81 Z" fill="#000000" fill-rule="nonzero" fill-opacity="1" /><path clip-path="url(#clip320)" d="M1712.47 1431.51 Q1708.85 1431.51 1707.03 1435.08 Q1705.22 1438.62 1705.22 1445.75 Q1705.22 1452.86 1707.03 1456.42 Q1708.85 1459.96 1712.47 1459.96 Q1716.1 1459.96 1717.91 1456.42 Q1719.73 1452.86 1719.73 1445.75 Q1719.73 1438.62 1717.91 1435.08 Q1716.1 1431.51 1712.47 1431.51 M1712.47 1427.81 Q1718.28 1427.81 1721.33 1432.42 Q1724.41 1437 1724.41 1445.75 Q1724.41 1454.48 1721.33 1459.08 Q1718.28 1463.67 1712.47 1463.67 Q1706.66 1463.67 1703.58 1459.08 Q1700.52 1454.48 1700.52 1445.75 Q1700.52 1437 1703.58 1432.42 Q1706.66 1427.81 1712.47 1427.81 Z" fill="#000000" fill-rule="nonzero" fill-opacity="1" /><path clip-path="url(#clip320)" d="M1638.07 1092.08 Q1634.46 1092.08 1632.63 1095.64 Q1630.82 1099.19 1630.82 1106.32 Q1630.82 1113.42 1632.63 1116.99 Q1634.46 1120.53 1638.07 1120.53 Q1641.7 1120.53 1643.51 1116.99 Q1645.34 1113.42 1645.34 1106.32 Q1645.34 1099.19 1643.51 1095.64 Q1641.7 1092.08 1638.07 1092.08 M1638.07 1088.38 Q1643.88 1088.38 1646.93 1092.98 Q1650.01 1097.57 1650.01 1106.32 Q1650.01 1115.04 1646.93 1119.65 Q1643.88 1124.23 1638.07 1124.23 Q1632.26 1124.23 1629.18 1119.65 Q1626.12 1115.04 1626.12 1106.32 Q1626.12 1097.57 1629.18 1092.98 Q1632.26 1088.38 1638.07 1088.38 Z" fill="#000000" fill-rule="nonzero" fill-opacity="1" /><path clip-path="url(#clip320)" d="M1658.23 1117.68 L1663.11 1117.68 L1663.11 1123.56 L1658.23 1123.56 L1658.23 1117.68 Z" fill="#000000" fill-rule="nonzero" fill-opacity="1" /><path clip-path="url(#clip320)" d="M1677.33 1119.63 L1693.65 1119.63 L1693.65 1123.56 L1671.7 1123.56 L1671.7 1119.63 Q1674.36 1116.87 1678.95 1112.24 Q1683.55 1107.59 1684.73 1106.25 Q1686.98 1103.72 1687.86 1101.99 Q1688.76 1100.23 1688.76 1098.54 Q1688.76 1095.78 1686.82 1094.05 Q1684.9 1092.31 1681.79 1092.31 Q1679.6 1092.31 1677.14 1093.07 Q1674.71 1093.84 1671.93 1095.39 L1671.93 1090.67 Q1674.76 1089.53 1677.21 1088.95 Q1679.66 1088.38 1681.7 1088.38 Q1687.07 1088.38 1690.27 1091.06 Q1693.46 1093.75 1693.46 1098.24 Q1693.46 1100.37 1692.65 1102.29 Q1691.86 1104.19 1689.76 1106.78 Q1689.18 1107.45 1686.08 1110.67 Q1682.97 1113.86 1677.33 1119.63 Z" fill="#000000" fill-rule="nonzero" fill-opacity="1" /><path clip-path="url(#clip320)" d="M1703.51 1089 L1721.86 1089 L1721.86 1092.94 L1707.79 1092.94 L1707.79 1101.41 Q1708.81 1101.06 1709.83 1100.9 Q1710.85 1100.71 1711.86 1100.71 Q1717.65 1100.71 1721.03 1103.89 Q1724.41 1107.06 1724.41 1112.47 Q1724.41 1118.05 1720.94 1121.15 Q1717.47 1124.23 1711.15 1124.23 Q1708.97 1124.23 1706.7 1123.86 Q1704.46 1123.49 1702.05 1122.75 L1702.05 1118.05 Q1704.13 1119.19 1706.35 1119.74 Q1708.58 1120.3 1711.05 1120.3 Q1715.06 1120.3 1717.4 1118.19 Q1719.73 1116.08 1719.73 1112.47 Q1719.73 1108.86 1717.4 1106.76 Q1715.06 1104.65 1711.05 1104.65 Q1709.18 1104.65 1707.3 1105.07 Q1705.45 1105.48 1703.51 1106.36 L1703.51 1089 Z" fill="#000000" fill-rule="nonzero" fill-opacity="1" /><path clip-path="url(#clip320)" d="M1637.07 752.645 Q1633.46 752.645 1631.63 756.209 Q1629.83 759.751 1629.83 766.881 Q1629.83 773.987 1631.63 777.552 Q1633.46 781.094 1637.07 781.094 Q1640.71 781.094 1642.51 777.552 Q1644.34 773.987 1644.34 766.881 Q1644.34 759.751 1642.51 756.209 Q1640.71 752.645 1637.07 752.645 M1637.07 748.941 Q1642.88 748.941 1645.94 753.547 Q1649.02 758.131 1649.02 766.881 Q1649.02 775.608 1645.94 780.214 Q1642.88 784.797 1637.07 784.797 Q1631.26 784.797 1628.18 780.214 Q1625.13 775.608 1625.13 766.881 Q1625.13 758.131 1628.18 753.547 Q1631.26 748.941 1637.07 748.941 Z" fill="#000000" fill-rule="nonzero" fill-opacity="1" /><path clip-path="url(#clip320)" d="M1657.23 778.246 L1662.12 778.246 L1662.12 784.126 L1657.23 784.126 L1657.23 778.246 Z" fill="#000000" fill-rule="nonzero" fill-opacity="1" /><path clip-path="url(#clip320)" d="M1672.35 749.566 L1690.71 749.566 L1690.71 753.501 L1676.63 753.501 L1676.63 761.973 Q1677.65 761.626 1678.67 761.464 Q1679.69 761.279 1680.71 761.279 Q1686.49 761.279 1689.87 764.45 Q1693.25 767.621 1693.25 773.038 Q1693.25 778.617 1689.78 781.719 Q1686.31 784.797 1679.99 784.797 Q1677.81 784.797 1675.54 784.427 Q1673.3 784.057 1670.89 783.316 L1670.89 778.617 Q1672.98 779.751 1675.2 780.307 Q1677.42 780.862 1679.9 780.862 Q1683.9 780.862 1686.24 778.756 Q1688.58 776.649 1688.58 773.038 Q1688.58 769.427 1686.24 767.321 Q1683.9 765.214 1679.9 765.214 Q1678.02 765.214 1676.15 765.631 Q1674.29 766.047 1672.35 766.927 L1672.35 749.566 Z" fill="#000000" fill-rule="nonzero" fill-opacity="1" /><path clip-path="url(#clip320)" d="M1712.47 752.645 Q1708.85 752.645 1707.03 756.209 Q1705.22 759.751 1705.22 766.881 Q1705.22 773.987 1707.03 777.552 Q1708.85 781.094 1712.47 781.094 Q1716.1 781.094 1717.91 777.552 Q1719.73 773.987 1719.73 766.881 Q1719.73 759.751 1717.91 756.209 Q1716.1 752.645 1712.47 752.645 M1712.47 748.941 Q1718.28 748.941 1721.33 753.547 Q1724.41 758.131 1724.41 766.881 Q1724.41 775.608 1721.33 780.214 Q1718.28 784.797 1712.47 784.797 Q1706.66 784.797 1703.58 780.214 Q1700.52 775.608 1700.52 766.881 Q1700.52 758.131 1703.58 753.547 Q1706.66 748.941 1712.47 748.941 Z" fill="#000000" fill-rule="nonzero" fill-opacity="1" /><path clip-path="url(#clip320)" d="M1638.07 413.21 Q1634.46 413.21 1632.63 416.775 Q1630.82 420.316 1630.82 427.446 Q1630.82 434.552 1632.63 438.117 Q1634.46 441.659 1638.07 441.659 Q1641.7 441.659 1643.51 438.117 Q1645.34 434.552 1645.34 427.446 Q1645.34 420.316 1643.51 416.775 Q1641.7 413.21 1638.07 413.21 M1638.07 409.506 Q1643.88 409.506 1646.93 414.113 Q1650.01 418.696 1650.01 427.446 Q1650.01 436.173 1646.93 440.779 Q1643.88 445.362 1638.07 445.362 Q1632.26 445.362 1629.18 440.779 Q1626.12 436.173 1626.12 427.446 Q1626.12 418.696 1629.18 414.113 Q1632.26 409.506 1638.07 409.506 Z" fill="#000000" fill-rule="nonzero" fill-opacity="1" /><path clip-path="url(#clip320)" d="M1658.23 438.812 L1663.11 438.812 L1663.11 444.691 L1658.23 444.691 L1658.23 438.812 Z" fill="#000000" fill-rule="nonzero" fill-opacity="1" /><path clip-path="url(#clip320)" d="M1672.12 410.131 L1694.34 410.131 L1694.34 412.122 L1681.79 444.691 L1676.91 444.691 L1688.72 414.066 L1672.12 414.066 L1672.12 410.131 Z" fill="#000000" fill-rule="nonzero" fill-opacity="1" /><path clip-path="url(#clip320)" d="M1703.51 410.131 L1721.86 410.131 L1721.86 414.066 L1707.79 414.066 L1707.79 422.538 Q1708.81 422.191 1709.83 422.029 Q1710.85 421.844 1711.86 421.844 Q1717.65 421.844 1721.03 425.015 Q1724.41 428.187 1724.41 433.603 Q1724.41 439.182 1720.94 442.284 Q1717.47 445.362 1711.15 445.362 Q1708.97 445.362 1706.7 444.992 Q1704.46 444.622 1702.05 443.881 L1702.05 439.182 Q1704.13 440.316 1706.35 440.872 Q1708.58 441.427 1711.05 441.427 Q1715.06 441.427 1717.4 439.321 Q1719.73 437.214 1719.73 433.603 Q1719.73 429.992 1717.4 427.886 Q1715.06 425.779 1711.05 425.779 Q1709.18 425.779 1707.3 426.196 Q1705.45 426.613 1703.51 427.492 L1703.51 410.131 Z" fill="#000000" fill-rule="nonzero" fill-opacity="1" /><path clip-path="url(#clip320)" d="M1627.88 101.321 L1635.52 101.321 L1635.52 74.9555 L1627.21 76.6222 L1627.21 72.3629 L1635.48 70.6963 L1640.15 70.6963 L1640.15 101.321 L1647.79 101.321 L1647.79 105.256 L1627.88 105.256 L1627.88 101.321 Z" fill="#000000" fill-rule="nonzero" fill-opacity="1" /><path clip-path="url(#clip320)" d="M1657.23 99.3767 L1662.12 99.3767 L1662.12 105.256 L1657.23 105.256 L1657.23 99.3767 Z" fill="#000000" fill-rule="nonzero" fill-opacity="1" /><path clip-path="url(#clip320)" d="M1682.3 73.775 Q1678.69 73.775 1676.86 77.3398 Q1675.06 80.8814 1675.06 88.011 Q1675.06 95.1174 1676.86 98.6822 Q1678.69 102.224 1682.3 102.224 Q1685.94 102.224 1687.74 98.6822 Q1689.57 95.1174 1689.57 88.011 Q1689.57 80.8814 1687.74 77.3398 Q1685.94 73.775 1682.3 73.775 M1682.3 70.0713 Q1688.11 70.0713 1691.17 74.6777 Q1694.25 79.261 1694.25 88.011 Q1694.25 96.7378 1691.17 101.344 Q1688.11 105.928 1682.3 105.928 Q1676.49 105.928 1673.41 101.344 Q1670.36 96.7378 1670.36 88.011 Q1670.36 79.261 1673.41 74.6777 Q1676.49 70.0713 1682.3 70.0713 Z" fill="#000000" fill-rule="nonzero" fill-opacity="1" /><path clip-path="url(#clip320)" d="M1712.47 73.775 Q1708.85 73.775 1707.03 77.3398 Q1705.22 80.8814 1705.22 88.011 Q1705.22 95.1174 1707.03 98.6822 Q1708.85 102.224 1712.47 102.224 Q1716.1 102.224 1717.91 98.6822 Q1719.73 95.1174 1719.73 88.011 Q1719.73 80.8814 1717.91 77.3398 Q1716.1 73.775 1712.47 73.775 M1712.47 70.0713 Q1718.28 70.0713 1721.33 74.6777 Q1724.41 79.261 1724.41 88.011 Q1724.41 96.7378 1721.33 101.344 Q1718.28 105.928 1712.47 105.928 Q1706.66 105.928 1703.58 101.344 Q1700.52 96.7378 1700.52 88.011 Q1700.52 79.261 1703.58 74.6777 Q1706.66 70.0713 1712.47 70.0713 Z" fill="#000000" fill-rule="nonzero" fill-opacity="1" /><polyline clip-path="url(#clip324)" style="stroke:#0000ff; stroke-linecap:round; stroke-linejoin:round; stroke-width:4; stroke-opacity:1; fill:none" points="1777.17,1445.72 1782.82,1445.72 1788.46,1445.72 1794.11,1445.72 1799.75,1445.72 1805.4,1445.72 1811.04,1445.72 1816.69,1445.72 1822.33,1445.72 1827.98,1445.72 1833.62,1445.72 1839.27,1445.72 1844.91,1445.72 1850.55,1445.72 1856.2,1445.72 1861.84,1445.72 1867.49,1445.72 1873.13,1445.72 1878.78,1445.72 1884.42,1445.72 1890.07,1445.72 1895.71,1445.72 1901.36,1445.72 1907,1445.72 1912.65,1445.72 1918.29,1445.72 1923.93,1445.72 1929.58,1445.72 1935.22,1445.72 1940.87,1445.72 1946.51,1445.72 1952.16,1445.72 1957.8,1445.72 1963.45,1445.72 1969.09,1445.72 1974.74,1445.72 1980.38,1445.72 1986.03,1445.72 1991.67,1445.72 1997.31,1445.72 2002.96,1445.72 2008.6,1445.72 2014.25,1445.72 2019.89,1445.72 2025.54,1445.72 2031.18,1445.72 2036.83,1445.72 2042.47,1445.72 2048.12,1445.72 2053.76,1445.72 2059.41,1445.72 2065.05,1445.72 2070.69,1445.72 2076.34,1445.72 2081.98,1445.72 2087.63,1445.72 2093.27,1445.72 2098.92,1445.72 2104.56,1445.72 2110.21,1445.72 2115.85,1445.72 2121.5,1445.72 2127.14,1445.72 2132.79,1445.72 2138.43,1445.72 2144.07,1445.72 2149.72,1445.72 2155.36,1445.72 2161.01,1445.72 2166.65,1445.72 2172.3,1445.72 2177.94,1445.72 2183.59,1445.72 2189.23,1445.72 2194.88,1445.72 2200.52,1445.72 2206.17,1445.72 2211.81,1445.72 2217.45,1445.72 2223.1,1445.72 2228.74,1445.72 2234.39,1445.72 2240.03,1445.72 2245.68,1445.72 2251.32,1445.72 2256.97,1445.72 2262.61,1445.72 2268.26,1445.72 2273.9,1445.72 2279.55,1445.72 2285.19,1445.72 2290.83,1445.72 2296.48,1445.72 2302.12,1445.72 2307.77,1445.72 2313.41,1445.72 2319.06,1445.72 2324.7,1445.72 2330.35,1445.72 2335.99,1445.72 "/>
<polyline clip-path="url(#clip324)" style="stroke:#ff0000; stroke-linecap:round; stroke-linejoin:round; stroke-width:4; stroke-opacity:1; fill:none" stroke-dasharray="16, 10" points="1777.17,1445.72 1782.82,1445.72 1788.46,1445.72 1794.11,1445.72 1799.75,1445.72 1805.4,1445.72 1811.04,1445.72 1816.69,1445.72 1822.33,1445.72 1827.98,1445.72 1833.62,1445.72 1839.27,1445.72 1844.91,1445.72 1850.55,1445.72 1856.2,1445.72 1861.84,1445.72 1867.49,1445.72 1873.13,1445.72 1878.78,1445.72 1884.42,1445.72 1890.07,1445.72 1895.71,1445.72 1901.36,1445.72 1907,1445.72 1912.65,1445.72 1918.29,1445.72 1923.93,1445.72 1929.58,1445.72 1935.22,1445.72 1940.87,1445.72 1946.51,1445.72 1952.16,1445.72 1957.8,1445.72 1963.45,1445.72 1969.09,1445.72 1974.74,1445.72 1980.38,1445.72 1986.03,1445.72 1991.67,1445.72 1997.31,1445.72 2002.96,1445.72 2008.6,1445.72 2014.25,1445.72 2019.89,1445.72 2025.54,1445.72 2031.18,1445.72 2036.83,1445.72 2042.47,1445.72 2048.12,1445.72 2053.76,1445.72 2059.41,1445.72 2065.05,1445.72 2070.69,1445.72 2076.34,1445.72 2081.98,1445.72 2087.63,1445.72 2093.27,1445.72 2098.92,1445.72 2104.56,1445.72 2110.21,1445.72 2115.85,1445.72 2121.5,1445.72 2127.14,1445.72 2132.79,1445.72 2138.43,1445.72 2144.07,1445.72 2149.72,1445.72 2155.36,1445.72 2161.01,1445.72 2166.65,1445.72 2172.3,1445.72 2177.94,1445.72 2183.59,1445.72 2189.23,1445.72 2194.88,1445.72 2200.52,1445.72 2206.17,1445.72 2211.81,1445.72 2217.45,1445.72 2223.1,1445.72 2228.74,1445.72 2234.39,1445.72 2240.03,1445.72 2245.68,1445.72 2251.32,1445.72 2256.97,1445.72 2262.61,1445.72 2268.26,1445.72 2273.9,1445.72 2279.55,1445.72 2285.19,1445.72 2290.83,1445.72 2296.48,1445.72 2302.12,1445.72 2307.77,1445.72 2313.41,1445.72 2319.06,1445.72 2324.7,1445.72 2330.35,1445.72 2335.99,1445.72 "/>
<path clip-path="url(#clip320)" d="M2002.18 250.738 L2333.01 250.738 L2333.01 95.2176 L2002.18 95.2176  Z" fill="#ffffff" fill-rule="evenodd" fill-opacity="1"/>
<polyline clip-path="url(#clip320)" style="stroke:#000000; stroke-linecap:round; stroke-linejoin:round; stroke-width:4; stroke-opacity:1; fill:none" points="2002.18,250.738 2333.01,250.738 2333.01,95.2176 2002.18,95.2176 2002.18,250.738 "/>
<polyline clip-path="url(#clip320)" style="stroke:#0000ff; stroke-linecap:round; stroke-linejoin:round; stroke-width:4; stroke-opacity:1; fill:none" points="2008.76,147.058 2048.25,147.058 "/>
<path clip-path="url(#clip320)" d="M2062.45 142.486 L2068.12 158.504 L2076.22 138.412 L2080.74 138.412 L2070.25 164.338 L2070.25 174.199 L2065.99 174.199 L2065.99 164.338 L2059.19 144.986 Q2058.17 142.069 2055.97 142.069 L2054.83 142.069 L2054.83 138.412 L2056.45 138.412 Q2061.01 138.412 2062.45 142.486 Z" fill="#000000" fill-rule="nonzero" fill-opacity="1" /><path clip-path="url(#clip320)" d="M2106.31 172.208 L2106.31 175.518 L2081.69 175.518 L2081.69 172.208 L2106.31 172.208 Z" fill="#000000" fill-rule="nonzero" fill-opacity="1" /><path clip-path="url(#clip320)" d="M2130.5 143.389 Q2132.1 140.518 2134.32 139.153 Q2136.55 137.787 2139.56 137.787 Q2143.61 137.787 2145.81 140.634 Q2148 143.458 2148 148.689 L2148 164.338 L2143.72 164.338 L2143.72 148.828 Q2143.72 145.102 2142.4 143.296 Q2141.08 141.49 2138.37 141.49 Q2135.06 141.49 2133.14 143.69 Q2131.22 145.889 2131.22 149.685 L2131.22 164.338 L2126.94 164.338 L2126.94 148.828 Q2126.94 145.078 2125.62 143.296 Q2124.3 141.49 2121.55 141.49 Q2118.28 141.49 2116.36 143.713 Q2114.44 145.912 2114.44 149.685 L2114.44 164.338 L2110.16 164.338 L2110.16 138.412 L2114.44 138.412 L2114.44 142.44 Q2115.9 140.055 2117.94 138.921 Q2119.97 137.787 2122.77 137.787 Q2125.6 137.787 2127.56 139.222 Q2129.56 140.657 2130.5 143.389 Z" fill="#000000" fill-rule="nonzero" fill-opacity="1" /><path clip-path="url(#clip320)" d="M2168.28 151.305 Q2163.12 151.305 2161.13 152.486 Q2159.14 153.666 2159.14 156.514 Q2159.14 158.782 2160.62 160.125 Q2162.12 161.444 2164.69 161.444 Q2168.24 161.444 2170.37 158.944 Q2172.52 156.421 2172.52 152.254 L2172.52 151.305 L2168.28 151.305 M2176.78 149.546 L2176.78 164.338 L2172.52 164.338 L2172.52 160.402 Q2171.06 162.763 2168.88 163.898 Q2166.71 165.009 2163.56 165.009 Q2159.58 165.009 2157.22 162.787 Q2154.88 160.541 2154.88 156.791 Q2154.88 152.416 2157.8 150.194 Q2160.74 147.972 2166.55 147.972 L2172.52 147.972 L2172.52 147.555 Q2172.52 144.615 2170.57 143.018 Q2168.65 141.398 2165.16 141.398 Q2162.93 141.398 2160.83 141.93 Q2158.72 142.463 2156.78 143.527 L2156.78 139.592 Q2159.12 138.69 2161.31 138.25 Q2163.51 137.787 2165.6 137.787 Q2171.22 137.787 2174 140.703 Q2176.78 143.62 2176.78 149.546 Z" fill="#000000" fill-rule="nonzero" fill-opacity="1" /><path clip-path="url(#clip320)" d="M2189.76 131.051 L2189.76 138.412 L2198.54 138.412 L2198.54 141.722 L2189.76 141.722 L2189.76 155.796 Q2189.76 158.967 2190.62 159.87 Q2191.5 160.773 2194.16 160.773 L2198.54 160.773 L2198.54 164.338 L2194.16 164.338 Q2189.23 164.338 2187.36 162.509 Q2185.48 160.657 2185.48 155.796 L2185.48 141.722 L2182.36 141.722 L2182.36 138.412 L2185.48 138.412 L2185.48 131.051 L2189.76 131.051 Z" fill="#000000" fill-rule="nonzero" fill-opacity="1" /><path clip-path="url(#clip320)" d="M2219.16 142.393 Q2218.44 141.977 2217.59 141.791 Q2216.75 141.583 2215.74 141.583 Q2212.12 141.583 2210.18 143.944 Q2208.26 146.282 2208.26 150.68 L2208.26 164.338 L2203.98 164.338 L2203.98 138.412 L2208.26 138.412 L2208.26 142.44 Q2209.6 140.078 2211.75 138.944 Q2213.91 137.787 2216.99 137.787 Q2217.43 137.787 2217.96 137.856 Q2218.49 137.903 2219.14 138.018 L2219.16 142.393 Z" fill="#000000" fill-rule="nonzero" fill-opacity="1" /><path clip-path="url(#clip320)" d="M2223.63 138.412 L2227.89 138.412 L2227.89 164.338 L2223.63 164.338 L2223.63 138.412 M2223.63 128.319 L2227.89 128.319 L2227.89 133.713 L2223.63 133.713 L2223.63 128.319 Z" fill="#000000" fill-rule="nonzero" fill-opacity="1" /><path clip-path="url(#clip320)" d="M2258.35 138.412 L2248.98 151.027 L2258.84 164.338 L2253.81 164.338 L2246.27 154.152 L2238.72 164.338 L2233.7 164.338 L2243.77 150.773 L2234.55 138.412 L2239.58 138.412 L2246.45 147.648 L2253.33 138.412 L2258.35 138.412 Z" fill="#000000" fill-rule="nonzero" fill-opacity="1" /><polyline clip-path="url(#clip320)" style="stroke:#ff0000; stroke-linecap:round; stroke-linejoin:round; stroke-width:4; stroke-opacity:1; fill:none" stroke-dasharray="16, 10" points="2008.76,198.898 2048.25,198.898 "/>
<path clip-path="url(#clip320)" d="M2062.45 194.326 L2068.12 210.344 L2076.22 190.252 L2080.74 190.252 L2070.25 216.178 L2070.25 226.039 L2065.99 226.039 L2065.99 216.178 L2059.19 196.826 Q2058.17 193.909 2055.97 193.909 L2054.83 193.909 L2054.83 190.252 L2056.45 190.252 Q2061.01 190.252 2062.45 194.326 Z" fill="#000000" fill-rule="nonzero" fill-opacity="1" /><path clip-path="url(#clip320)" d="M2106.31 224.048 L2106.31 227.358 L2081.69 227.358 L2081.69 224.048 L2106.31 224.048 Z" fill="#000000" fill-rule="nonzero" fill-opacity="1" /><path clip-path="url(#clip320)" d="M2114.44 212.289 L2114.44 226.039 L2110.16 226.039 L2110.16 190.252 L2114.44 190.252 L2114.44 194.187 Q2115.78 191.872 2117.82 190.761 Q2119.88 189.627 2122.73 189.627 Q2127.45 189.627 2130.39 193.377 Q2133.35 197.127 2133.35 203.238 Q2133.35 209.349 2130.39 213.099 Q2127.45 216.849 2122.73 216.849 Q2119.88 216.849 2117.82 215.738 Q2115.78 214.603 2114.44 212.289 M2128.93 203.238 Q2128.93 198.539 2126.99 195.877 Q2125.06 193.192 2121.69 193.192 Q2118.31 193.192 2116.36 195.877 Q2114.44 198.539 2114.44 203.238 Q2114.44 207.937 2116.36 210.622 Q2118.31 213.284 2121.69 213.284 Q2125.06 213.284 2126.99 210.622 Q2128.93 207.937 2128.93 203.238 Z" fill="#000000" fill-rule="nonzero" fill-opacity="1" /><path clip-path="url(#clip320)" d="M2155.43 194.233 Q2154.72 193.817 2153.86 193.631 Q2153.03 193.423 2152.01 193.423 Q2148.4 193.423 2146.45 195.784 Q2144.53 198.122 2144.53 202.52 L2144.53 216.178 L2140.25 216.178 L2140.25 190.252 L2144.53 190.252 L2144.53 194.28 Q2145.87 191.918 2148.03 190.784 Q2150.18 189.627 2153.26 189.627 Q2153.7 189.627 2154.23 189.696 Q2154.76 189.743 2155.41 189.858 L2155.43 194.233 Z" fill="#000000" fill-rule="nonzero" fill-opacity="1" /><path clip-path="url(#clip320)" d="M2181.04 202.15 L2181.04 204.233 L2161.45 204.233 Q2161.73 208.631 2164.09 210.946 Q2166.48 213.238 2170.71 213.238 Q2173.17 213.238 2175.46 212.636 Q2177.77 212.034 2180.04 210.83 L2180.04 214.858 Q2177.75 215.83 2175.34 216.34 Q2172.93 216.849 2170.46 216.849 Q2164.25 216.849 2160.62 213.238 Q2157.01 209.627 2157.01 203.469 Q2157.01 197.104 2160.43 193.377 Q2163.88 189.627 2169.72 189.627 Q2174.95 189.627 2177.98 193.006 Q2181.04 196.363 2181.04 202.15 M2176.78 200.9 Q2176.73 197.405 2174.81 195.321 Q2172.91 193.238 2169.76 193.238 Q2166.2 193.238 2164.05 195.252 Q2161.92 197.266 2161.59 200.923 L2176.78 200.9 Z" fill="#000000" fill-rule="nonzero" fill-opacity="1" /><path clip-path="url(#clip320)" d="M2205.09 194.187 L2205.09 180.159 L2209.35 180.159 L2209.35 216.178 L2205.09 216.178 L2205.09 212.289 Q2203.74 214.603 2201.68 215.738 Q2199.65 216.849 2196.78 216.849 Q2192.08 216.849 2189.12 213.099 Q2186.18 209.349 2186.18 203.238 Q2186.18 197.127 2189.12 193.377 Q2192.08 189.627 2196.78 189.627 Q2199.65 189.627 2201.68 190.761 Q2203.74 191.872 2205.09 194.187 M2190.57 203.238 Q2190.57 207.937 2192.49 210.622 Q2194.44 213.284 2197.82 213.284 Q2201.2 213.284 2203.14 210.622 Q2205.09 207.937 2205.09 203.238 Q2205.09 198.539 2203.14 195.877 Q2201.2 193.192 2197.82 193.192 Q2194.44 193.192 2192.49 195.877 Q2190.57 198.539 2190.57 203.238 Z" fill="#000000" fill-rule="nonzero" fill-opacity="1" /><path clip-path="url(#clip320)" d="M2218.12 190.252 L2222.38 190.252 L2222.38 216.178 L2218.12 216.178 L2218.12 190.252 M2218.12 180.159 L2222.38 180.159 L2222.38 185.553 L2218.12 185.553 L2218.12 180.159 Z" fill="#000000" fill-rule="nonzero" fill-opacity="1" /><path clip-path="url(#clip320)" d="M2249.95 191.247 L2249.95 195.229 Q2248.14 194.233 2246.31 193.747 Q2244.51 193.238 2242.66 193.238 Q2238.51 193.238 2236.22 195.877 Q2233.93 198.492 2233.93 203.238 Q2233.93 207.983 2236.22 210.622 Q2238.51 213.238 2242.66 213.238 Q2244.51 213.238 2246.31 212.752 Q2248.14 212.242 2249.95 211.247 L2249.95 215.182 Q2248.17 216.016 2246.24 216.432 Q2244.35 216.849 2242.19 216.849 Q2236.34 216.849 2232.89 213.168 Q2229.44 209.488 2229.44 203.238 Q2229.44 196.895 2232.91 193.261 Q2236.41 189.627 2242.47 189.627 Q2244.44 189.627 2246.31 190.043 Q2248.19 190.437 2249.95 191.247 Z" fill="#000000" fill-rule="nonzero" fill-opacity="1" /><path clip-path="url(#clip320)" d="M2261.57 182.891 L2261.57 190.252 L2270.34 190.252 L2270.34 193.562 L2261.57 193.562 L2261.57 207.636 Q2261.57 210.807 2262.43 211.71 Q2263.3 212.613 2265.97 212.613 L2270.34 212.613 L2270.34 216.178 L2265.97 216.178 Q2261.04 216.178 2259.16 214.349 Q2257.29 212.497 2257.29 207.636 L2257.29 193.562 L2254.16 193.562 L2254.16 190.252 L2257.29 190.252 L2257.29 182.891 L2261.57 182.891 Z" fill="#000000" fill-rule="nonzero" fill-opacity="1" /><path clip-path="url(#clip320)" d="M2298.12 202.15 L2298.12 204.233 L2278.54 204.233 Q2278.81 208.631 2281.18 210.946 Q2283.56 213.238 2287.8 213.238 Q2290.25 213.238 2292.54 212.636 Q2294.86 212.034 2297.12 210.83 L2297.12 214.858 Q2294.83 215.83 2292.42 216.34 Q2290.02 216.849 2287.54 216.849 Q2281.34 216.849 2277.7 213.238 Q2274.09 209.627 2274.09 203.469 Q2274.09 197.104 2277.52 193.377 Q2280.97 189.627 2286.8 189.627 Q2292.03 189.627 2295.06 193.006 Q2298.12 196.363 2298.12 202.15 M2293.86 200.9 Q2293.81 197.405 2291.89 195.321 Q2289.99 193.238 2286.85 193.238 Q2283.28 193.238 2281.13 195.252 Q2279 197.266 2278.68 200.923 L2293.86 200.9 Z" fill="#000000" fill-rule="nonzero" fill-opacity="1" /><path clip-path="url(#clip320)" d="M2322.17 194.187 L2322.17 180.159 L2326.43 180.159 L2326.43 216.178 L2322.17 216.178 L2322.17 212.289 Q2320.83 214.603 2318.77 215.738 Q2316.73 216.849 2313.86 216.849 Q2309.16 216.849 2306.2 213.099 Q2303.26 209.349 2303.26 203.238 Q2303.26 197.127 2306.2 193.377 Q2309.16 189.627 2313.86 189.627 Q2316.73 189.627 2318.77 190.761 Q2320.83 191.872 2322.17 194.187 M2307.66 203.238 Q2307.66 207.937 2309.58 210.622 Q2311.52 213.284 2314.9 213.284 Q2318.28 213.284 2320.23 210.622 Q2322.17 207.937 2322.17 203.238 Q2322.17 198.539 2320.23 195.877 Q2318.28 193.192 2314.9 193.192 Q2311.52 193.192 2309.58 195.877 Q2307.66 198.539 2307.66 203.238 Z" fill="#000000" fill-rule="nonzero" fill-opacity="1" /></svg>
