<?xml version="1.0" encoding="utf-8"?>
<svg xmlns="http://www.w3.org/2000/svg" xmlns:xlink="http://www.w3.org/1999/xlink" width="600" height="400" viewBox="0 0 2400 1600">
<defs>
  <clipPath id="clip830">
    <rect x="0" y="0" width="2400" height="1600"/>
  </clipPath>
</defs>
<path clip-path="url(#clip830)" d="M0 1600 L2400 1600 L2400 0 L0 0  Z" fill="#ffffff" fill-rule="evenodd" fill-opacity="1"/>
<defs>
  <clipPath id="clip831">
    <rect x="480" y="0" width="1681" height="1600"/>
  </clipPath>
</defs>
<path clip-path="url(#clip830)" d="M193.936 1486.45 L755.31 1486.45 L755.31 47.2441 L193.936 47.2441  Z" fill="#ffffff" fill-rule="evenodd" fill-opacity="1"/>
<defs>
  <clipPath id="clip832">
    <rect x="193" y="47" width="562" height="1440"/>
  </clipPath>
</defs>
<polyline clip-path="url(#clip832)" style="stroke:#000000; stroke-linecap:round; stroke-linejoin:round; stroke-width:2; stroke-opacity:0.1; fill:none" points="209.824,1486.45 209.824,47.2441 "/>
<polyline clip-path="url(#clip832)" style="stroke:#000000; stroke-linecap:round; stroke-linejoin:round; stroke-width:2; stroke-opacity:0.1; fill:none" points="294.112,1486.45 294.112,47.2441 "/>
<polyline clip-path="url(#clip832)" style="stroke:#000000; stroke-linecap:round; stroke-linejoin:round; stroke-width:2; stroke-opacity:0.1; fill:none" points="378.4,1486.45 378.4,47.2441 "/>
<polyline clip-path="url(#clip832)" style="stroke:#000000; stroke-linecap:round; stroke-linejoin:round; stroke-width:2; stroke-opacity:0.1; fill:none" points="462.688,1486.45 462.688,47.2441 "/>
<polyline clip-path="url(#clip832)" style="stroke:#000000; stroke-linecap:round; stroke-linejoin:round; stroke-width:2; stroke-opacity:0.1; fill:none" points="546.977,1486.45 546.977,47.2441 "/>
<polyline clip-path="url(#clip832)" style="stroke:#000000; stroke-linecap:round; stroke-linejoin:round; stroke-width:2; stroke-opacity:0.1; fill:none" points="631.265,1486.45 631.265,47.2441 "/>
<polyline clip-path="url(#clip832)" style="stroke:#000000; stroke-linecap:round; stroke-linejoin:round; stroke-width:2; stroke-opacity:0.1; fill:none" points="715.553,1486.45 715.553,47.2441 "/>
<polyline clip-path="url(#clip830)" style="stroke:#000000; stroke-linecap:round; stroke-linejoin:round; stroke-width:4; stroke-opacity:1; fill:none" points="193.936,1486.45 755.31,1486.45 "/>
<polyline clip-path="url(#clip830)" style="stroke:#000000; stroke-linecap:round; stroke-linejoin:round; stroke-width:4; stroke-opacity:1; fill:none" points="209.824,1486.45 209.824,1467.55 "/>
<polyline clip-path="url(#clip830)" style="stroke:#000000; stroke-linecap:round; stroke-linejoin:round; stroke-width:4; stroke-opacity:1; fill:none" points="294.112,1486.45 294.112,1467.55 "/>
<polyline clip-path="url(#clip830)" style="stroke:#000000; stroke-linecap:round; stroke-linejoin:round; stroke-width:4; stroke-opacity:1; fill:none" points="378.4,1486.45 378.4,1467.55 "/>
<polyline clip-path="url(#clip830)" style="stroke:#000000; stroke-linecap:round; stroke-linejoin:round; stroke-width:4; stroke-opacity:1; fill:none" points="462.688,1486.45 462.688,1467.55 "/>
<polyline clip-path="url(#clip830)" style="stroke:#000000; stroke-linecap:round; stroke-linejoin:round; stroke-width:4; stroke-opacity:1; fill:none" points="546.977,1486.45 546.977,1467.55 "/>
<polyline clip-path="url(#clip830)" style="stroke:#000000; stroke-linecap:round; stroke-linejoin:round; stroke-width:4; stroke-opacity:1; fill:none" points="631.265,1486.45 631.265,1467.55 "/>
<polyline clip-path="url(#clip830)" style="stroke:#000000; stroke-linecap:round; stroke-linejoin:round; stroke-width:4; stroke-opacity:1; fill:none" points="715.553,1486.45 715.553,1467.55 "/>
<path clip-path="url(#clip830)" d="M209.824 1517.37 Q206.213 1517.37 204.384 1520.93 Q202.579 1524.47 202.579 1531.6 Q202.579 1538.71 204.384 1542.27 Q206.213 1545.82 209.824 1545.82 Q213.458 1545.82 215.264 1542.27 Q217.092 1538.71 217.092 1531.6 Q217.092 1524.47 215.264 1520.93 Q213.458 1517.37 209.824 1517.37 M209.824 1513.66 Q215.634 1513.66 218.69 1518.27 Q221.768 1522.85 221.768 1531.6 Q221.768 1540.33 218.69 1544.94 Q215.634 1549.52 209.824 1549.52 Q204.014 1549.52 200.935 1544.94 Q197.88 1540.33 197.88 1531.6 Q197.88 1522.85 200.935 1518.27 Q204.014 1513.66 209.824 1513.66 Z" fill="#000000" fill-rule="nonzero" fill-opacity="1" /><path clip-path="url(#clip830)" d="M284.494 1544.91 L292.133 1544.91 L292.133 1518.55 L283.823 1520.21 L283.823 1515.95 L292.087 1514.29 L296.763 1514.29 L296.763 1544.91 L304.401 1544.91 L304.401 1548.85 L284.494 1548.85 L284.494 1544.91 Z" fill="#000000" fill-rule="nonzero" fill-opacity="1" /><path clip-path="url(#clip830)" d="M373.053 1544.91 L389.372 1544.91 L389.372 1548.85 L367.428 1548.85 L367.428 1544.91 Q370.09 1542.16 374.673 1537.53 Q379.28 1532.88 380.46 1531.53 Q382.706 1529.01 383.585 1527.27 Q384.488 1525.51 384.488 1523.82 Q384.488 1521.07 382.544 1519.33 Q380.622 1517.6 377.521 1517.6 Q375.322 1517.6 372.868 1518.36 Q370.437 1519.13 367.66 1520.68 L367.66 1515.95 Q370.484 1514.82 372.937 1514.24 Q375.391 1513.66 377.428 1513.66 Q382.798 1513.66 385.993 1516.35 Q389.187 1519.03 389.187 1523.52 Q389.187 1525.65 388.377 1527.57 Q387.59 1529.47 385.484 1532.07 Q384.905 1532.74 381.803 1535.95 Q378.701 1539.15 373.053 1544.91 Z" fill="#000000" fill-rule="nonzero" fill-opacity="1" /><path clip-path="url(#clip830)" d="M466.936 1530.21 Q470.292 1530.93 472.167 1533.2 Q474.066 1535.47 474.066 1538.8 Q474.066 1543.92 470.547 1546.72 Q467.029 1549.52 460.547 1549.52 Q458.371 1549.52 456.056 1549.08 Q453.765 1548.66 451.311 1547.81 L451.311 1543.29 Q453.256 1544.43 455.57 1545.01 Q457.885 1545.58 460.408 1545.58 Q464.806 1545.58 467.098 1543.85 Q469.413 1542.11 469.413 1538.8 Q469.413 1535.75 467.26 1534.03 Q465.13 1532.3 461.311 1532.3 L457.283 1532.3 L457.283 1528.45 L461.496 1528.45 Q464.945 1528.45 466.774 1527.09 Q468.603 1525.7 468.603 1523.11 Q468.603 1520.45 466.705 1519.03 Q464.83 1517.6 461.311 1517.6 Q459.39 1517.6 457.191 1518.01 Q454.992 1518.43 452.353 1519.31 L452.353 1515.14 Q455.015 1514.4 457.33 1514.03 Q459.668 1513.66 461.728 1513.66 Q467.052 1513.66 470.154 1516.09 Q473.255 1518.5 473.255 1522.62 Q473.255 1525.49 471.612 1527.48 Q469.968 1529.45 466.936 1530.21 Z" fill="#000000" fill-rule="nonzero" fill-opacity="1" /><path clip-path="url(#clip830)" d="M549.986 1518.36 L538.18 1536.81 L549.986 1536.81 L549.986 1518.36 M548.759 1514.29 L554.639 1514.29 L554.639 1536.81 L559.569 1536.81 L559.569 1540.7 L554.639 1540.7 L554.639 1548.85 L549.986 1548.85 L549.986 1540.7 L534.384 1540.7 L534.384 1536.19 L548.759 1514.29 Z" fill="#000000" fill-rule="nonzero" fill-opacity="1" /><path clip-path="url(#clip830)" d="M621.542 1514.29 L639.899 1514.29 L639.899 1518.22 L625.825 1518.22 L625.825 1526.7 Q626.843 1526.35 627.862 1526.19 Q628.88 1526 629.899 1526 Q635.686 1526 639.066 1529.17 Q642.445 1532.34 642.445 1537.76 Q642.445 1543.34 638.973 1546.44 Q635.501 1549.52 629.181 1549.52 Q627.005 1549.52 624.737 1549.15 Q622.492 1548.78 620.084 1548.04 L620.084 1543.34 Q622.167 1544.47 624.39 1545.03 Q626.612 1545.58 629.089 1545.58 Q633.093 1545.58 635.431 1543.48 Q637.769 1541.37 637.769 1537.76 Q637.769 1534.15 635.431 1532.04 Q633.093 1529.94 629.089 1529.94 Q627.214 1529.94 625.339 1530.35 Q623.487 1530.77 621.542 1531.65 L621.542 1514.29 Z" fill="#000000" fill-rule="nonzero" fill-opacity="1" /><path clip-path="url(#clip830)" d="M715.958 1529.7 Q712.81 1529.7 710.958 1531.86 Q709.129 1534.01 709.129 1537.76 Q709.129 1541.49 710.958 1543.66 Q712.81 1545.82 715.958 1545.82 Q719.106 1545.82 720.935 1543.66 Q722.787 1541.49 722.787 1537.76 Q722.787 1534.01 720.935 1531.86 Q719.106 1529.7 715.958 1529.7 M725.24 1515.05 L725.24 1519.31 Q723.481 1518.48 721.675 1518.04 Q719.893 1517.6 718.134 1517.6 Q713.504 1517.6 711.051 1520.72 Q708.62 1523.85 708.273 1530.17 Q709.638 1528.15 711.699 1527.09 Q713.759 1526 716.236 1526 Q721.444 1526 724.453 1529.17 Q727.486 1532.32 727.486 1537.76 Q727.486 1543.08 724.337 1546.3 Q721.189 1549.52 715.958 1549.52 Q709.963 1549.52 706.791 1544.94 Q703.62 1540.33 703.62 1531.6 Q703.62 1523.41 707.509 1518.55 Q711.398 1513.66 717.949 1513.66 Q719.708 1513.66 721.49 1514.01 Q723.296 1514.36 725.24 1515.05 Z" fill="#000000" fill-rule="nonzero" fill-opacity="1" /><polyline clip-path="url(#clip832)" style="stroke:#000000; stroke-linecap:round; stroke-linejoin:round; stroke-width:2; stroke-opacity:0.1; fill:none" points="193.936,1446.05 755.31,1446.05 "/>
<polyline clip-path="url(#clip832)" style="stroke:#000000; stroke-linecap:round; stroke-linejoin:round; stroke-width:2; stroke-opacity:0.1; fill:none" points="193.936,1111.15 755.31,1111.15 "/>
<polyline clip-path="url(#clip832)" style="stroke:#000000; stroke-linecap:round; stroke-linejoin:round; stroke-width:2; stroke-opacity:0.1; fill:none" points="193.936,776.245 755.31,776.245 "/>
<polyline clip-path="url(#clip832)" style="stroke:#000000; stroke-linecap:round; stroke-linejoin:round; stroke-width:2; stroke-opacity:0.1; fill:none" points="193.936,441.342 755.31,441.342 "/>
<polyline clip-path="url(#clip832)" style="stroke:#000000; stroke-linecap:round; stroke-linejoin:round; stroke-width:2; stroke-opacity:0.1; fill:none" points="193.936,106.438 755.31,106.438 "/>
<polyline clip-path="url(#clip830)" style="stroke:#000000; stroke-linecap:round; stroke-linejoin:round; stroke-width:4; stroke-opacity:1; fill:none" points="193.936,1486.45 193.936,47.2441 "/>
<polyline clip-path="url(#clip830)" style="stroke:#000000; stroke-linecap:round; stroke-linejoin:round; stroke-width:4; stroke-opacity:1; fill:none" points="193.936,1446.05 212.834,1446.05 "/>
<polyline clip-path="url(#clip830)" style="stroke:#000000; stroke-linecap:round; stroke-linejoin:round; stroke-width:4; stroke-opacity:1; fill:none" points="193.936,1111.15 212.834,1111.15 "/>
<polyline clip-path="url(#clip830)" style="stroke:#000000; stroke-linecap:round; stroke-linejoin:round; stroke-width:4; stroke-opacity:1; fill:none" points="193.936,776.245 212.834,776.245 "/>
<polyline clip-path="url(#clip830)" style="stroke:#000000; stroke-linecap:round; stroke-linejoin:round; stroke-width:4; stroke-opacity:1; fill:none" points="193.936,441.342 212.834,441.342 "/>
<polyline clip-path="url(#clip830)" style="stroke:#000000; stroke-linecap:round; stroke-linejoin:round; stroke-width:4; stroke-opacity:1; fill:none" points="193.936,106.438 212.834,106.438 "/>
<path clip-path="url(#clip830)" d="M50.9921 1446.5 L80.6679 1446.5 L80.6679 1450.44 L50.9921 1450.44 L50.9921 1446.5 Z" fill="#000000" fill-rule="nonzero" fill-opacity="1" /><path clip-path="url(#clip830)" d="M91.5706 1459.4 L99.2095 1459.4 L99.2095 1433.03 L90.8993 1434.7 L90.8993 1430.44 L99.1632 1428.77 L103.839 1428.77 L103.839 1459.4 L111.478 1459.4 L111.478 1463.33 L91.5706 1463.33 L91.5706 1459.4 Z" fill="#000000" fill-rule="nonzero" fill-opacity="1" /><path clip-path="url(#clip830)" d="M120.922 1457.45 L125.807 1457.45 L125.807 1463.33 L120.922 1463.33 L120.922 1457.45 Z" fill="#000000" fill-rule="nonzero" fill-opacity="1" /><path clip-path="url(#clip830)" d="M145.992 1431.85 Q142.381 1431.85 140.552 1435.42 Q138.746 1438.96 138.746 1446.09 Q138.746 1453.19 140.552 1456.76 Q142.381 1460.3 145.992 1460.3 Q149.626 1460.3 151.431 1456.76 Q153.26 1453.19 153.26 1446.09 Q153.26 1438.96 151.431 1435.42 Q149.626 1431.85 145.992 1431.85 M145.992 1428.15 Q151.802 1428.15 154.857 1432.75 Q157.936 1437.34 157.936 1446.09 Q157.936 1454.81 154.857 1459.42 Q151.802 1464 145.992 1464 Q140.181 1464 137.103 1459.42 Q134.047 1454.81 134.047 1446.09 Q134.047 1437.34 137.103 1432.75 Q140.181 1428.15 145.992 1428.15 Z" fill="#000000" fill-rule="nonzero" fill-opacity="1" /><path clip-path="url(#clip830)" d="M51.9875 1111.6 L81.6633 1111.6 L81.6633 1115.54 L51.9875 1115.54 L51.9875 1111.6 Z" fill="#000000" fill-rule="nonzero" fill-opacity="1" /><path clip-path="url(#clip830)" d="M101.756 1096.95 Q98.1447 1096.95 96.316 1100.51 Q94.5104 1104.05 94.5104 1111.18 Q94.5104 1118.29 96.316 1121.86 Q98.1447 1125.4 101.756 1125.4 Q105.39 1125.4 107.196 1121.86 Q109.024 1118.29 109.024 1111.18 Q109.024 1104.05 107.196 1100.51 Q105.39 1096.95 101.756 1096.95 M101.756 1093.24 Q107.566 1093.24 110.621 1097.85 Q113.7 1102.43 113.7 1111.18 Q113.7 1119.91 110.621 1124.52 Q107.566 1129.1 101.756 1129.1 Q95.9456 1129.1 92.8669 1124.52 Q89.8114 1119.91 89.8114 1111.18 Q89.8114 1102.43 92.8669 1097.85 Q95.9456 1093.24 101.756 1093.24 Z" fill="#000000" fill-rule="nonzero" fill-opacity="1" /><path clip-path="url(#clip830)" d="M121.918 1122.55 L126.802 1122.55 L126.802 1128.43 L121.918 1128.43 L121.918 1122.55 Z" fill="#000000" fill-rule="nonzero" fill-opacity="1" /><path clip-path="url(#clip830)" d="M137.033 1093.87 L155.39 1093.87 L155.39 1097.8 L141.316 1097.8 L141.316 1106.28 Q142.334 1105.93 143.353 1105.77 Q144.371 1105.58 145.39 1105.58 Q151.177 1105.58 154.556 1108.75 Q157.936 1111.92 157.936 1117.34 Q157.936 1122.92 154.464 1126.02 Q150.992 1129.1 144.672 1129.1 Q142.496 1129.1 140.228 1128.73 Q137.982 1128.36 135.575 1127.62 L135.575 1122.92 Q137.658 1124.05 139.881 1124.61 Q142.103 1125.17 144.58 1125.17 Q148.584 1125.17 150.922 1123.06 Q153.26 1120.95 153.26 1117.34 Q153.26 1113.73 150.922 1111.62 Q148.584 1109.52 144.58 1109.52 Q142.705 1109.52 140.83 1109.93 Q138.978 1110.35 137.033 1111.23 L137.033 1093.87 Z" fill="#000000" fill-rule="nonzero" fill-opacity="1" /><path clip-path="url(#clip830)" d="M100.76 762.044 Q97.1493 762.044 95.3206 765.609 Q93.515 769.151 93.515 776.28 Q93.515 783.387 95.3206 786.951 Q97.1493 790.493 100.76 790.493 Q104.395 790.493 106.2 786.951 Q108.029 783.387 108.029 776.28 Q108.029 769.151 106.2 765.609 Q104.395 762.044 100.76 762.044 M100.76 758.341 Q106.571 758.341 109.626 762.947 Q112.705 767.53 112.705 776.28 Q112.705 785.007 109.626 789.613 Q106.571 794.197 100.76 794.197 Q94.9502 794.197 91.8715 789.613 Q88.816 785.007 88.816 776.28 Q88.816 767.53 91.8715 762.947 Q94.9502 758.341 100.76 758.341 Z" fill="#000000" fill-rule="nonzero" fill-opacity="1" /><path clip-path="url(#clip830)" d="M120.922 787.646 L125.807 787.646 L125.807 793.525 L120.922 793.525 L120.922 787.646 Z" fill="#000000" fill-rule="nonzero" fill-opacity="1" /><path clip-path="url(#clip830)" d="M145.992 762.044 Q142.381 762.044 140.552 765.609 Q138.746 769.151 138.746 776.28 Q138.746 783.387 140.552 786.951 Q142.381 790.493 145.992 790.493 Q149.626 790.493 151.431 786.951 Q153.26 783.387 153.26 776.28 Q153.26 769.151 151.431 765.609 Q149.626 762.044 145.992 762.044 M145.992 758.341 Q151.802 758.341 154.857 762.947 Q157.936 767.53 157.936 776.28 Q157.936 785.007 154.857 789.613 Q151.802 794.197 145.992 794.197 Q140.181 794.197 137.103 789.613 Q134.047 785.007 134.047 776.28 Q134.047 767.53 137.103 762.947 Q140.181 758.341 145.992 758.341 Z" fill="#000000" fill-rule="nonzero" fill-opacity="1" /><path clip-path="url(#clip830)" d="M101.756 427.14 Q98.1447 427.14 96.316 430.705 Q94.5104 434.247 94.5104 441.377 Q94.5104 448.483 96.316 452.048 Q98.1447 455.589 101.756 455.589 Q105.39 455.589 107.196 452.048 Q109.024 448.483 109.024 441.377 Q109.024 434.247 107.196 430.705 Q105.39 427.14 101.756 427.14 M101.756 423.437 Q107.566 423.437 110.621 428.043 Q113.7 432.627 113.7 441.377 Q113.7 450.103 110.621 454.71 Q107.566 459.293 101.756 459.293 Q95.9456 459.293 92.8669 454.71 Q89.8114 450.103 89.8114 441.377 Q89.8114 432.627 92.8669 428.043 Q95.9456 423.437 101.756 423.437 Z" fill="#000000" fill-rule="nonzero" fill-opacity="1" /><path clip-path="url(#clip830)" d="M121.918 452.742 L126.802 452.742 L126.802 458.622 L121.918 458.622 L121.918 452.742 Z" fill="#000000" fill-rule="nonzero" fill-opacity="1" /><path clip-path="url(#clip830)" d="M137.033 424.062 L155.39 424.062 L155.39 427.997 L141.316 427.997 L141.316 436.469 Q142.334 436.122 143.353 435.96 Q144.371 435.775 145.39 435.775 Q151.177 435.775 154.556 438.946 Q157.936 442.117 157.936 447.534 Q157.936 453.113 154.464 456.214 Q150.992 459.293 144.672 459.293 Q142.496 459.293 140.228 458.923 Q137.982 458.552 135.575 457.812 L135.575 453.113 Q137.658 454.247 139.881 454.802 Q142.103 455.358 144.58 455.358 Q148.584 455.358 150.922 453.251 Q153.26 451.145 153.26 447.534 Q153.26 443.923 150.922 441.816 Q148.584 439.71 144.58 439.71 Q142.705 439.71 140.83 440.127 Q138.978 440.543 137.033 441.423 L137.033 424.062 Z" fill="#000000" fill-rule="nonzero" fill-opacity="1" /><path clip-path="url(#clip830)" d="M91.5706 119.783 L99.2095 119.783 L99.2095 93.4173 L90.8993 95.084 L90.8993 90.8247 L99.1632 89.1581 L103.839 89.1581 L103.839 119.783 L111.478 119.783 L111.478 123.718 L91.5706 123.718 L91.5706 119.783 Z" fill="#000000" fill-rule="nonzero" fill-opacity="1" /><path clip-path="url(#clip830)" d="M120.922 117.838 L125.807 117.838 L125.807 123.718 L120.922 123.718 L120.922 117.838 Z" fill="#000000" fill-rule="nonzero" fill-opacity="1" /><path clip-path="url(#clip830)" d="M145.992 92.2368 Q142.381 92.2368 140.552 95.8016 Q138.746 99.3432 138.746 106.473 Q138.746 113.579 140.552 117.144 Q142.381 120.686 145.992 120.686 Q149.626 120.686 151.431 117.144 Q153.26 113.579 153.26 106.473 Q153.26 99.3432 151.431 95.8016 Q149.626 92.2368 145.992 92.2368 M145.992 88.5331 Q151.802 88.5331 154.857 93.1395 Q157.936 97.7229 157.936 106.473 Q157.936 115.2 154.857 119.806 Q151.802 124.389 145.992 124.389 Q140.181 124.389 137.103 119.806 Q134.047 115.2 134.047 106.473 Q134.047 97.7229 137.103 93.1395 Q140.181 88.5331 145.992 88.5331 Z" fill="#000000" fill-rule="nonzero" fill-opacity="1" /><polyline clip-path="url(#clip832)" style="stroke:#0000ff; stroke-linecap:round; stroke-linejoin:round; stroke-width:4; stroke-opacity:1; fill:none" points="209.824,106.438 215.173,107.787 220.523,111.827 225.872,118.542 231.222,127.906 236.571,139.881 241.921,154.418 247.27,171.459 252.62,190.935 257.969,212.768 263.319,236.87 268.668,263.143 274.018,291.483 279.367,321.775 284.717,353.897 290.066,387.719 295.416,423.106 300.765,459.915 306.114,497.997 311.464,537.2 316.813,577.366 322.163,618.332 327.512,659.935 332.862,702.005 338.211,744.375 343.561,786.873 348.91,829.328 354.26,871.569 359.609,913.427 364.959,954.732 370.308,995.318 375.658,1035.02 381.007,1073.68 386.357,1111.15 391.706,1147.27 397.056,1181.89 402.405,1214.88 407.755,1246.1 413.104,1275.43 418.453,1302.75 423.803,1327.95 429.152,1350.93 434.502,1371.59 439.851,1389.86 445.201,1405.66 450.55,1418.92 455.9,1429.6 461.249,1437.64 466.599,1443.02 471.948,1445.72 477.298,1445.72 482.647,1443.02 487.997,1437.64 493.346,1429.6 498.696,1418.92 504.045,1405.66 509.395,1389.86 514.744,1371.59 520.093,1350.93 525.443,1327.95 530.792,1302.75 536.142,1275.43 541.491,1246.1 546.841,1214.88 552.19,1181.89 557.54,1147.27 562.889,1111.15 568.239,1073.68 573.588,1035.02 578.938,995.318 584.287,954.732 589.637,913.427 594.986,871.569 600.336,829.328 605.685,786.873 611.035,744.375 616.384,702.005 621.734,659.935 627.083,618.332 632.432,577.366 637.782,537.2 643.131,497.997 648.481,459.915 653.83,423.106 659.18,387.719 664.529,353.897 669.879,321.775 675.228,291.483 680.578,263.143 685.927,236.87 691.277,212.768 696.626,190.935 701.976,171.459 707.325,154.418 712.675,139.881 718.024,127.906 723.374,118.542 728.723,111.827 734.072,107.787 739.422,106.438 "/>
<polyline clip-path="url(#clip832)" style="stroke:#ff0000; stroke-linecap:round; stroke-linejoin:round; stroke-width:4; stroke-opacity:1; fill:none" stroke-dasharray="16, 10" points="209.824,92.2012 215.173,87.9763 220.523,88.019 225.872,92.1331 231.222,100.122 236.571,111.79 241.921,126.94 247.27,145.376 252.62,166.902 257.969,191.322 263.319,218.438 268.668,248.055 274.018,279.977 279.367,314.006 284.717,349.948 290.066,387.604 295.416,426.78 300.765,467.279 306.114,508.904 311.464,551.459 316.813,594.748 322.163,638.575 327.512,682.742 332.862,727.055 338.211,771.316 343.561,815.329 348.91,858.898 354.26,901.827 359.609,943.918 364.959,984.977 370.308,1024.81 375.658,1063.21 381.007,1099.99 386.357,1134.95 391.706,1167.93 397.056,1198.89 402.405,1227.83 407.755,1254.74 413.104,1279.61 418.453,1302.44 423.803,1323.23 429.152,1341.97 434.502,1358.66 439.851,1373.29 445.201,1385.85 450.55,1396.35 455.9,1404.78 461.249,1411.12 466.599,1415.39 471.948,1417.56 477.298,1417.65 482.647,1415.64 487.997,1411.52 493.346,1405.3 498.696,1396.96 504.045,1386.51 509.395,1373.94 514.744,1359.25 520.093,1342.42 525.443,1323.45 530.792,1302.35 536.142,1279.09 541.491,1253.69 546.841,1226.13 552.19,1196.42 557.54,1164.53 562.889,1130.48 568.239,1094.29 573.588,1056.16 578.938,1016.31 584.287,974.983 589.637,932.4 594.986,888.794 600.336,844.395 605.685,799.435 611.035,754.143 616.384,708.75 621.734,663.486 627.083,618.582 632.432,574.269 637.782,530.775 643.131,488.333 648.481,447.172 653.83,407.522 659.18,369.615 664.529,333.68 669.879,299.949 675.228,268.65 680.578,240.016 685.927,214.275 691.277,191.66 696.626,172.399 701.976,156.723 707.325,144.864 712.675,137.05 718.024,133.514 723.374,134.484 728.723,140.192 734.072,150.867 739.422,166.741 "/>
<path clip-path="url(#clip830)" d="M408.864 1438.47 L736.597 1438.47 L736.597 1282.95 L408.864 1282.95  Z" fill="#ffffff" fill-rule="evenodd" fill-opacity="1"/>
<polyline clip-path="url(#clip830)" style="stroke:#000000; stroke-linecap:round; stroke-linejoin:round; stroke-width:4; stroke-opacity:1; fill:none" points="408.864,1438.47 736.597,1438.47 736.597,1282.95 408.864,1282.95 408.864,1438.47 "/>
<polyline clip-path="url(#clip830)" style="stroke:#0000ff; stroke-linecap:round; stroke-linejoin:round; stroke-width:4; stroke-opacity:1; fill:none" points="415.102,1334.79 452.527,1334.79 "/>
<path clip-path="url(#clip830)" d="M466.38 1330.22 L472.051 1346.24 L480.153 1326.15 L484.667 1326.15 L474.181 1352.07 L474.181 1361.94 L469.922 1361.94 L469.922 1352.07 L463.116 1332.72 Q462.098 1329.81 459.898 1329.81 L458.764 1329.81 L458.764 1326.15 L460.385 1326.15 Q464.945 1326.15 466.38 1330.22 Z" fill="#000000" fill-rule="nonzero" fill-opacity="1" /><path clip-path="url(#clip830)" d="M510.245 1359.94 L510.245 1363.25 L485.616 1363.25 L485.616 1359.94 L510.245 1359.94 Z" fill="#000000" fill-rule="nonzero" fill-opacity="1" /><path clip-path="url(#clip830)" d="M534.435 1331.13 Q536.032 1328.26 538.255 1326.89 Q540.477 1325.52 543.486 1325.52 Q547.537 1325.52 549.736 1328.37 Q551.935 1331.19 551.935 1336.43 L551.935 1352.07 L547.653 1352.07 L547.653 1336.57 Q547.653 1332.84 546.333 1331.03 Q545.014 1329.23 542.305 1329.23 Q538.995 1329.23 537.074 1331.43 Q535.153 1333.63 535.153 1337.42 L535.153 1352.07 L530.87 1352.07 L530.87 1336.57 Q530.87 1332.82 529.551 1331.03 Q528.231 1329.23 525.477 1329.23 Q522.213 1329.23 520.292 1331.45 Q518.37 1333.65 518.37 1337.42 L518.37 1352.07 L514.088 1352.07 L514.088 1326.15 L518.37 1326.15 L518.37 1330.18 Q519.829 1327.79 521.866 1326.66 Q523.903 1325.52 526.704 1325.52 Q529.528 1325.52 531.495 1326.96 Q533.486 1328.39 534.435 1331.13 Z" fill="#000000" fill-rule="nonzero" fill-opacity="1" /><path clip-path="url(#clip830)" d="M572.213 1339.04 Q567.051 1339.04 565.06 1340.22 Q563.069 1341.4 563.069 1344.25 Q563.069 1346.52 564.551 1347.86 Q566.055 1349.18 568.625 1349.18 Q572.166 1349.18 574.296 1346.68 Q576.449 1344.16 576.449 1339.99 L576.449 1339.04 L572.213 1339.04 M580.708 1337.28 L580.708 1352.07 L576.449 1352.07 L576.449 1348.14 Q574.99 1350.5 572.815 1351.63 Q570.639 1352.75 567.49 1352.75 Q563.509 1352.75 561.148 1350.52 Q558.81 1348.28 558.81 1344.53 Q558.81 1340.15 561.727 1337.93 Q564.666 1335.71 570.477 1335.71 L576.449 1335.71 L576.449 1335.29 Q576.449 1332.35 574.504 1330.76 Q572.583 1329.13 569.088 1329.13 Q566.865 1329.13 564.759 1329.67 Q562.653 1330.2 560.708 1331.26 L560.708 1327.33 Q563.046 1326.43 565.245 1325.99 Q567.444 1325.52 569.527 1325.52 Q575.152 1325.52 577.93 1328.44 Q580.708 1331.36 580.708 1337.28 Z" fill="#000000" fill-rule="nonzero" fill-opacity="1" /><path clip-path="url(#clip830)" d="M593.694 1318.79 L593.694 1326.15 L602.467 1326.15 L602.467 1329.46 L593.694 1329.46 L593.694 1343.53 Q593.694 1346.7 594.55 1347.61 Q595.43 1348.51 598.092 1348.51 L602.467 1348.51 L602.467 1352.07 L598.092 1352.07 Q593.162 1352.07 591.287 1350.25 Q589.412 1348.39 589.412 1343.53 L589.412 1329.46 L586.287 1329.46 L586.287 1326.15 L589.412 1326.15 L589.412 1318.79 L593.694 1318.79 Z" fill="#000000" fill-rule="nonzero" fill-opacity="1" /><path clip-path="url(#clip830)" d="M623.092 1330.13 Q622.374 1329.71 621.518 1329.53 Q620.685 1329.32 619.666 1329.32 Q616.055 1329.32 614.111 1331.68 Q612.189 1334.02 612.189 1338.42 L612.189 1352.07 L607.907 1352.07 L607.907 1326.15 L612.189 1326.15 L612.189 1330.18 Q613.532 1327.82 615.685 1326.68 Q617.837 1325.52 620.916 1325.52 Q621.356 1325.52 621.888 1325.59 Q622.421 1325.64 623.069 1325.76 L623.092 1330.13 Z" fill="#000000" fill-rule="nonzero" fill-opacity="1" /><path clip-path="url(#clip830)" d="M627.56 1326.15 L631.819 1326.15 L631.819 1352.07 L627.56 1352.07 L627.56 1326.15 M627.56 1316.06 L631.819 1316.06 L631.819 1321.45 L627.56 1321.45 L627.56 1316.06 Z" fill="#000000" fill-rule="nonzero" fill-opacity="1" /><path clip-path="url(#clip830)" d="M662.282 1326.15 L652.907 1338.76 L662.768 1352.07 L657.745 1352.07 L650.198 1341.89 L642.652 1352.07 L637.629 1352.07 L647.698 1338.51 L638.485 1326.15 L643.509 1326.15 L650.384 1335.38 L657.258 1326.15 L662.282 1326.15 Z" fill="#000000" fill-rule="nonzero" fill-opacity="1" /><polyline clip-path="url(#clip830)" style="stroke:#ff0000; stroke-linecap:round; stroke-linejoin:round; stroke-width:4; stroke-opacity:1; fill:none" stroke-dasharray="16, 10" points="415.102,1386.63 452.527,1386.63 "/>
<path clip-path="url(#clip830)" d="M466.38 1382.06 L472.051 1398.08 L480.153 1377.99 L484.667 1377.99 L474.181 1403.91 L474.181 1413.78 L469.922 1413.78 L469.922 1403.91 L463.116 1384.56 Q462.098 1381.65 459.898 1381.65 L458.764 1381.65 L458.764 1377.99 L460.385 1377.99 Q464.945 1377.99 466.38 1382.06 Z" fill="#000000" fill-rule="nonzero" fill-opacity="1" /><path clip-path="url(#clip830)" d="M510.245 1411.78 L510.245 1415.09 L485.616 1415.09 L485.616 1411.78 L510.245 1411.78 Z" fill="#000000" fill-rule="nonzero" fill-opacity="1" /><path clip-path="url(#clip830)" d="M518.37 1400.03 L518.37 1413.78 L514.088 1413.78 L514.088 1377.99 L518.37 1377.99 L518.37 1381.92 Q519.713 1379.61 521.75 1378.5 Q523.81 1377.36 526.657 1377.36 Q531.38 1377.36 534.319 1381.11 Q537.282 1384.86 537.282 1390.97 Q537.282 1397.09 534.319 1400.84 Q531.38 1404.59 526.657 1404.59 Q523.81 1404.59 521.75 1403.47 Q519.713 1402.34 518.37 1400.03 M532.861 1390.97 Q532.861 1386.28 530.917 1383.61 Q528.995 1380.93 525.616 1380.93 Q522.236 1380.93 520.292 1383.61 Q518.37 1386.28 518.37 1390.97 Q518.37 1395.67 520.292 1398.36 Q522.236 1401.02 525.616 1401.02 Q528.995 1401.02 530.917 1398.36 Q532.861 1395.67 532.861 1390.97 Z" fill="#000000" fill-rule="nonzero" fill-opacity="1" /><path clip-path="url(#clip830)" d="M559.365 1381.97 Q558.648 1381.55 557.791 1381.37 Q556.958 1381.16 555.94 1381.16 Q552.328 1381.16 550.384 1383.52 Q548.463 1385.86 548.463 1390.26 L548.463 1403.91 L544.18 1403.91 L544.18 1377.99 L548.463 1377.99 L548.463 1382.02 Q549.805 1379.66 551.958 1378.52 Q554.111 1377.36 557.19 1377.36 Q557.629 1377.36 558.162 1377.43 Q558.694 1377.48 559.342 1377.6 L559.365 1381.97 Z" fill="#000000" fill-rule="nonzero" fill-opacity="1" /><path clip-path="url(#clip830)" d="M584.967 1389.89 L584.967 1391.97 L565.384 1391.97 Q565.662 1396.37 568.023 1398.68 Q570.407 1400.97 574.643 1400.97 Q577.097 1400.97 579.389 1400.37 Q581.703 1399.77 583.972 1398.57 L583.972 1402.59 Q581.68 1403.57 579.273 1404.08 Q576.865 1404.59 574.389 1404.59 Q568.185 1404.59 564.551 1400.97 Q560.94 1397.36 560.94 1391.21 Q560.94 1384.84 564.365 1381.11 Q567.815 1377.36 573.648 1377.36 Q578.879 1377.36 581.912 1380.74 Q584.967 1384.1 584.967 1389.89 M580.708 1388.64 Q580.662 1385.14 578.74 1383.06 Q576.842 1380.97 573.694 1380.97 Q570.129 1380.97 567.977 1382.99 Q565.847 1385 565.523 1388.66 L580.708 1388.64 Z" fill="#000000" fill-rule="nonzero" fill-opacity="1" /><path clip-path="url(#clip830)" d="M609.018 1381.92 L609.018 1367.9 L613.277 1367.9 L613.277 1403.91 L609.018 1403.91 L609.018 1400.03 Q607.675 1402.34 605.615 1403.47 Q603.578 1404.59 600.708 1404.59 Q596.009 1404.59 593.046 1400.84 Q590.106 1397.09 590.106 1390.97 Q590.106 1384.86 593.046 1381.11 Q596.009 1377.36 600.708 1377.36 Q603.578 1377.36 605.615 1378.5 Q607.675 1379.61 609.018 1381.92 M594.504 1390.97 Q594.504 1395.67 596.425 1398.36 Q598.37 1401.02 601.75 1401.02 Q605.129 1401.02 607.074 1398.36 Q609.018 1395.67 609.018 1390.97 Q609.018 1386.28 607.074 1383.61 Q605.129 1380.93 601.75 1380.93 Q598.37 1380.93 596.425 1383.61 Q594.504 1386.28 594.504 1390.97 Z" fill="#000000" fill-rule="nonzero" fill-opacity="1" /><path clip-path="url(#clip830)" d="M622.05 1377.99 L626.31 1377.99 L626.31 1403.91 L622.05 1403.91 L622.05 1377.99 M622.05 1367.9 L626.31 1367.9 L626.31 1373.29 L622.05 1373.29 L622.05 1367.9 Z" fill="#000000" fill-rule="nonzero" fill-opacity="1" /><path clip-path="url(#clip830)" d="M653.879 1378.98 L653.879 1382.97 Q652.073 1381.97 650.245 1381.48 Q648.439 1380.97 646.587 1380.97 Q642.444 1380.97 640.152 1383.61 Q637.86 1386.23 637.86 1390.97 Q637.86 1395.72 640.152 1398.36 Q642.444 1400.97 646.587 1400.97 Q648.439 1400.97 650.245 1400.49 Q652.073 1399.98 653.879 1398.98 L653.879 1402.92 Q652.096 1403.75 650.175 1404.17 Q648.277 1404.59 646.124 1404.59 Q640.268 1404.59 636.819 1400.91 Q633.37 1397.22 633.37 1390.97 Q633.37 1384.63 636.842 1381 Q640.337 1377.36 646.402 1377.36 Q648.37 1377.36 650.245 1377.78 Q652.12 1378.17 653.879 1378.98 Z" fill="#000000" fill-rule="nonzero" fill-opacity="1" /><path clip-path="url(#clip830)" d="M665.499 1370.63 L665.499 1377.99 L674.272 1377.99 L674.272 1381.3 L665.499 1381.3 L665.499 1395.37 Q665.499 1398.54 666.356 1399.45 Q667.235 1400.35 669.897 1400.35 L674.272 1400.35 L674.272 1403.91 L669.897 1403.91 Q664.967 1403.91 663.092 1402.09 Q661.217 1400.23 661.217 1395.37 L661.217 1381.3 L658.092 1381.3 L658.092 1377.99 L661.217 1377.99 L661.217 1370.63 L665.499 1370.63 Z" fill="#000000" fill-rule="nonzero" fill-opacity="1" /><path clip-path="url(#clip830)" d="M702.05 1389.89 L702.05 1391.97 L682.467 1391.97 Q682.744 1396.37 685.106 1398.68 Q687.49 1400.97 691.726 1400.97 Q694.18 1400.97 696.471 1400.37 Q698.786 1399.77 701.055 1398.57 L701.055 1402.59 Q698.763 1403.57 696.356 1404.08 Q693.948 1404.59 691.471 1404.59 Q685.268 1404.59 681.633 1400.97 Q678.022 1397.36 678.022 1391.21 Q678.022 1384.84 681.448 1381.11 Q684.897 1377.36 690.731 1377.36 Q695.962 1377.36 698.994 1380.74 Q702.05 1384.1 702.05 1389.89 M697.791 1388.64 Q697.744 1385.14 695.823 1383.06 Q693.925 1380.97 690.777 1380.97 Q687.212 1380.97 685.059 1382.99 Q682.93 1385 682.606 1388.66 L697.791 1388.64 Z" fill="#000000" fill-rule="nonzero" fill-opacity="1" /><path clip-path="url(#clip830)" d="M726.101 1381.92 L726.101 1367.9 L730.36 1367.9 L730.36 1403.91 L726.101 1403.91 L726.101 1400.03 Q724.758 1402.34 722.698 1403.47 Q720.661 1404.59 717.791 1404.59 Q713.092 1404.59 710.129 1400.84 Q707.189 1397.09 707.189 1390.97 Q707.189 1384.86 710.129 1381.11 Q713.092 1377.36 717.791 1377.36 Q720.661 1377.36 722.698 1378.5 Q724.758 1379.61 726.101 1381.92 M711.587 1390.97 Q711.587 1395.67 713.508 1398.36 Q715.453 1401.02 718.832 1401.02 Q722.212 1401.02 724.156 1398.36 Q726.101 1395.67 726.101 1390.97 Q726.101 1386.28 724.156 1383.61 Q722.212 1380.93 718.832 1380.93 Q715.453 1380.93 713.508 1383.61 Q711.587 1386.28 711.587 1390.97 Z" fill="#000000" fill-rule="nonzero" fill-opacity="1" /><path clip-path="url(#clip830)" d="M996.49 1486.45 L1557.86 1486.45 L1557.86 47.2441 L996.49 47.2441  Z" fill="#ffffff" fill-rule="evenodd" fill-opacity="1"/>
<defs>
  <clipPath id="clip833">
    <rect x="996" y="47" width="562" height="1440"/>
  </clipPath>
</defs>
<polyline clip-path="url(#clip833)" style="stroke:#000000; stroke-linecap:round; stroke-linejoin:round; stroke-width:2; stroke-opacity:0.1; fill:none" points="1012.38,1486.45 1012.38,47.2441 "/>
<polyline clip-path="url(#clip833)" style="stroke:#000000; stroke-linecap:round; stroke-linejoin:round; stroke-width:2; stroke-opacity:0.1; fill:none" points="1096.67,1486.45 1096.67,47.2441 "/>
<polyline clip-path="url(#clip833)" style="stroke:#000000; stroke-linecap:round; stroke-linejoin:round; stroke-width:2; stroke-opacity:0.1; fill:none" points="1180.95,1486.45 1180.95,47.2441 "/>
<polyline clip-path="url(#clip833)" style="stroke:#000000; stroke-linecap:round; stroke-linejoin:round; stroke-width:2; stroke-opacity:0.1; fill:none" points="1265.24,1486.45 1265.24,47.2441 "/>
<polyline clip-path="url(#clip833)" style="stroke:#000000; stroke-linecap:round; stroke-linejoin:round; stroke-width:2; stroke-opacity:0.1; fill:none" points="1349.53,1486.45 1349.53,47.2441 "/>
<polyline clip-path="url(#clip833)" style="stroke:#000000; stroke-linecap:round; stroke-linejoin:round; stroke-width:2; stroke-opacity:0.1; fill:none" points="1433.82,1486.45 1433.82,47.2441 "/>
<polyline clip-path="url(#clip833)" style="stroke:#000000; stroke-linecap:round; stroke-linejoin:round; stroke-width:2; stroke-opacity:0.1; fill:none" points="1518.11,1486.45 1518.11,47.2441 "/>
<polyline clip-path="url(#clip830)" style="stroke:#000000; stroke-linecap:round; stroke-linejoin:round; stroke-width:4; stroke-opacity:1; fill:none" points="996.49,1486.45 1557.86,1486.45 "/>
<polyline clip-path="url(#clip830)" style="stroke:#000000; stroke-linecap:round; stroke-linejoin:round; stroke-width:4; stroke-opacity:1; fill:none" points="1012.38,1486.45 1012.38,1467.55 "/>
<polyline clip-path="url(#clip830)" style="stroke:#000000; stroke-linecap:round; stroke-linejoin:round; stroke-width:4; stroke-opacity:1; fill:none" points="1096.67,1486.45 1096.67,1467.55 "/>
<polyline clip-path="url(#clip830)" style="stroke:#000000; stroke-linecap:round; stroke-linejoin:round; stroke-width:4; stroke-opacity:1; fill:none" points="1180.95,1486.45 1180.95,1467.55 "/>
<polyline clip-path="url(#clip830)" style="stroke:#000000; stroke-linecap:round; stroke-linejoin:round; stroke-width:4; stroke-opacity:1; fill:none" points="1265.24,1486.45 1265.24,1467.55 "/>
<polyline clip-path="url(#clip830)" style="stroke:#000000; stroke-linecap:round; stroke-linejoin:round; stroke-width:4; stroke-opacity:1; fill:none" points="1349.53,1486.45 1349.53,1467.55 "/>
<polyline clip-path="url(#clip830)" style="stroke:#000000; stroke-linecap:round; stroke-linejoin:round; stroke-width:4; stroke-opacity:1; fill:none" points="1433.82,1486.45 1433.82,1467.55 "/>
<polyline clip-path="url(#clip830)" style="stroke:#000000; stroke-linecap:round; stroke-linejoin:round; stroke-width:4; stroke-opacity:1; fill:none" points="1518.11,1486.45 1518.11,1467.55 "/>
<path clip-path="url(#clip830)" d="M1012.38 1517.37 Q1008.77 1517.37 1006.94 1520.93 Q1005.13 1524.47 1005.13 1531.6 Q1005.13 1538.71 1006.94 1542.27 Q1008.77 1545.82 1012.38 1545.82 Q1016.01 1545.82 1017.82 1542.27 Q1019.65 1538.71 1019.65 1531.6 Q1019.65 1524.47 1017.82 1520.93 Q1016.01 1517.37 1012.38 1517.37 M1012.38 1513.66 Q1018.19 1513.66 1021.24 1518.27 Q1024.32 1522.85 1024.32 1531.6 Q1024.32 1540.33 1021.24 1544.94 Q1018.19 1549.52 1012.38 1549.52 Q1006.57 1549.52 1003.49 1544.94 Q1000.43 1540.33 1000.43 1531.6 Q1000.43 1522.85 1003.49 1518.27 Q1006.57 1513.66 1012.38 1513.66 Z" fill="#000000" fill-rule="nonzero" fill-opacity="1" /><path clip-path="url(#clip830)" d="M1087.05 1544.91 L1094.69 1544.91 L1094.69 1518.55 L1086.38 1520.21 L1086.38 1515.95 L1094.64 1514.29 L1099.32 1514.29 L1099.32 1544.91 L1106.96 1544.91 L1106.96 1548.85 L1087.05 1548.85 L1087.05 1544.91 Z" fill="#000000" fill-rule="nonzero" fill-opacity="1" /><path clip-path="url(#clip830)" d="M1175.61 1544.91 L1191.93 1544.91 L1191.93 1548.85 L1169.98 1548.85 L1169.98 1544.91 Q1172.64 1542.16 1177.23 1537.53 Q1181.83 1532.88 1183.01 1531.53 Q1185.26 1529.01 1186.14 1527.27 Q1187.04 1525.51 1187.04 1523.82 Q1187.04 1521.07 1185.1 1519.33 Q1183.18 1517.6 1180.07 1517.6 Q1177.88 1517.6 1175.42 1518.36 Q1172.99 1519.13 1170.21 1520.68 L1170.21 1515.95 Q1173.04 1514.82 1175.49 1514.24 Q1177.94 1513.66 1179.98 1513.66 Q1185.35 1513.66 1188.55 1516.35 Q1191.74 1519.03 1191.74 1523.52 Q1191.74 1525.65 1190.93 1527.57 Q1190.14 1529.47 1188.04 1532.07 Q1187.46 1532.74 1184.36 1535.95 Q1181.26 1539.15 1175.61 1544.91 Z" fill="#000000" fill-rule="nonzero" fill-opacity="1" /><path clip-path="url(#clip830)" d="M1269.49 1530.21 Q1272.85 1530.93 1274.72 1533.2 Q1276.62 1535.47 1276.62 1538.8 Q1276.62 1543.92 1273.1 1546.72 Q1269.58 1549.52 1263.1 1549.52 Q1260.93 1549.52 1258.61 1549.08 Q1256.32 1548.66 1253.87 1547.81 L1253.87 1543.29 Q1255.81 1544.43 1258.12 1545.01 Q1260.44 1545.58 1262.96 1545.58 Q1267.36 1545.58 1269.65 1543.85 Q1271.97 1542.11 1271.97 1538.8 Q1271.97 1535.75 1269.81 1534.03 Q1267.68 1532.3 1263.87 1532.3 L1259.84 1532.3 L1259.84 1528.45 L1264.05 1528.45 Q1267.5 1528.45 1269.33 1527.09 Q1271.16 1525.7 1271.16 1523.11 Q1271.16 1520.45 1269.26 1519.03 Q1267.38 1517.6 1263.87 1517.6 Q1261.94 1517.6 1259.74 1518.01 Q1257.55 1518.43 1254.91 1519.31 L1254.91 1515.14 Q1257.57 1514.4 1259.88 1514.03 Q1262.22 1513.66 1264.28 1513.66 Q1269.61 1513.66 1272.71 1516.09 Q1275.81 1518.5 1275.81 1522.62 Q1275.81 1525.49 1274.17 1527.48 Q1272.52 1529.45 1269.49 1530.21 Z" fill="#000000" fill-rule="nonzero" fill-opacity="1" /><path clip-path="url(#clip830)" d="M1352.54 1518.36 L1340.73 1536.81 L1352.54 1536.81 L1352.54 1518.36 M1351.31 1514.29 L1357.19 1514.29 L1357.19 1536.81 L1362.12 1536.81 L1362.12 1540.7 L1357.19 1540.7 L1357.19 1548.85 L1352.54 1548.85 L1352.54 1540.7 L1336.94 1540.7 L1336.94 1536.19 L1351.31 1514.29 Z" fill="#000000" fill-rule="nonzero" fill-opacity="1" /><path clip-path="url(#clip830)" d="M1424.1 1514.29 L1442.45 1514.29 L1442.45 1518.22 L1428.38 1518.22 L1428.38 1526.7 Q1429.4 1526.35 1430.42 1526.19 Q1431.43 1526 1432.45 1526 Q1438.24 1526 1441.62 1529.17 Q1445 1532.34 1445 1537.76 Q1445 1543.34 1441.53 1546.44 Q1438.05 1549.52 1431.74 1549.52 Q1429.56 1549.52 1427.29 1549.15 Q1425.05 1548.78 1422.64 1548.04 L1422.64 1543.34 Q1424.72 1544.47 1426.94 1545.03 Q1429.17 1545.58 1431.64 1545.58 Q1435.65 1545.58 1437.99 1543.48 Q1440.32 1541.37 1440.32 1537.76 Q1440.32 1534.15 1437.99 1532.04 Q1435.65 1529.94 1431.64 1529.94 Q1429.77 1529.94 1427.89 1530.35 Q1426.04 1530.77 1424.1 1531.65 L1424.1 1514.29 Z" fill="#000000" fill-rule="nonzero" fill-opacity="1" /><path clip-path="url(#clip830)" d="M1518.51 1529.7 Q1515.36 1529.7 1513.51 1531.86 Q1511.68 1534.01 1511.68 1537.76 Q1511.68 1541.49 1513.51 1543.66 Q1515.36 1545.82 1518.51 1545.82 Q1521.66 1545.82 1523.49 1543.66 Q1525.34 1541.49 1525.34 1537.76 Q1525.34 1534.01 1523.49 1531.86 Q1521.66 1529.7 1518.51 1529.7 M1527.79 1515.05 L1527.79 1519.31 Q1526.03 1518.48 1524.23 1518.04 Q1522.45 1517.6 1520.69 1517.6 Q1516.06 1517.6 1513.6 1520.72 Q1511.17 1523.85 1510.83 1530.17 Q1512.19 1528.15 1514.25 1527.09 Q1516.31 1526 1518.79 1526 Q1524 1526 1527.01 1529.17 Q1530.04 1532.32 1530.04 1537.76 Q1530.04 1543.08 1526.89 1546.3 Q1523.74 1549.52 1518.51 1549.52 Q1512.52 1549.52 1509.35 1544.94 Q1506.17 1540.33 1506.17 1531.6 Q1506.17 1523.41 1510.06 1518.55 Q1513.95 1513.66 1520.5 1513.66 Q1522.26 1513.66 1524.04 1514.01 Q1525.85 1514.36 1527.79 1515.05 Z" fill="#000000" fill-rule="nonzero" fill-opacity="1" /><polyline clip-path="url(#clip833)" style="stroke:#000000; stroke-linecap:round; stroke-linejoin:round; stroke-width:2; stroke-opacity:0.1; fill:none" points="996.49,1441.92 1557.86,1441.92 "/>
<polyline clip-path="url(#clip833)" style="stroke:#000000; stroke-linecap:round; stroke-linejoin:round; stroke-width:2; stroke-opacity:0.1; fill:none" points="996.49,1103.42 1557.86,1103.42 "/>
<polyline clip-path="url(#clip833)" style="stroke:#000000; stroke-linecap:round; stroke-linejoin:round; stroke-width:2; stroke-opacity:0.1; fill:none" points="996.49,764.907 1557.86,764.907 "/>
<polyline clip-path="url(#clip833)" style="stroke:#000000; stroke-linecap:round; stroke-linejoin:round; stroke-width:2; stroke-opacity:0.1; fill:none" points="996.49,426.399 1557.86,426.399 "/>
<polyline clip-path="url(#clip833)" style="stroke:#000000; stroke-linecap:round; stroke-linejoin:round; stroke-width:2; stroke-opacity:0.1; fill:none" points="996.49,87.8911 1557.86,87.8911 "/>
<polyline clip-path="url(#clip830)" style="stroke:#000000; stroke-linecap:round; stroke-linejoin:round; stroke-width:4; stroke-opacity:1; fill:none" points="996.49,1486.45 996.49,47.2441 "/>
<polyline clip-path="url(#clip830)" style="stroke:#000000; stroke-linecap:round; stroke-linejoin:round; stroke-width:4; stroke-opacity:1; fill:none" points="996.49,1441.92 1015.39,1441.92 "/>
<polyline clip-path="url(#clip830)" style="stroke:#000000; stroke-linecap:round; stroke-linejoin:round; stroke-width:4; stroke-opacity:1; fill:none" points="996.49,1103.42 1015.39,1103.42 "/>
<polyline clip-path="url(#clip830)" style="stroke:#000000; stroke-linecap:round; stroke-linejoin:round; stroke-width:4; stroke-opacity:1; fill:none" points="996.49,764.907 1015.39,764.907 "/>
<polyline clip-path="url(#clip830)" style="stroke:#000000; stroke-linecap:round; stroke-linejoin:round; stroke-width:4; stroke-opacity:1; fill:none" points="996.49,426.399 1015.39,426.399 "/>
<polyline clip-path="url(#clip830)" style="stroke:#000000; stroke-linecap:round; stroke-linejoin:round; stroke-width:4; stroke-opacity:1; fill:none" points="996.49,87.8911 1015.39,87.8911 "/>
<path clip-path="url(#clip830)" d="M853.546 1442.38 L883.222 1442.38 L883.222 1446.31 L853.546 1446.31 L853.546 1442.38 Z" fill="#000000" fill-rule="nonzero" fill-opacity="1" /><path clip-path="url(#clip830)" d="M894.125 1455.27 L901.763 1455.27 L901.763 1428.9 L893.453 1430.57 L893.453 1426.31 L901.717 1424.64 L906.393 1424.64 L906.393 1455.27 L914.032 1455.27 L914.032 1459.2 L894.125 1459.2 L894.125 1455.27 Z" fill="#000000" fill-rule="nonzero" fill-opacity="1" /><path clip-path="url(#clip830)" d="M923.476 1453.32 L928.361 1453.32 L928.361 1459.2 L923.476 1459.2 L923.476 1453.32 Z" fill="#000000" fill-rule="nonzero" fill-opacity="1" /><path clip-path="url(#clip830)" d="M948.546 1427.72 Q944.935 1427.72 943.106 1431.29 Q941.3 1434.83 941.3 1441.96 Q941.3 1449.07 943.106 1452.63 Q944.935 1456.17 948.546 1456.17 Q952.18 1456.17 953.985 1452.63 Q955.814 1449.07 955.814 1441.96 Q955.814 1434.83 953.985 1431.29 Q952.18 1427.72 948.546 1427.72 M948.546 1424.02 Q954.356 1424.02 957.411 1428.63 Q960.49 1433.21 960.49 1441.96 Q960.49 1450.69 957.411 1455.29 Q954.356 1459.88 948.546 1459.88 Q942.735 1459.88 939.657 1455.29 Q936.601 1450.69 936.601 1441.96 Q936.601 1433.21 939.657 1428.63 Q942.735 1424.02 948.546 1424.02 Z" fill="#000000" fill-rule="nonzero" fill-opacity="1" /><path clip-path="url(#clip830)" d="M854.541 1103.87 L884.217 1103.87 L884.217 1107.8 L854.541 1107.8 L854.541 1103.87 Z" fill="#000000" fill-rule="nonzero" fill-opacity="1" /><path clip-path="url(#clip830)" d="M904.31 1089.21 Q900.699 1089.21 898.87 1092.78 Q897.064 1096.32 897.064 1103.45 Q897.064 1110.56 898.87 1114.12 Q900.699 1117.66 904.31 1117.66 Q907.944 1117.66 909.75 1114.12 Q911.578 1110.56 911.578 1103.45 Q911.578 1096.32 909.75 1092.78 Q907.944 1089.21 904.31 1089.21 M904.31 1085.51 Q910.12 1085.51 913.175 1090.12 Q916.254 1094.7 916.254 1103.45 Q916.254 1112.18 913.175 1116.78 Q910.12 1121.37 904.31 1121.37 Q898.5 1121.37 895.421 1116.78 Q892.365 1112.18 892.365 1103.45 Q892.365 1094.7 895.421 1090.12 Q898.5 1085.51 904.31 1085.51 Z" fill="#000000" fill-rule="nonzero" fill-opacity="1" /><path clip-path="url(#clip830)" d="M924.472 1114.82 L929.356 1114.82 L929.356 1120.7 L924.472 1120.7 L924.472 1114.82 Z" fill="#000000" fill-rule="nonzero" fill-opacity="1" /><path clip-path="url(#clip830)" d="M939.587 1086.14 L957.944 1086.14 L957.944 1090.07 L943.87 1090.07 L943.87 1098.54 Q944.888 1098.2 945.907 1098.03 Q946.925 1097.85 947.944 1097.85 Q953.731 1097.85 957.11 1101.02 Q960.49 1104.19 960.49 1109.61 Q960.49 1115.19 957.018 1118.29 Q953.546 1121.37 947.226 1121.37 Q945.05 1121.37 942.782 1121 Q940.536 1120.63 938.129 1119.89 L938.129 1115.19 Q940.212 1116.32 942.435 1116.88 Q944.657 1117.43 947.134 1117.43 Q951.138 1117.43 953.476 1115.33 Q955.814 1113.22 955.814 1109.61 Q955.814 1106 953.476 1103.89 Q951.138 1101.78 947.134 1101.78 Q945.259 1101.78 943.384 1102.2 Q941.532 1102.62 939.587 1103.5 L939.587 1086.14 Z" fill="#000000" fill-rule="nonzero" fill-opacity="1" /><path clip-path="url(#clip830)" d="M903.314 750.706 Q899.703 750.706 897.875 754.271 Q896.069 757.813 896.069 764.942 Q896.069 772.049 897.875 775.613 Q899.703 779.155 903.314 779.155 Q906.949 779.155 908.754 775.613 Q910.583 772.049 910.583 764.942 Q910.583 757.813 908.754 754.271 Q906.949 750.706 903.314 750.706 M903.314 747.002 Q909.125 747.002 912.18 751.609 Q915.259 756.192 915.259 764.942 Q915.259 773.669 912.18 778.275 Q909.125 782.859 903.314 782.859 Q897.504 782.859 894.426 778.275 Q891.37 773.669 891.37 764.942 Q891.37 756.192 894.426 751.609 Q897.504 747.002 903.314 747.002 Z" fill="#000000" fill-rule="nonzero" fill-opacity="1" /><path clip-path="url(#clip830)" d="M923.476 776.308 L928.361 776.308 L928.361 782.187 L923.476 782.187 L923.476 776.308 Z" fill="#000000" fill-rule="nonzero" fill-opacity="1" /><path clip-path="url(#clip830)" d="M948.546 750.706 Q944.935 750.706 943.106 754.271 Q941.3 757.813 941.3 764.942 Q941.3 772.049 943.106 775.613 Q944.935 779.155 948.546 779.155 Q952.18 779.155 953.985 775.613 Q955.814 772.049 955.814 764.942 Q955.814 757.813 953.985 754.271 Q952.18 750.706 948.546 750.706 M948.546 747.002 Q954.356 747.002 957.411 751.609 Q960.49 756.192 960.49 764.942 Q960.49 773.669 957.411 778.275 Q954.356 782.859 948.546 782.859 Q942.735 782.859 939.657 778.275 Q936.601 773.669 936.601 764.942 Q936.601 756.192 939.657 751.609 Q942.735 747.002 948.546 747.002 Z" fill="#000000" fill-rule="nonzero" fill-opacity="1" /><path clip-path="url(#clip830)" d="M904.31 412.198 Q900.699 412.198 898.87 415.763 Q897.064 419.304 897.064 426.434 Q897.064 433.54 898.87 437.105 Q900.699 440.647 904.31 440.647 Q907.944 440.647 909.75 437.105 Q911.578 433.54 911.578 426.434 Q911.578 419.304 909.75 415.763 Q907.944 412.198 904.31 412.198 M904.31 408.494 Q910.12 408.494 913.175 413.101 Q916.254 417.684 916.254 426.434 Q916.254 435.161 913.175 439.767 Q910.12 444.351 904.31 444.351 Q898.5 444.351 895.421 439.767 Q892.365 435.161 892.365 426.434 Q892.365 417.684 895.421 413.101 Q898.5 408.494 904.31 408.494 Z" fill="#000000" fill-rule="nonzero" fill-opacity="1" /><path clip-path="url(#clip830)" d="M924.472 437.8 L929.356 437.8 L929.356 443.679 L924.472 443.679 L924.472 437.8 Z" fill="#000000" fill-rule="nonzero" fill-opacity="1" /><path clip-path="url(#clip830)" d="M939.587 409.119 L957.944 409.119 L957.944 413.054 L943.87 413.054 L943.87 421.527 Q944.888 421.179 945.907 421.017 Q946.925 420.832 947.944 420.832 Q953.731 420.832 957.11 424.003 Q960.49 427.175 960.49 432.591 Q960.49 438.17 957.018 441.272 Q953.546 444.351 947.226 444.351 Q945.05 444.351 942.782 443.98 Q940.536 443.61 938.129 442.869 L938.129 438.17 Q940.212 439.304 942.435 439.86 Q944.657 440.415 947.134 440.415 Q951.138 440.415 953.476 438.309 Q955.814 436.202 955.814 432.591 Q955.814 428.98 953.476 426.874 Q951.138 424.767 947.134 424.767 Q945.259 424.767 943.384 425.184 Q941.532 425.601 939.587 426.48 L939.587 409.119 Z" fill="#000000" fill-rule="nonzero" fill-opacity="1" /><path clip-path="url(#clip830)" d="M894.125 101.236 L901.763 101.236 L901.763 74.8703 L893.453 76.537 L893.453 72.2777 L901.717 70.6111 L906.393 70.6111 L906.393 101.236 L914.032 101.236 L914.032 105.171 L894.125 105.171 L894.125 101.236 Z" fill="#000000" fill-rule="nonzero" fill-opacity="1" /><path clip-path="url(#clip830)" d="M923.476 99.2915 L928.361 99.2915 L928.361 105.171 L923.476 105.171 L923.476 99.2915 Z" fill="#000000" fill-rule="nonzero" fill-opacity="1" /><path clip-path="url(#clip830)" d="M948.546 73.6897 Q944.935 73.6897 943.106 77.2545 Q941.3 80.7962 941.3 87.9258 Q941.3 95.0322 943.106 98.597 Q944.935 102.139 948.546 102.139 Q952.18 102.139 953.985 98.597 Q955.814 95.0322 955.814 87.9258 Q955.814 80.7962 953.985 77.2545 Q952.18 73.6897 948.546 73.6897 M948.546 69.9861 Q954.356 69.9861 957.411 74.5925 Q960.49 79.1758 960.49 87.9258 Q960.49 96.6526 957.411 101.259 Q954.356 105.842 948.546 105.842 Q942.735 105.842 939.657 101.259 Q936.601 96.6526 936.601 87.9258 Q936.601 79.1758 939.657 74.5925 Q942.735 69.9861 948.546 69.9861 Z" fill="#000000" fill-rule="nonzero" fill-opacity="1" /><polyline clip-path="url(#clip833)" style="stroke:#0000ff; stroke-linecap:round; stroke-linejoin:round; stroke-width:4; stroke-opacity:1; fill:none" points="1012.38,764.907 1017.73,721.968 1023.08,679.202 1028.43,636.781 1033.78,594.876 1039.13,553.656 1044.47,513.286 1049.82,473.929 1055.17,435.744 1060.52,398.885 1065.87,363.499 1071.22,329.73 1076.57,297.713 1081.92,267.577 1087.27,239.444 1092.62,213.426 1097.97,189.629 1103.32,168.149 1108.67,149.072 1114.02,132.474 1119.37,118.423 1124.72,106.975 1130.07,98.1765 1135.42,92.0625 1140.77,88.6579 1146.11,87.9763 1151.46,90.0204 1156.81,94.7821 1162.16,102.242 1167.51,112.371 1172.86,125.126 1178.21,140.458 1183.56,158.305 1188.91,178.594 1194.26,201.244 1199.61,226.164 1204.96,253.253 1210.31,282.402 1215.66,313.494 1221.01,346.404 1226.36,380.999 1231.71,417.139 1237.06,454.681 1242.41,493.471 1247.75,533.354 1253.1,574.17 1258.45,615.754 1263.8,657.938 1269.15,700.553 1274.5,743.427 1279.85,786.388 1285.2,829.262 1290.55,871.877 1295.9,914.061 1301.25,955.645 1306.6,996.461 1311.95,1036.34 1317.3,1075.13 1322.65,1112.68 1328,1148.82 1333.35,1183.41 1338.7,1216.32 1344.05,1247.41 1349.39,1276.56 1354.74,1303.65 1360.09,1328.57 1365.44,1351.22 1370.79,1371.51 1376.14,1389.36 1381.49,1404.69 1386.84,1417.44 1392.19,1427.57 1397.54,1435.03 1402.89,1439.79 1408.24,1441.84 1413.59,1441.16 1418.94,1437.75 1424.29,1431.64 1429.64,1422.84 1434.99,1411.39 1440.34,1397.34 1445.69,1380.74 1451.03,1361.67 1456.38,1340.19 1461.73,1316.39 1467.08,1290.37 1472.43,1262.24 1477.78,1232.1 1483.13,1200.09 1488.48,1166.32 1493.83,1130.93 1499.18,1094.07 1504.53,1055.89 1509.88,1016.53 1515.23,976.159 1520.58,934.939 1525.93,893.034 1531.28,850.613 1536.63,807.846 1541.98,764.907 "/>
<polyline clip-path="url(#clip833)" style="stroke:#ff0000; stroke-linecap:round; stroke-linejoin:round; stroke-width:4; stroke-opacity:1; fill:none" stroke-dasharray="16, 10" points="1012.38,805.867 1017.73,750.514 1023.08,697.298 1028.43,646.233 1033.78,597.33 1039.13,550.605 1044.47,506.071 1049.82,463.739 1055.17,423.626 1060.52,385.742 1065.87,350.102 1071.22,316.72 1076.57,285.608 1081.92,256.78 1087.27,230.249 1092.62,206.029 1097.97,184.132 1103.32,164.574 1108.67,147.366 1114.02,132.522 1119.37,120.055 1124.72,109.98 1130.07,102.308 1135.42,97.0543 1140.77,94.2314 1146.11,93.8528 1151.46,95.9318 1156.81,100.482 1162.16,107.516 1167.51,117.049 1172.86,129.092 1178.21,143.66 1183.56,160.766 1188.91,180.423 1194.26,202.617 1199.61,227.222 1204.96,254.084 1210.31,283.052 1215.66,313.97 1221.01,346.686 1226.36,381.046 1231.71,416.897 1237.06,454.086 1242.41,492.459 1247.75,531.862 1253.1,572.143 1258.45,613.148 1263.8,654.723 1269.15,696.716 1274.5,738.972 1279.85,781.338 1285.2,823.662 1290.55,865.789 1295.9,907.567 1301.25,948.841 1306.6,989.459 1311.95,1029.27 1317.3,1068.11 1322.65,1105.84 1328,1142.3 1333.35,1177.33 1338.7,1210.79 1344.05,1242.51 1349.39,1272.36 1354.74,1300.16 1360.09,1325.78 1365.44,1349.05 1370.79,1369.85 1376.14,1388.15 1381.49,1403.94 1386.84,1417.21 1392.19,1427.97 1397.54,1436.21 1402.89,1441.91 1408.24,1445.08 1413.59,1445.72 1418.94,1443.8 1424.29,1439.34 1429.64,1432.32 1434.99,1422.75 1440.34,1410.6 1445.69,1395.89 1451.03,1378.6 1456.38,1358.73 1461.73,1336.27 1467.08,1311.22 1472.43,1283.57 1477.78,1253.32 1483.13,1220.46 1488.48,1184.99 1493.83,1146.9 1499.18,1106.19 1504.53,1062.85 1509.88,1016.87 1515.23,968.255 1520.58,916.995 1525.93,863.086 1531.28,806.521 1536.63,747.296 1541.98,685.405 "/>
<path clip-path="url(#clip830)" d="M1211.42 250.738 L1539.15 250.738 L1539.15 95.2176 L1211.42 95.2176  Z" fill="#ffffff" fill-rule="evenodd" fill-opacity="1"/>
<polyline clip-path="url(#clip830)" style="stroke:#000000; stroke-linecap:round; stroke-linejoin:round; stroke-width:4; stroke-opacity:1; fill:none" points="1211.42,250.738 1539.15,250.738 1539.15,95.2176 1211.42,95.2176 1211.42,250.738 "/>
<polyline clip-path="url(#clip830)" style="stroke:#0000ff; stroke-linecap:round; stroke-linejoin:round; stroke-width:4; stroke-opacity:1; fill:none" points="1217.66,147.058 1255.08,147.058 "/>
<path clip-path="url(#clip830)" d="M1268.93 142.486 L1274.61 158.504 L1282.71 138.412 L1287.22 138.412 L1276.73 164.338 L1276.73 174.199 L1272.48 174.199 L1272.48 164.338 L1265.67 144.986 Q1264.65 142.069 1262.45 142.069 L1261.32 142.069 L1261.32 138.412 L1262.94 138.412 Q1267.5 138.412 1268.93 142.486 Z" fill="#000000" fill-rule="nonzero" fill-opacity="1" /><path clip-path="url(#clip830)" d="M1312.8 172.208 L1312.8 175.518 L1288.17 175.518 L1288.17 172.208 L1312.8 172.208 Z" fill="#000000" fill-rule="nonzero" fill-opacity="1" /><path clip-path="url(#clip830)" d="M1336.99 143.389 Q1338.59 140.518 1340.81 139.153 Q1343.03 137.787 1346.04 137.787 Q1350.09 137.787 1352.29 140.634 Q1354.49 143.458 1354.49 148.689 L1354.49 164.338 L1350.21 164.338 L1350.21 148.828 Q1350.21 145.102 1348.89 143.296 Q1347.57 141.49 1344.86 141.49 Q1341.55 141.49 1339.63 143.69 Q1337.71 145.889 1337.71 149.685 L1337.71 164.338 L1333.42 164.338 L1333.42 148.828 Q1333.42 145.078 1332.1 143.296 Q1330.79 141.49 1328.03 141.49 Q1324.77 141.49 1322.85 143.713 Q1320.92 145.912 1320.92 149.685 L1320.92 164.338 L1316.64 164.338 L1316.64 138.412 L1320.92 138.412 L1320.92 142.44 Q1322.38 140.055 1324.42 138.921 Q1326.46 137.787 1329.26 137.787 Q1332.08 137.787 1334.05 139.222 Q1336.04 140.657 1336.99 143.389 Z" fill="#000000" fill-rule="nonzero" fill-opacity="1" /><path clip-path="url(#clip830)" d="M1374.77 151.305 Q1369.6 151.305 1367.61 152.486 Q1365.62 153.666 1365.62 156.514 Q1365.62 158.782 1367.1 160.125 Q1368.61 161.444 1371.18 161.444 Q1374.72 161.444 1376.85 158.944 Q1379 156.421 1379 152.254 L1379 151.305 L1374.77 151.305 M1383.26 149.546 L1383.26 164.338 L1379 164.338 L1379 160.402 Q1377.54 162.763 1375.37 163.898 Q1373.19 165.009 1370.04 165.009 Q1366.06 165.009 1363.7 162.787 Q1361.36 160.541 1361.36 156.791 Q1361.36 152.416 1364.28 150.194 Q1367.22 147.972 1373.03 147.972 L1379 147.972 L1379 147.555 Q1379 144.615 1377.06 143.018 Q1375.14 141.398 1371.64 141.398 Q1369.42 141.398 1367.31 141.93 Q1365.21 142.463 1363.26 143.527 L1363.26 139.592 Q1365.6 138.69 1367.8 138.25 Q1370 137.787 1372.08 137.787 Q1377.71 137.787 1380.48 140.703 Q1383.26 143.62 1383.26 149.546 Z" fill="#000000" fill-rule="nonzero" fill-opacity="1" /><path clip-path="url(#clip830)" d="M1396.25 131.051 L1396.25 138.412 L1405.02 138.412 L1405.02 141.722 L1396.25 141.722 L1396.25 155.796 Q1396.25 158.967 1397.1 159.87 Q1397.98 160.773 1400.65 160.773 L1405.02 160.773 L1405.02 164.338 L1400.65 164.338 Q1395.72 164.338 1393.84 162.509 Q1391.97 160.657 1391.97 155.796 L1391.97 141.722 L1388.84 141.722 L1388.84 138.412 L1391.97 138.412 L1391.97 131.051 L1396.25 131.051 Z" fill="#000000" fill-rule="nonzero" fill-opacity="1" /><path clip-path="url(#clip830)" d="M1425.65 142.393 Q1424.93 141.977 1424.07 141.791 Q1423.24 141.583 1422.22 141.583 Q1418.61 141.583 1416.66 143.944 Q1414.74 146.282 1414.74 150.68 L1414.74 164.338 L1410.46 164.338 L1410.46 138.412 L1414.74 138.412 L1414.74 142.44 Q1416.09 140.078 1418.24 138.944 Q1420.39 137.787 1423.47 137.787 Q1423.91 137.787 1424.44 137.856 Q1424.97 137.903 1425.62 138.018 L1425.65 142.393 Z" fill="#000000" fill-rule="nonzero" fill-opacity="1" /><path clip-path="url(#clip830)" d="M1430.11 138.412 L1434.37 138.412 L1434.37 164.338 L1430.11 164.338 L1430.11 138.412 M1430.11 128.319 L1434.37 128.319 L1434.37 133.713 L1430.11 133.713 L1430.11 128.319 Z" fill="#000000" fill-rule="nonzero" fill-opacity="1" /><path clip-path="url(#clip830)" d="M1464.84 138.412 L1455.46 151.027 L1465.32 164.338 L1460.3 164.338 L1452.75 154.152 L1445.21 164.338 L1440.18 164.338 L1450.25 150.773 L1441.04 138.412 L1446.06 138.412 L1452.94 147.648 L1459.81 138.412 L1464.84 138.412 Z" fill="#000000" fill-rule="nonzero" fill-opacity="1" /><polyline clip-path="url(#clip830)" style="stroke:#ff0000; stroke-linecap:round; stroke-linejoin:round; stroke-width:4; stroke-opacity:1; fill:none" stroke-dasharray="16, 10" points="1217.66,198.898 1255.08,198.898 "/>
<path clip-path="url(#clip830)" d="M1268.93 194.326 L1274.61 210.344 L1282.71 190.252 L1287.22 190.252 L1276.73 216.178 L1276.73 226.039 L1272.48 226.039 L1272.48 216.178 L1265.67 196.826 Q1264.65 193.909 1262.45 193.909 L1261.32 193.909 L1261.32 190.252 L1262.94 190.252 Q1267.5 190.252 1268.93 194.326 Z" fill="#000000" fill-rule="nonzero" fill-opacity="1" /><path clip-path="url(#clip830)" d="M1312.8 224.048 L1312.8 227.358 L1288.17 227.358 L1288.17 224.048 L1312.8 224.048 Z" fill="#000000" fill-rule="nonzero" fill-opacity="1" /><path clip-path="url(#clip830)" d="M1320.92 212.289 L1320.92 226.039 L1316.64 226.039 L1316.64 190.252 L1320.92 190.252 L1320.92 194.187 Q1322.27 191.872 1324.3 190.761 Q1326.36 189.627 1329.21 189.627 Q1333.93 189.627 1336.87 193.377 Q1339.84 197.127 1339.84 203.238 Q1339.84 209.349 1336.87 213.099 Q1333.93 216.849 1329.21 216.849 Q1326.36 216.849 1324.3 215.738 Q1322.27 214.603 1320.92 212.289 M1335.42 203.238 Q1335.42 198.539 1333.47 195.877 Q1331.55 193.192 1328.17 193.192 Q1324.79 193.192 1322.85 195.877 Q1320.92 198.539 1320.92 203.238 Q1320.92 207.937 1322.85 210.622 Q1324.79 213.284 1328.17 213.284 Q1331.55 213.284 1333.47 210.622 Q1335.42 207.937 1335.42 203.238 Z" fill="#000000" fill-rule="nonzero" fill-opacity="1" /><path clip-path="url(#clip830)" d="M1361.92 194.233 Q1361.2 193.817 1360.35 193.631 Q1359.51 193.423 1358.49 193.423 Q1354.88 193.423 1352.94 195.784 Q1351.02 198.122 1351.02 202.52 L1351.02 216.178 L1346.73 216.178 L1346.73 190.252 L1351.02 190.252 L1351.02 194.28 Q1352.36 191.918 1354.51 190.784 Q1356.66 189.627 1359.74 189.627 Q1360.18 189.627 1360.72 189.696 Q1361.25 189.743 1361.9 189.858 L1361.92 194.233 Z" fill="#000000" fill-rule="nonzero" fill-opacity="1" /><path clip-path="url(#clip830)" d="M1387.52 202.15 L1387.52 204.233 L1367.94 204.233 Q1368.22 208.631 1370.58 210.946 Q1372.96 213.238 1377.2 213.238 Q1379.65 213.238 1381.94 212.636 Q1384.26 212.034 1386.53 210.83 L1386.53 214.858 Q1384.23 215.83 1381.83 216.34 Q1379.42 216.849 1376.94 216.849 Q1370.74 216.849 1367.1 213.238 Q1363.49 209.627 1363.49 203.469 Q1363.49 197.104 1366.92 193.377 Q1370.37 189.627 1376.2 189.627 Q1381.43 189.627 1384.47 193.006 Q1387.52 196.363 1387.52 202.15 M1383.26 200.9 Q1383.22 197.405 1381.29 195.321 Q1379.4 193.238 1376.25 193.238 Q1372.68 193.238 1370.53 195.252 Q1368.4 197.266 1368.08 200.923 L1383.26 200.9 Z" fill="#000000" fill-rule="nonzero" fill-opacity="1" /><path clip-path="url(#clip830)" d="M1411.57 194.187 L1411.57 180.159 L1415.83 180.159 L1415.83 216.178 L1411.57 216.178 L1411.57 212.289 Q1410.23 214.603 1408.17 215.738 Q1406.13 216.849 1403.26 216.849 Q1398.56 216.849 1395.6 213.099 Q1392.66 209.349 1392.66 203.238 Q1392.66 197.127 1395.6 193.377 Q1398.56 189.627 1403.26 189.627 Q1406.13 189.627 1408.17 190.761 Q1410.23 191.872 1411.57 194.187 M1397.06 203.238 Q1397.06 207.937 1398.98 210.622 Q1400.92 213.284 1404.3 213.284 Q1407.68 213.284 1409.63 210.622 Q1411.57 207.937 1411.57 203.238 Q1411.57 198.539 1409.63 195.877 Q1407.68 193.192 1404.3 193.192 Q1400.92 193.192 1398.98 195.877 Q1397.06 198.539 1397.06 203.238 Z" fill="#000000" fill-rule="nonzero" fill-opacity="1" /><path clip-path="url(#clip830)" d="M1424.6 190.252 L1428.86 190.252 L1428.86 216.178 L1424.6 216.178 L1424.6 190.252 M1424.6 180.159 L1428.86 180.159 L1428.86 185.553 L1424.6 185.553 L1424.6 180.159 Z" fill="#000000" fill-rule="nonzero" fill-opacity="1" /><path clip-path="url(#clip830)" d="M1456.43 191.247 L1456.43 195.229 Q1454.63 194.233 1452.8 193.747 Q1450.99 193.238 1449.14 193.238 Q1445 193.238 1442.71 195.877 Q1440.41 198.492 1440.41 203.238 Q1440.41 207.983 1442.71 210.622 Q1445 213.238 1449.14 213.238 Q1450.99 213.238 1452.8 212.752 Q1454.63 212.242 1456.43 211.247 L1456.43 215.182 Q1454.65 216.016 1452.73 216.432 Q1450.83 216.849 1448.68 216.849 Q1442.82 216.849 1439.37 213.168 Q1435.92 209.488 1435.92 203.238 Q1435.92 196.895 1439.4 193.261 Q1442.89 189.627 1448.96 189.627 Q1450.92 189.627 1452.8 190.043 Q1454.67 190.437 1456.43 191.247 Z" fill="#000000" fill-rule="nonzero" fill-opacity="1" /><path clip-path="url(#clip830)" d="M1468.05 182.891 L1468.05 190.252 L1476.83 190.252 L1476.83 193.562 L1468.05 193.562 L1468.05 207.636 Q1468.05 210.807 1468.91 211.71 Q1469.79 212.613 1472.45 212.613 L1476.83 212.613 L1476.83 216.178 L1472.45 216.178 Q1467.52 216.178 1465.65 214.349 Q1463.77 212.497 1463.77 207.636 L1463.77 193.562 L1460.65 193.562 L1460.65 190.252 L1463.77 190.252 L1463.77 182.891 L1468.05 182.891 Z" fill="#000000" fill-rule="nonzero" fill-opacity="1" /><path clip-path="url(#clip830)" d="M1504.6 202.15 L1504.6 204.233 L1485.02 204.233 Q1485.3 208.631 1487.66 210.946 Q1490.04 213.238 1494.28 213.238 Q1496.73 213.238 1499.03 212.636 Q1501.34 212.034 1503.61 210.83 L1503.61 214.858 Q1501.32 215.83 1498.91 216.34 Q1496.5 216.849 1494.03 216.849 Q1487.82 216.849 1484.19 213.238 Q1480.58 209.627 1480.58 203.469 Q1480.58 197.104 1484 193.377 Q1487.45 189.627 1493.28 189.627 Q1498.52 189.627 1501.55 193.006 Q1504.6 196.363 1504.6 202.15 M1500.34 200.9 Q1500.3 197.405 1498.38 195.321 Q1496.48 193.238 1493.33 193.238 Q1489.77 193.238 1487.61 195.252 Q1485.48 197.266 1485.16 200.923 L1500.34 200.9 Z" fill="#000000" fill-rule="nonzero" fill-opacity="1" /><path clip-path="url(#clip830)" d="M1528.65 194.187 L1528.65 180.159 L1532.91 180.159 L1532.91 216.178 L1528.65 216.178 L1528.65 212.289 Q1527.31 214.603 1525.25 215.738 Q1523.21 216.849 1520.34 216.849 Q1515.65 216.849 1512.68 213.099 Q1509.74 209.349 1509.74 203.238 Q1509.74 197.127 1512.68 193.377 Q1515.65 189.627 1520.34 189.627 Q1523.21 189.627 1525.25 190.761 Q1527.31 191.872 1528.65 194.187 M1514.14 203.238 Q1514.14 207.937 1516.06 210.622 Q1518.01 213.284 1521.39 213.284 Q1524.77 213.284 1526.71 210.622 Q1528.65 207.937 1528.65 203.238 Q1528.65 198.539 1526.71 195.877 Q1524.77 193.192 1521.39 193.192 Q1518.01 193.192 1516.06 195.877 Q1514.14 198.539 1514.14 203.238 Z" fill="#000000" fill-rule="nonzero" fill-opacity="1" /><path clip-path="url(#clip830)" d="M1791.38 1486.45 L2352.76 1486.45 L2352.76 47.2441 L1791.38 47.2441  Z" fill="#ffffff" fill-rule="evenodd" fill-opacity="1"/>
<defs>
  <clipPath id="clip834">
    <rect x="1791" y="47" width="562" height="1440"/>
  </clipPath>
</defs>
<polyline clip-path="url(#clip834)" style="stroke:#000000; stroke-linecap:round; stroke-linejoin:round; stroke-width:2; stroke-opacity:0.1; fill:none" points="1807.27,1486.45 1807.27,47.2441 "/>
<polyline clip-path="url(#clip834)" style="stroke:#000000; stroke-linecap:round; stroke-linejoin:round; stroke-width:2; stroke-opacity:0.1; fill:none" points="1891.56,1486.45 1891.56,47.2441 "/>
<polyline clip-path="url(#clip834)" style="stroke:#000000; stroke-linecap:round; stroke-linejoin:round; stroke-width:2; stroke-opacity:0.1; fill:none" points="1975.85,1486.45 1975.85,47.2441 "/>
<polyline clip-path="url(#clip834)" style="stroke:#000000; stroke-linecap:round; stroke-linejoin:round; stroke-width:2; stroke-opacity:0.1; fill:none" points="2060.13,1486.45 2060.13,47.2441 "/>
<polyline clip-path="url(#clip834)" style="stroke:#000000; stroke-linecap:round; stroke-linejoin:round; stroke-width:2; stroke-opacity:0.1; fill:none" points="2144.42,1486.45 2144.42,47.2441 "/>
<polyline clip-path="url(#clip834)" style="stroke:#000000; stroke-linecap:round; stroke-linejoin:round; stroke-width:2; stroke-opacity:0.1; fill:none" points="2228.71,1486.45 2228.71,47.2441 "/>
<polyline clip-path="url(#clip834)" style="stroke:#000000; stroke-linecap:round; stroke-linejoin:round; stroke-width:2; stroke-opacity:0.1; fill:none" points="2313,1486.45 2313,47.2441 "/>
<polyline clip-path="url(#clip830)" style="stroke:#000000; stroke-linecap:round; stroke-linejoin:round; stroke-width:4; stroke-opacity:1; fill:none" points="1791.38,1486.45 2352.76,1486.45 "/>
<polyline clip-path="url(#clip830)" style="stroke:#000000; stroke-linecap:round; stroke-linejoin:round; stroke-width:4; stroke-opacity:1; fill:none" points="1807.27,1486.45 1807.27,1467.55 "/>
<polyline clip-path="url(#clip830)" style="stroke:#000000; stroke-linecap:round; stroke-linejoin:round; stroke-width:4; stroke-opacity:1; fill:none" points="1891.56,1486.45 1891.56,1467.55 "/>
<polyline clip-path="url(#clip830)" style="stroke:#000000; stroke-linecap:round; stroke-linejoin:round; stroke-width:4; stroke-opacity:1; fill:none" points="1975.85,1486.45 1975.85,1467.55 "/>
<polyline clip-path="url(#clip830)" style="stroke:#000000; stroke-linecap:round; stroke-linejoin:round; stroke-width:4; stroke-opacity:1; fill:none" points="2060.13,1486.45 2060.13,1467.55 "/>
<polyline clip-path="url(#clip830)" style="stroke:#000000; stroke-linecap:round; stroke-linejoin:round; stroke-width:4; stroke-opacity:1; fill:none" points="2144.42,1486.45 2144.42,1467.55 "/>
<polyline clip-path="url(#clip830)" style="stroke:#000000; stroke-linecap:round; stroke-linejoin:round; stroke-width:4; stroke-opacity:1; fill:none" points="2228.71,1486.45 2228.71,1467.55 "/>
<polyline clip-path="url(#clip830)" style="stroke:#000000; stroke-linecap:round; stroke-linejoin:round; stroke-width:4; stroke-opacity:1; fill:none" points="2313,1486.45 2313,1467.55 "/>
<path clip-path="url(#clip830)" d="M1807.27 1517.37 Q1803.66 1517.37 1801.83 1520.93 Q1800.02 1524.47 1800.02 1531.6 Q1800.02 1538.71 1801.83 1542.27 Q1803.66 1545.82 1807.27 1545.82 Q1810.9 1545.82 1812.71 1542.27 Q1814.54 1538.71 1814.54 1531.6 Q1814.54 1524.47 1812.71 1520.93 Q1810.9 1517.37 1807.27 1517.37 M1807.27 1513.66 Q1813.08 1513.66 1816.14 1518.27 Q1819.21 1522.85 1819.21 1531.6 Q1819.21 1540.33 1816.14 1544.94 Q1813.08 1549.52 1807.27 1549.52 Q1801.46 1549.52 1798.38 1544.94 Q1795.33 1540.33 1795.33 1531.6 Q1795.33 1522.85 1798.38 1518.27 Q1801.46 1513.66 1807.27 1513.66 Z" fill="#000000" fill-rule="nonzero" fill-opacity="1" /><path clip-path="url(#clip830)" d="M1881.94 1544.91 L1889.58 1544.91 L1889.58 1518.55 L1881.27 1520.21 L1881.27 1515.95 L1889.53 1514.29 L1894.21 1514.29 L1894.21 1544.91 L1901.85 1544.91 L1901.85 1548.85 L1881.94 1548.85 L1881.94 1544.91 Z" fill="#000000" fill-rule="nonzero" fill-opacity="1" /><path clip-path="url(#clip830)" d="M1970.5 1544.91 L1986.82 1544.91 L1986.82 1548.85 L1964.87 1548.85 L1964.87 1544.91 Q1967.54 1542.16 1972.12 1537.53 Q1976.73 1532.88 1977.91 1531.53 Q1980.15 1529.01 1981.03 1527.27 Q1981.93 1525.51 1981.93 1523.82 Q1981.93 1521.07 1979.99 1519.33 Q1978.07 1517.6 1974.97 1517.6 Q1972.77 1517.6 1970.31 1518.36 Q1967.88 1519.13 1965.11 1520.68 L1965.11 1515.95 Q1967.93 1514.82 1970.38 1514.24 Q1972.84 1513.66 1974.87 1513.66 Q1980.24 1513.66 1983.44 1516.35 Q1986.63 1519.03 1986.63 1523.52 Q1986.63 1525.65 1985.82 1527.57 Q1985.04 1529.47 1982.93 1532.07 Q1982.35 1532.74 1979.25 1535.95 Q1976.15 1539.15 1970.5 1544.91 Z" fill="#000000" fill-rule="nonzero" fill-opacity="1" /><path clip-path="url(#clip830)" d="M2064.38 1530.21 Q2067.74 1530.93 2069.61 1533.2 Q2071.51 1535.47 2071.51 1538.8 Q2071.51 1543.92 2067.99 1546.72 Q2064.47 1549.52 2057.99 1549.52 Q2055.82 1549.52 2053.5 1549.08 Q2051.21 1548.66 2048.76 1547.81 L2048.76 1543.29 Q2050.7 1544.43 2053.02 1545.01 Q2055.33 1545.58 2057.85 1545.58 Q2062.25 1545.58 2064.54 1543.85 Q2066.86 1542.11 2066.86 1538.8 Q2066.86 1535.75 2064.71 1534.03 Q2062.58 1532.3 2058.76 1532.3 L2054.73 1532.3 L2054.73 1528.45 L2058.94 1528.45 Q2062.39 1528.45 2064.22 1527.09 Q2066.05 1525.7 2066.05 1523.11 Q2066.05 1520.45 2064.15 1519.03 Q2062.28 1517.6 2058.76 1517.6 Q2056.84 1517.6 2054.64 1518.01 Q2052.44 1518.43 2049.8 1519.31 L2049.8 1515.14 Q2052.46 1514.4 2054.78 1514.03 Q2057.11 1513.66 2059.17 1513.66 Q2064.5 1513.66 2067.6 1516.09 Q2070.7 1518.5 2070.7 1522.62 Q2070.7 1525.49 2069.06 1527.48 Q2067.41 1529.45 2064.38 1530.21 Z" fill="#000000" fill-rule="nonzero" fill-opacity="1" /><path clip-path="url(#clip830)" d="M2147.43 1518.36 L2135.63 1536.81 L2147.43 1536.81 L2147.43 1518.36 M2146.2 1514.29 L2152.08 1514.29 L2152.08 1536.81 L2157.02 1536.81 L2157.02 1540.7 L2152.08 1540.7 L2152.08 1548.85 L2147.43 1548.85 L2147.43 1540.7 L2131.83 1540.7 L2131.83 1536.19 L2146.2 1514.29 Z" fill="#000000" fill-rule="nonzero" fill-opacity="1" /><path clip-path="url(#clip830)" d="M2218.99 1514.29 L2237.34 1514.29 L2237.34 1518.22 L2223.27 1518.22 L2223.27 1526.7 Q2224.29 1526.35 2225.31 1526.19 Q2226.33 1526 2227.34 1526 Q2233.13 1526 2236.51 1529.17 Q2239.89 1532.34 2239.89 1537.76 Q2239.89 1543.34 2236.42 1546.44 Q2232.95 1549.52 2226.63 1549.52 Q2224.45 1549.52 2222.18 1549.15 Q2219.94 1548.78 2217.53 1548.04 L2217.53 1543.34 Q2219.61 1544.47 2221.84 1545.03 Q2224.06 1545.58 2226.53 1545.58 Q2230.54 1545.58 2232.88 1543.48 Q2235.22 1541.37 2235.22 1537.76 Q2235.22 1534.15 2232.88 1532.04 Q2230.54 1529.94 2226.53 1529.94 Q2224.66 1529.94 2222.78 1530.35 Q2220.93 1530.77 2218.99 1531.65 L2218.99 1514.29 Z" fill="#000000" fill-rule="nonzero" fill-opacity="1" /><path clip-path="url(#clip830)" d="M2313.4 1529.7 Q2310.26 1529.7 2308.4 1531.86 Q2306.58 1534.01 2306.58 1537.76 Q2306.58 1541.49 2308.4 1543.66 Q2310.26 1545.82 2313.4 1545.82 Q2316.55 1545.82 2318.38 1543.66 Q2320.23 1541.49 2320.23 1537.76 Q2320.23 1534.01 2318.38 1531.86 Q2316.55 1529.7 2313.4 1529.7 M2322.69 1515.05 L2322.69 1519.31 Q2320.93 1518.48 2319.12 1518.04 Q2317.34 1517.6 2315.58 1517.6 Q2310.95 1517.6 2308.5 1520.72 Q2306.07 1523.85 2305.72 1530.17 Q2307.08 1528.15 2309.14 1527.09 Q2311.2 1526 2313.68 1526 Q2318.89 1526 2321.9 1529.17 Q2324.93 1532.32 2324.93 1537.76 Q2324.93 1543.08 2321.78 1546.3 Q2318.64 1549.52 2313.4 1549.52 Q2307.41 1549.52 2304.24 1544.94 Q2301.07 1540.33 2301.07 1531.6 Q2301.07 1523.41 2304.95 1518.55 Q2308.84 1513.66 2315.39 1513.66 Q2317.15 1513.66 2318.94 1514.01 Q2320.74 1514.36 2322.69 1515.05 Z" fill="#000000" fill-rule="nonzero" fill-opacity="1" /><polyline clip-path="url(#clip834)" style="stroke:#000000; stroke-linecap:round; stroke-linejoin:round; stroke-width:2; stroke-opacity:0.1; fill:none" points="1791.38,1445.72 2352.76,1445.72 "/>
<polyline clip-path="url(#clip834)" style="stroke:#000000; stroke-linecap:round; stroke-linejoin:round; stroke-width:2; stroke-opacity:0.1; fill:none" points="1791.38,1106.28 2352.76,1106.28 "/>
<polyline clip-path="url(#clip834)" style="stroke:#000000; stroke-linecap:round; stroke-linejoin:round; stroke-width:2; stroke-opacity:0.1; fill:none" points="1791.38,766.846 2352.76,766.846 "/>
<polyline clip-path="url(#clip834)" style="stroke:#000000; stroke-linecap:round; stroke-linejoin:round; stroke-width:2; stroke-opacity:0.1; fill:none" points="1791.38,427.411 2352.76,427.411 "/>
<polyline clip-path="url(#clip834)" style="stroke:#000000; stroke-linecap:round; stroke-linejoin:round; stroke-width:2; stroke-opacity:0.1; fill:none" points="1791.38,87.9763 2352.76,87.9763 "/>
<polyline clip-path="url(#clip830)" style="stroke:#000000; stroke-linecap:round; stroke-linejoin:round; stroke-width:4; stroke-opacity:1; fill:none" points="1791.38,1486.45 1791.38,47.2441 "/>
<polyline clip-path="url(#clip830)" style="stroke:#000000; stroke-linecap:round; stroke-linejoin:round; stroke-width:4; stroke-opacity:1; fill:none" points="1791.38,1445.72 1810.28,1445.72 "/>
<polyline clip-path="url(#clip830)" style="stroke:#000000; stroke-linecap:round; stroke-linejoin:round; stroke-width:4; stroke-opacity:1; fill:none" points="1791.38,1106.28 1810.28,1106.28 "/>
<polyline clip-path="url(#clip830)" style="stroke:#000000; stroke-linecap:round; stroke-linejoin:round; stroke-width:4; stroke-opacity:1; fill:none" points="1791.38,766.846 1810.28,766.846 "/>
<polyline clip-path="url(#clip830)" style="stroke:#000000; stroke-linecap:round; stroke-linejoin:round; stroke-width:4; stroke-opacity:1; fill:none" points="1791.38,427.411 1810.28,427.411 "/>
<polyline clip-path="url(#clip830)" style="stroke:#000000; stroke-linecap:round; stroke-linejoin:round; stroke-width:4; stroke-opacity:1; fill:none" points="1791.38,87.9763 1810.28,87.9763 "/>
<path clip-path="url(#clip830)" d="M1668.04 1431.51 Q1664.43 1431.51 1662.6 1435.08 Q1660.8 1438.62 1660.8 1445.75 Q1660.8 1452.86 1662.6 1456.42 Q1664.43 1459.96 1668.04 1459.96 Q1671.68 1459.96 1673.48 1456.42 Q1675.31 1452.86 1675.31 1445.75 Q1675.31 1438.62 1673.48 1435.08 Q1671.68 1431.51 1668.04 1431.51 M1668.04 1427.81 Q1673.85 1427.81 1676.91 1432.42 Q1679.99 1437 1679.99 1445.75 Q1679.99 1454.48 1676.91 1459.08 Q1673.85 1463.67 1668.04 1463.67 Q1662.23 1463.67 1659.16 1459.08 Q1656.1 1454.48 1656.1 1445.75 Q1656.1 1437 1659.16 1432.42 Q1662.23 1427.81 1668.04 1427.81 Z" fill="#000000" fill-rule="nonzero" fill-opacity="1" /><path clip-path="url(#clip830)" d="M1688.21 1457.12 L1693.09 1457.12 L1693.09 1463 L1688.21 1463 L1688.21 1457.12 Z" fill="#000000" fill-rule="nonzero" fill-opacity="1" /><path clip-path="url(#clip830)" d="M1713.28 1431.51 Q1709.66 1431.51 1707.84 1435.08 Q1706.03 1438.62 1706.03 1445.75 Q1706.03 1452.86 1707.84 1456.42 Q1709.66 1459.96 1713.28 1459.96 Q1716.91 1459.96 1718.72 1456.42 Q1720.54 1452.86 1720.54 1445.75 Q1720.54 1438.62 1718.72 1435.08 Q1716.91 1431.51 1713.28 1431.51 M1713.28 1427.81 Q1719.09 1427.81 1722.14 1432.42 Q1725.22 1437 1725.22 1445.75 Q1725.22 1454.48 1722.14 1459.08 Q1719.09 1463.67 1713.28 1463.67 Q1707.47 1463.67 1704.39 1459.08 Q1701.33 1454.48 1701.33 1445.75 Q1701.33 1437 1704.39 1432.42 Q1707.47 1427.81 1713.28 1427.81 Z" fill="#000000" fill-rule="nonzero" fill-opacity="1" /><path clip-path="url(#clip830)" d="M1743.44 1431.51 Q1739.83 1431.51 1738 1435.08 Q1736.19 1438.62 1736.19 1445.75 Q1736.19 1452.86 1738 1456.42 Q1739.83 1459.96 1743.44 1459.96 Q1747.07 1459.96 1748.88 1456.42 Q1750.71 1452.86 1750.71 1445.75 Q1750.71 1438.62 1748.88 1435.08 Q1747.07 1431.51 1743.44 1431.51 M1743.44 1427.81 Q1749.25 1427.81 1752.3 1432.42 Q1755.38 1437 1755.38 1445.75 Q1755.38 1454.48 1752.3 1459.08 Q1749.25 1463.67 1743.44 1463.67 Q1737.63 1463.67 1734.55 1459.08 Q1731.49 1454.48 1731.49 1445.75 Q1731.49 1437 1734.55 1432.42 Q1737.63 1427.81 1743.44 1427.81 Z" fill="#000000" fill-rule="nonzero" fill-opacity="1" /><path clip-path="url(#clip830)" d="M1669.04 1092.08 Q1665.43 1092.08 1663.6 1095.64 Q1661.79 1099.19 1661.79 1106.32 Q1661.79 1113.42 1663.6 1116.99 Q1665.43 1120.53 1669.04 1120.53 Q1672.67 1120.53 1674.48 1116.99 Q1676.31 1113.42 1676.31 1106.32 Q1676.31 1099.19 1674.48 1095.64 Q1672.67 1092.08 1669.04 1092.08 M1669.04 1088.38 Q1674.85 1088.38 1677.91 1092.98 Q1680.98 1097.57 1680.98 1106.32 Q1680.98 1115.04 1677.91 1119.65 Q1674.85 1124.23 1669.04 1124.23 Q1663.23 1124.23 1660.15 1119.65 Q1657.1 1115.04 1657.1 1106.32 Q1657.1 1097.57 1660.15 1092.98 Q1663.23 1088.38 1669.04 1088.38 Z" fill="#000000" fill-rule="nonzero" fill-opacity="1" /><path clip-path="url(#clip830)" d="M1689.2 1117.68 L1694.09 1117.68 L1694.09 1123.56 L1689.2 1123.56 L1689.2 1117.68 Z" fill="#000000" fill-rule="nonzero" fill-opacity="1" /><path clip-path="url(#clip830)" d="M1708.3 1119.63 L1724.62 1119.63 L1724.62 1123.56 L1702.67 1123.56 L1702.67 1119.63 Q1705.34 1116.87 1709.92 1112.24 Q1714.53 1107.59 1715.71 1106.25 Q1717.95 1103.72 1718.83 1101.99 Q1719.73 1100.23 1719.73 1098.54 Q1719.73 1095.78 1717.79 1094.05 Q1715.87 1092.31 1712.77 1092.31 Q1710.57 1092.31 1708.11 1093.07 Q1705.68 1093.84 1702.91 1095.39 L1702.91 1090.67 Q1705.73 1089.53 1708.18 1088.95 Q1710.64 1088.38 1712.67 1088.38 Q1718.04 1088.38 1721.24 1091.06 Q1724.43 1093.75 1724.43 1098.24 Q1724.43 1100.37 1723.62 1102.29 Q1722.84 1104.19 1720.73 1106.78 Q1720.15 1107.45 1717.05 1110.67 Q1713.95 1113.86 1708.3 1119.63 Z" fill="#000000" fill-rule="nonzero" fill-opacity="1" /><path clip-path="url(#clip830)" d="M1734.48 1089 L1752.84 1089 L1752.84 1092.94 L1738.76 1092.94 L1738.76 1101.41 Q1739.78 1101.06 1740.8 1100.9 Q1741.82 1100.71 1742.84 1100.71 Q1748.62 1100.71 1752 1103.89 Q1755.38 1107.06 1755.38 1112.47 Q1755.38 1118.05 1751.91 1121.15 Q1748.44 1124.23 1742.12 1124.23 Q1739.94 1124.23 1737.67 1123.86 Q1735.43 1123.49 1733.02 1122.75 L1733.02 1118.05 Q1735.1 1119.19 1737.33 1119.74 Q1739.55 1120.3 1742.03 1120.3 Q1746.03 1120.3 1748.37 1118.19 Q1750.71 1116.08 1750.71 1112.47 Q1750.71 1108.86 1748.37 1106.76 Q1746.03 1104.65 1742.03 1104.65 Q1740.15 1104.65 1738.28 1105.07 Q1736.42 1105.48 1734.48 1106.36 L1734.48 1089 Z" fill="#000000" fill-rule="nonzero" fill-opacity="1" /><path clip-path="url(#clip830)" d="M1668.04 752.645 Q1664.43 752.645 1662.6 756.209 Q1660.8 759.751 1660.8 766.881 Q1660.8 773.987 1662.6 777.552 Q1664.43 781.094 1668.04 781.094 Q1671.68 781.094 1673.48 777.552 Q1675.31 773.987 1675.31 766.881 Q1675.31 759.751 1673.48 756.209 Q1671.68 752.645 1668.04 752.645 M1668.04 748.941 Q1673.85 748.941 1676.91 753.547 Q1679.99 758.131 1679.99 766.881 Q1679.99 775.608 1676.91 780.214 Q1673.85 784.797 1668.04 784.797 Q1662.23 784.797 1659.16 780.214 Q1656.1 775.608 1656.1 766.881 Q1656.1 758.131 1659.16 753.547 Q1662.23 748.941 1668.04 748.941 Z" fill="#000000" fill-rule="nonzero" fill-opacity="1" /><path clip-path="url(#clip830)" d="M1688.21 778.246 L1693.09 778.246 L1693.09 784.126 L1688.21 784.126 L1688.21 778.246 Z" fill="#000000" fill-rule="nonzero" fill-opacity="1" /><path clip-path="url(#clip830)" d="M1703.32 749.566 L1721.68 749.566 L1721.68 753.501 L1707.6 753.501 L1707.6 761.973 Q1708.62 761.626 1709.64 761.464 Q1710.66 761.279 1711.68 761.279 Q1717.47 761.279 1720.85 764.45 Q1724.22 767.621 1724.22 773.038 Q1724.22 778.617 1720.75 781.719 Q1717.28 784.797 1710.96 784.797 Q1708.79 784.797 1706.52 784.427 Q1704.27 784.057 1701.86 783.316 L1701.86 778.617 Q1703.95 779.751 1706.17 780.307 Q1708.39 780.862 1710.87 780.862 Q1714.87 780.862 1717.21 778.756 Q1719.55 776.649 1719.55 773.038 Q1719.55 769.427 1717.21 767.321 Q1714.87 765.214 1710.87 765.214 Q1708.99 765.214 1707.12 765.631 Q1705.27 766.047 1703.32 766.927 L1703.32 749.566 Z" fill="#000000" fill-rule="nonzero" fill-opacity="1" /><path clip-path="url(#clip830)" d="M1743.44 752.645 Q1739.83 752.645 1738 756.209 Q1736.19 759.751 1736.19 766.881 Q1736.19 773.987 1738 777.552 Q1739.83 781.094 1743.44 781.094 Q1747.07 781.094 1748.88 777.552 Q1750.71 773.987 1750.71 766.881 Q1750.71 759.751 1748.88 756.209 Q1747.07 752.645 1743.44 752.645 M1743.44 748.941 Q1749.25 748.941 1752.3 753.547 Q1755.38 758.131 1755.38 766.881 Q1755.38 775.608 1752.3 780.214 Q1749.25 784.797 1743.44 784.797 Q1737.63 784.797 1734.55 780.214 Q1731.49 775.608 1731.49 766.881 Q1731.49 758.131 1734.55 753.547 Q1737.63 748.941 1743.44 748.941 Z" fill="#000000" fill-rule="nonzero" fill-opacity="1" /><path clip-path="url(#clip830)" d="M1669.04 413.21 Q1665.43 413.21 1663.6 416.775 Q1661.79 420.316 1661.79 427.446 Q1661.79 434.552 1663.6 438.117 Q1665.43 441.659 1669.04 441.659 Q1672.67 441.659 1674.48 438.117 Q1676.31 434.552 1676.31 427.446 Q1676.31 420.316 1674.48 416.775 Q1672.67 413.21 1669.04 413.21 M1669.04 409.506 Q1674.85 409.506 1677.91 414.113 Q1680.98 418.696 1680.98 427.446 Q1680.98 436.173 1677.91 440.779 Q1674.85 445.362 1669.04 445.362 Q1663.23 445.362 1660.15 440.779 Q1657.1 436.173 1657.1 427.446 Q1657.1 418.696 1660.15 414.113 Q1663.23 409.506 1669.04 409.506 Z" fill="#000000" fill-rule="nonzero" fill-opacity="1" /><path clip-path="url(#clip830)" d="M1689.2 438.812 L1694.09 438.812 L1694.09 444.691 L1689.2 444.691 L1689.2 438.812 Z" fill="#000000" fill-rule="nonzero" fill-opacity="1" /><path clip-path="url(#clip830)" d="M1703.09 410.131 L1725.31 410.131 L1725.31 412.122 L1712.77 444.691 L1707.88 444.691 L1719.69 414.066 L1703.09 414.066 L1703.09 410.131 Z" fill="#000000" fill-rule="nonzero" fill-opacity="1" /><path clip-path="url(#clip830)" d="M1734.48 410.131 L1752.84 410.131 L1752.84 414.066 L1738.76 414.066 L1738.76 422.538 Q1739.78 422.191 1740.8 422.029 Q1741.82 421.844 1742.84 421.844 Q1748.62 421.844 1752 425.015 Q1755.38 428.187 1755.38 433.603 Q1755.38 439.182 1751.91 442.284 Q1748.44 445.362 1742.12 445.362 Q1739.94 445.362 1737.67 444.992 Q1735.43 444.622 1733.02 443.881 L1733.02 439.182 Q1735.1 440.316 1737.33 440.872 Q1739.55 441.427 1742.03 441.427 Q1746.03 441.427 1748.37 439.321 Q1750.71 437.214 1750.71 433.603 Q1750.71 429.992 1748.37 427.886 Q1746.03 425.779 1742.03 425.779 Q1740.15 425.779 1738.28 426.196 Q1736.42 426.613 1734.48 427.492 L1734.48 410.131 Z" fill="#000000" fill-rule="nonzero" fill-opacity="1" /><path clip-path="url(#clip830)" d="M1658.85 101.321 L1666.49 101.321 L1666.49 74.9555 L1658.18 76.6222 L1658.18 72.3629 L1666.45 70.6963 L1671.12 70.6963 L1671.12 101.321 L1678.76 101.321 L1678.76 105.256 L1658.85 105.256 L1658.85 101.321 Z" fill="#000000" fill-rule="nonzero" fill-opacity="1" /><path clip-path="url(#clip830)" d="M1688.21 99.3767 L1693.09 99.3767 L1693.09 105.256 L1688.21 105.256 L1688.21 99.3767 Z" fill="#000000" fill-rule="nonzero" fill-opacity="1" /><path clip-path="url(#clip830)" d="M1713.28 73.775 Q1709.66 73.775 1707.84 77.3398 Q1706.03 80.8814 1706.03 88.011 Q1706.03 95.1174 1707.84 98.6822 Q1709.66 102.224 1713.28 102.224 Q1716.91 102.224 1718.72 98.6822 Q1720.54 95.1174 1720.54 88.011 Q1720.54 80.8814 1718.72 77.3398 Q1716.91 73.775 1713.28 73.775 M1713.28 70.0713 Q1719.09 70.0713 1722.14 74.6777 Q1725.22 79.261 1725.22 88.011 Q1725.22 96.7378 1722.14 101.344 Q1719.09 105.928 1713.28 105.928 Q1707.47 105.928 1704.39 101.344 Q1701.33 96.7378 1701.33 88.011 Q1701.33 79.261 1704.39 74.6777 Q1707.47 70.0713 1713.28 70.0713 Z" fill="#000000" fill-rule="nonzero" fill-opacity="1" /><path clip-path="url(#clip830)" d="M1743.44 73.775 Q1739.83 73.775 1738 77.3398 Q1736.19 80.8814 1736.19 88.011 Q1736.19 95.1174 1738 98.6822 Q1739.83 102.224 1743.44 102.224 Q1747.07 102.224 1748.88 98.6822 Q1750.71 95.1174 1750.71 88.011 Q1750.71 80.8814 1748.88 77.3398 Q1747.07 73.775 1743.44 73.775 M1743.44 70.0713 Q1749.25 70.0713 1752.3 74.6777 Q1755.38 79.261 1755.38 88.011 Q1755.38 96.7378 1752.3 101.344 Q1749.25 105.928 1743.44 105.928 Q1737.63 105.928 1734.55 101.344 Q1731.49 96.7378 1731.49 88.011 Q1731.49 79.261 1734.55 74.6777 Q1737.63 70.0713 1743.44 70.0713 Z" fill="#000000" fill-rule="nonzero" fill-opacity="1" /><polyline clip-path="url(#clip834)" style="stroke:#0000ff; stroke-linecap:round; stroke-linejoin:round; stroke-width:4; stroke-opacity:1; fill:none" points="1807.27,1445.72 1812.62,1445.72 1817.97,1445.72 1823.32,1445.72 1828.67,1445.72 1834.02,1445.72 1839.37,1445.72 1844.72,1445.72 1850.07,1445.72 1855.42,1445.72 1860.76,1445.72 1866.11,1445.72 1871.46,1445.72 1876.81,1445.72 1882.16,1445.72 1887.51,1445.72 1892.86,1445.72 1898.21,1445.72 1903.56,1445.72 1908.91,1445.72 1914.26,1445.72 1919.61,1445.72 1924.96,1445.72 1930.31,1445.72 1935.66,1445.72 1941.01,1445.72 1946.36,1445.72 1951.71,1445.72 1957.06,1445.72 1962.4,1445.72 1967.75,1445.72 1973.1,1445.72 1978.45,1445.72 1983.8,1445.72 1989.15,1445.72 1994.5,1445.72 1999.85,1445.72 2005.2,1445.72 2010.55,1445.72 2015.9,1445.72 2021.25,1445.72 2026.6,1445.72 2031.95,1445.72 2037.3,1445.72 2042.65,1445.72 2048,1445.72 2053.35,1445.72 2058.7,1445.72 2064.04,1445.72 2069.39,1445.72 2074.74,1445.72 2080.09,1445.72 2085.44,1445.72 2090.79,1445.72 2096.14,1445.72 2101.49,1445.72 2106.84,1445.72 2112.19,1445.72 2117.54,1445.72 2122.89,1445.72 2128.24,1445.72 2133.59,1445.72 2138.94,1445.72 2144.29,1445.72 2149.64,1445.72 2154.99,1445.72 2160.34,1445.72 2165.68,1445.72 2171.03,1445.72 2176.38,1445.72 2181.73,1445.72 2187.08,1445.72 2192.43,1445.72 2197.78,1445.72 2203.13,1445.72 2208.48,1445.72 2213.83,1445.72 2219.18,1445.72 2224.53,1445.72 2229.88,1445.72 2235.23,1445.72 2240.58,1445.72 2245.93,1445.72 2251.28,1445.72 2256.63,1445.72 2261.98,1445.72 2267.32,1445.72 2272.67,1445.72 2278.02,1445.72 2283.37,1445.72 2288.72,1445.72 2294.07,1445.72 2299.42,1445.72 2304.77,1445.72 2310.12,1445.72 2315.47,1445.72 2320.82,1445.72 2326.17,1445.72 2331.52,1445.72 2336.87,1445.72 "/>
<polyline clip-path="url(#clip834)" style="stroke:#ff0000; stroke-linecap:round; stroke-linejoin:round; stroke-width:4; stroke-opacity:1; fill:none" stroke-dasharray="16, 10" points="1807.27,1445.72 1812.62,1445.72 1817.97,1445.72 1823.32,1445.72 1828.67,1445.72 1834.02,1445.72 1839.37,1445.72 1844.72,1445.72 1850.07,1445.72 1855.42,1445.72 1860.76,1445.72 1866.11,1445.72 1871.46,1445.72 1876.81,1445.72 1882.16,1445.72 1887.51,1445.72 1892.86,1445.72 1898.21,1445.72 1903.56,1445.72 1908.91,1445.72 1914.26,1445.72 1919.61,1445.72 1924.96,1445.72 1930.31,1445.72 1935.66,1445.72 1941.01,1445.72 1946.36,1445.72 1951.71,1445.72 1957.06,1445.72 1962.4,1445.72 1967.75,1445.72 1973.1,1445.72 1978.45,1445.72 1983.8,1445.72 1989.15,1445.72 1994.5,1445.72 1999.85,1445.72 2005.2,1445.72 2010.55,1445.72 2015.9,1445.72 2021.25,1445.72 2026.6,1445.72 2031.95,1445.72 2037.3,1445.72 2042.65,1445.72 2048,1445.72 2053.35,1445.72 2058.7,1445.72 2064.04,1445.72 2069.39,1445.72 2074.74,1445.72 2080.09,1445.72 2085.44,1445.72 2090.79,1445.72 2096.14,1445.72 2101.49,1445.72 2106.84,1445.72 2112.19,1445.72 2117.54,1445.72 2122.89,1445.72 2128.24,1445.72 2133.59,1445.72 2138.94,1445.72 2144.29,1445.72 2149.64,1445.72 2154.99,1445.72 2160.34,1445.72 2165.68,1445.72 2171.03,1445.72 2176.38,1445.72 2181.73,1445.72 2187.08,1445.72 2192.43,1445.72 2197.78,1445.72 2203.13,1445.72 2208.48,1445.72 2213.83,1445.72 2219.18,1445.72 2224.53,1445.72 2229.88,1445.72 2235.23,1445.72 2240.58,1445.72 2245.93,1445.72 2251.28,1445.72 2256.63,1445.72 2261.98,1445.72 2267.32,1445.72 2272.67,1445.72 2278.02,1445.72 2283.37,1445.72 2288.72,1445.72 2294.07,1445.72 2299.42,1445.72 2304.77,1445.72 2310.12,1445.72 2315.47,1445.72 2320.82,1445.72 2326.17,1445.72 2331.52,1445.72 2336.87,1445.72 "/>
<path clip-path="url(#clip830)" d="M2006.31 250.738 L2334.04 250.738 L2334.04 95.2176 L2006.31 95.2176  Z" fill="#ffffff" fill-rule="evenodd" fill-opacity="1"/>
<polyline clip-path="url(#clip830)" style="stroke:#000000; stroke-linecap:round; stroke-linejoin:round; stroke-width:4; stroke-opacity:1; fill:none" points="2006.31,250.738 2334.04,250.738 2334.04,95.2176 2006.31,95.2176 2006.31,250.738 "/>
<polyline clip-path="url(#clip830)" style="stroke:#0000ff; stroke-linecap:round; stroke-linejoin:round; stroke-width:4; stroke-opacity:1; fill:none" points="2012.55,147.058 2049.97,147.058 "/>
<path clip-path="url(#clip830)" d="M2063.83 142.486 L2069.5 158.504 L2077.6 138.412 L2082.11 138.412 L2071.63 164.338 L2071.63 174.199 L2067.37 174.199 L2067.37 164.338 L2060.56 144.986 Q2059.54 142.069 2057.34 142.069 L2056.21 142.069 L2056.21 138.412 L2057.83 138.412 Q2062.39 138.412 2063.83 142.486 Z" fill="#000000" fill-rule="nonzero" fill-opacity="1" /><path clip-path="url(#clip830)" d="M2107.69 172.208 L2107.69 175.518 L2083.06 175.518 L2083.06 172.208 L2107.69 172.208 Z" fill="#000000" fill-rule="nonzero" fill-opacity="1" /><path clip-path="url(#clip830)" d="M2131.88 143.389 Q2133.48 140.518 2135.7 139.153 Q2137.92 137.787 2140.93 137.787 Q2144.98 137.787 2147.18 140.634 Q2149.38 143.458 2149.38 148.689 L2149.38 164.338 L2145.1 164.338 L2145.1 148.828 Q2145.1 145.102 2143.78 143.296 Q2142.46 141.49 2139.75 141.49 Q2136.44 141.49 2134.52 143.69 Q2132.6 145.889 2132.6 149.685 L2132.6 164.338 L2128.32 164.338 L2128.32 148.828 Q2128.32 145.078 2127 143.296 Q2125.68 141.49 2122.92 141.49 Q2119.66 141.49 2117.74 143.713 Q2115.82 145.912 2115.82 149.685 L2115.82 164.338 L2111.53 164.338 L2111.53 138.412 L2115.82 138.412 L2115.82 142.44 Q2117.27 140.055 2119.31 138.921 Q2121.35 137.787 2124.15 137.787 Q2126.97 137.787 2128.94 139.222 Q2130.93 140.657 2131.88 143.389 Z" fill="#000000" fill-rule="nonzero" fill-opacity="1" /><path clip-path="url(#clip830)" d="M2169.66 151.305 Q2164.5 151.305 2162.51 152.486 Q2160.52 153.666 2160.52 156.514 Q2160.52 158.782 2162 160.125 Q2163.5 161.444 2166.07 161.444 Q2169.61 161.444 2171.74 158.944 Q2173.89 156.421 2173.89 152.254 L2173.89 151.305 L2169.66 151.305 M2178.15 149.546 L2178.15 164.338 L2173.89 164.338 L2173.89 160.402 Q2172.44 162.763 2170.26 163.898 Q2168.08 165.009 2164.94 165.009 Q2160.95 165.009 2158.59 162.787 Q2156.26 160.541 2156.26 156.791 Q2156.26 152.416 2159.17 150.194 Q2162.11 147.972 2167.92 147.972 L2173.89 147.972 L2173.89 147.555 Q2173.89 144.615 2171.95 143.018 Q2170.03 141.398 2166.53 141.398 Q2164.31 141.398 2162.2 141.93 Q2160.1 142.463 2158.15 143.527 L2158.15 139.592 Q2160.49 138.69 2162.69 138.25 Q2164.89 137.787 2166.97 137.787 Q2172.6 137.787 2175.38 140.703 Q2178.15 143.62 2178.15 149.546 Z" fill="#000000" fill-rule="nonzero" fill-opacity="1" /><path clip-path="url(#clip830)" d="M2191.14 131.051 L2191.14 138.412 L2199.91 138.412 L2199.91 141.722 L2191.14 141.722 L2191.14 155.796 Q2191.14 158.967 2192 159.87 Q2192.88 160.773 2195.54 160.773 L2199.91 160.773 L2199.91 164.338 L2195.54 164.338 Q2190.61 164.338 2188.73 162.509 Q2186.86 160.657 2186.86 155.796 L2186.86 141.722 L2183.73 141.722 L2183.73 138.412 L2186.86 138.412 L2186.86 131.051 L2191.14 131.051 Z" fill="#000000" fill-rule="nonzero" fill-opacity="1" /><path clip-path="url(#clip830)" d="M2220.54 142.393 Q2219.82 141.977 2218.96 141.791 Q2218.13 141.583 2217.11 141.583 Q2213.5 141.583 2211.56 143.944 Q2209.64 146.282 2209.64 150.68 L2209.64 164.338 L2205.35 164.338 L2205.35 138.412 L2209.64 138.412 L2209.64 142.44 Q2210.98 140.078 2213.13 138.944 Q2215.28 137.787 2218.36 137.787 Q2218.8 137.787 2219.33 137.856 Q2219.87 137.903 2220.51 138.018 L2220.54 142.393 Z" fill="#000000" fill-rule="nonzero" fill-opacity="1" /><path clip-path="url(#clip830)" d="M2225.01 138.412 L2229.26 138.412 L2229.26 164.338 L2225.01 164.338 L2225.01 138.412 M2225.01 128.319 L2229.26 128.319 L2229.26 133.713 L2225.01 133.713 L2225.01 128.319 Z" fill="#000000" fill-rule="nonzero" fill-opacity="1" /><path clip-path="url(#clip830)" d="M2259.73 138.412 L2250.35 151.027 L2260.21 164.338 L2255.19 164.338 L2247.64 154.152 L2240.1 164.338 L2235.07 164.338 L2245.14 150.773 L2235.93 138.412 L2240.95 138.412 L2247.83 147.648 L2254.7 138.412 L2259.73 138.412 Z" fill="#000000" fill-rule="nonzero" fill-opacity="1" /><polyline clip-path="url(#clip830)" style="stroke:#ff0000; stroke-linecap:round; stroke-linejoin:round; stroke-width:4; stroke-opacity:1; fill:none" stroke-dasharray="16, 10" points="2012.55,198.898 2049.97,198.898 "/>
<path clip-path="url(#clip830)" d="M2063.83 194.326 L2069.5 210.344 L2077.6 190.252 L2082.11 190.252 L2071.63 216.178 L2071.63 226.039 L2067.37 226.039 L2067.37 216.178 L2060.56 196.826 Q2059.54 193.909 2057.34 193.909 L2056.21 193.909 L2056.21 190.252 L2057.83 190.252 Q2062.39 190.252 2063.83 194.326 Z" fill="#000000" fill-rule="nonzero" fill-opacity="1" /><path clip-path="url(#clip830)" d="M2107.69 224.048 L2107.69 227.358 L2083.06 227.358 L2083.06 224.048 L2107.69 224.048 Z" fill="#000000" fill-rule="nonzero" fill-opacity="1" /><path clip-path="url(#clip830)" d="M2115.82 212.289 L2115.82 226.039 L2111.53 226.039 L2111.53 190.252 L2115.82 190.252 L2115.82 194.187 Q2117.16 191.872 2119.2 190.761 Q2121.26 189.627 2124.1 189.627 Q2128.83 189.627 2131.77 193.377 Q2134.73 197.127 2134.73 203.238 Q2134.73 209.349 2131.77 213.099 Q2128.83 216.849 2124.1 216.849 Q2121.26 216.849 2119.2 215.738 Q2117.16 214.603 2115.82 212.289 M2130.31 203.238 Q2130.31 198.539 2128.36 195.877 Q2126.44 193.192 2123.06 193.192 Q2119.68 193.192 2117.74 195.877 Q2115.82 198.539 2115.82 203.238 Q2115.82 207.937 2117.74 210.622 Q2119.68 213.284 2123.06 213.284 Q2126.44 213.284 2128.36 210.622 Q2130.31 207.937 2130.31 203.238 Z" fill="#000000" fill-rule="nonzero" fill-opacity="1" /><path clip-path="url(#clip830)" d="M2156.81 194.233 Q2156.09 193.817 2155.24 193.631 Q2154.4 193.423 2153.39 193.423 Q2149.77 193.423 2147.83 195.784 Q2145.91 198.122 2145.91 202.52 L2145.91 216.178 L2141.63 216.178 L2141.63 190.252 L2145.91 190.252 L2145.91 194.28 Q2147.25 191.918 2149.4 190.784 Q2151.56 189.627 2154.64 189.627 Q2155.08 189.627 2155.61 189.696 Q2156.14 189.743 2156.79 189.858 L2156.81 194.233 Z" fill="#000000" fill-rule="nonzero" fill-opacity="1" /><path clip-path="url(#clip830)" d="M2182.41 202.15 L2182.41 204.233 L2162.83 204.233 Q2163.11 208.631 2165.47 210.946 Q2167.85 213.238 2172.09 213.238 Q2174.54 213.238 2176.83 212.636 Q2179.15 212.034 2181.42 210.83 L2181.42 214.858 Q2179.13 215.83 2176.72 216.34 Q2174.31 216.849 2171.83 216.849 Q2165.63 216.849 2162 213.238 Q2158.39 209.627 2158.39 203.469 Q2158.39 197.104 2161.81 193.377 Q2165.26 189.627 2171.09 189.627 Q2176.33 189.627 2179.36 193.006 Q2182.41 196.363 2182.41 202.15 M2178.15 200.9 Q2178.11 197.405 2176.19 195.321 Q2174.29 193.238 2171.14 193.238 Q2167.58 193.238 2165.42 195.252 Q2163.29 197.266 2162.97 200.923 L2178.15 200.9 Z" fill="#000000" fill-rule="nonzero" fill-opacity="1" /><path clip-path="url(#clip830)" d="M2206.46 194.187 L2206.46 180.159 L2210.72 180.159 L2210.72 216.178 L2206.46 216.178 L2206.46 212.289 Q2205.12 214.603 2203.06 215.738 Q2201.02 216.849 2198.15 216.849 Q2193.45 216.849 2190.49 213.099 Q2187.55 209.349 2187.55 203.238 Q2187.55 197.127 2190.49 193.377 Q2193.45 189.627 2198.15 189.627 Q2201.02 189.627 2203.06 190.761 Q2205.12 191.872 2206.46 194.187 M2191.95 203.238 Q2191.95 207.937 2193.87 210.622 Q2195.82 213.284 2199.2 213.284 Q2202.58 213.284 2204.52 210.622 Q2206.46 207.937 2206.46 203.238 Q2206.46 198.539 2204.52 195.877 Q2202.58 193.192 2199.2 193.192 Q2195.82 193.192 2193.87 195.877 Q2191.95 198.539 2191.95 203.238 Z" fill="#000000" fill-rule="nonzero" fill-opacity="1" /><path clip-path="url(#clip830)" d="M2219.5 190.252 L2223.76 190.252 L2223.76 216.178 L2219.5 216.178 L2219.5 190.252 M2219.5 180.159 L2223.76 180.159 L2223.76 185.553 L2219.5 185.553 L2219.5 180.159 Z" fill="#000000" fill-rule="nonzero" fill-opacity="1" /><path clip-path="url(#clip830)" d="M2251.32 191.247 L2251.32 195.229 Q2249.52 194.233 2247.69 193.747 Q2245.89 193.238 2244.03 193.238 Q2239.89 193.238 2237.6 195.877 Q2235.31 198.492 2235.31 203.238 Q2235.31 207.983 2237.6 210.622 Q2239.89 213.238 2244.03 213.238 Q2245.89 213.238 2247.69 212.752 Q2249.52 212.242 2251.32 211.247 L2251.32 215.182 Q2249.54 216.016 2247.62 216.432 Q2245.72 216.849 2243.57 216.849 Q2237.71 216.849 2234.26 213.168 Q2230.82 209.488 2230.82 203.238 Q2230.82 196.895 2234.29 193.261 Q2237.78 189.627 2243.85 189.627 Q2245.82 189.627 2247.69 190.043 Q2249.57 190.437 2251.32 191.247 Z" fill="#000000" fill-rule="nonzero" fill-opacity="1" /><path clip-path="url(#clip830)" d="M2262.95 182.891 L2262.95 190.252 L2271.72 190.252 L2271.72 193.562 L2262.95 193.562 L2262.95 207.636 Q2262.95 210.807 2263.8 211.71 Q2264.68 212.613 2267.34 212.613 L2271.72 212.613 L2271.72 216.178 L2267.34 216.178 Q2262.41 216.178 2260.54 214.349 Q2258.66 212.497 2258.66 207.636 L2258.66 193.562 L2255.54 193.562 L2255.54 190.252 L2258.66 190.252 L2258.66 182.891 L2262.95 182.891 Z" fill="#000000" fill-rule="nonzero" fill-opacity="1" /><path clip-path="url(#clip830)" d="M2299.5 202.15 L2299.5 204.233 L2279.91 204.233 Q2280.19 208.631 2282.55 210.946 Q2284.94 213.238 2289.17 213.238 Q2291.63 213.238 2293.92 212.636 Q2296.23 212.034 2298.5 210.83 L2298.5 214.858 Q2296.21 215.83 2293.8 216.34 Q2291.39 216.849 2288.92 216.849 Q2282.71 216.849 2279.08 213.238 Q2275.47 209.627 2275.47 203.469 Q2275.47 197.104 2278.89 193.377 Q2282.34 189.627 2288.18 189.627 Q2293.41 189.627 2296.44 193.006 Q2299.5 196.363 2299.5 202.15 M2295.24 200.9 Q2295.19 197.405 2293.27 195.321 Q2291.37 193.238 2288.22 193.238 Q2284.66 193.238 2282.51 195.252 Q2280.38 197.266 2280.05 200.923 L2295.24 200.9 Z" fill="#000000" fill-rule="nonzero" fill-opacity="1" /><path clip-path="url(#clip830)" d="M2323.55 194.187 L2323.55 180.159 L2327.81 180.159 L2327.81 216.178 L2323.55 216.178 L2323.55 212.289 Q2322.2 214.603 2320.14 215.738 Q2318.11 216.849 2315.24 216.849 Q2310.54 216.849 2307.57 213.099 Q2304.63 209.349 2304.63 203.238 Q2304.63 197.127 2307.57 193.377 Q2310.54 189.627 2315.24 189.627 Q2318.11 189.627 2320.14 190.761 Q2322.2 191.872 2323.55 194.187 M2309.03 203.238 Q2309.03 207.937 2310.95 210.622 Q2312.9 213.284 2316.28 213.284 Q2319.66 213.284 2321.6 210.622 Q2323.55 207.937 2323.55 203.238 Q2323.55 198.539 2321.6 195.877 Q2319.66 193.192 2316.28 193.192 Q2312.9 193.192 2310.95 195.877 Q2309.03 198.539 2309.03 203.238 Z" fill="#000000" fill-rule="nonzero" fill-opacity="1" /></svg>
